<svg width="1145.57" height="819.91" xmlns="http://www.w3.org/2000/svg" xmlns:xlink="http://www.w3.org/1999/xlink">
 <defs>
  <linearGradient y2="0" x2="0.49999" y1="1" x1="0.49999" id="2f697947-2a6f-450c-95af-56e5336b1d5f">
   <stop stop-opacity="0.25" stop-color="gray" offset="0"/>
   <stop stop-opacity="0.12" stop-color="gray" offset="0.54"/>
   <stop stop-opacity="0.1" stop-color="gray" offset="1"/>
  </linearGradient>
  <linearGradient xlink:href="#2f697947-2a6f-450c-95af-56e5336b1d5f" y2="289.29" x2="944.34" y1="854.67" x1="944.34" id="2563b911-9cd4-457d-b636-acc38b40f33a"/>
 </defs>
 <title>security</title>
 <g>
  <title>background</title>
  <rect fill="none" id="canvas_background" height="602" width="802" y="-1" x="-1"/>
 </g>
 <g>
  <title>Layer 1</title>
  <path id="svg_1" opacity="0.1" fill="#e4d9bb" d="m1127.43,551.22c-26.57,54.81 -80.52,91.46 -136.43,115.63c-75.27,32.55 -158.16,45.46 -239.91,40q-21.49,-1.43 -42.85,-4.57a540.44,540.44 0 0 1 -143.27,-41.72q-19.74,-8.89 -38.68,-19.41a494.85,494.85 0 0 1 -60.46,-39.54q-7.23,-5.52 -14.26,-11.32c-3.25,-2.68 -6.47,-5.42 -9.74,-8.08c-6.9,-5.61 -14,-10.94 -21.92,-14.93a78.31,78.31 0 0 0 -7.34,-3.24c-25.08,-9.54 -54,-5.94 -80.11,1.5c-19.86,5.66 -39.22,13.41 -59.06,18.94a196,196 0 0 1 -26.91,5.72a143.21,143.21 0 0 1 -60.46,-5.31l-1.67,-0.52q-4.2,-1.32 -8.33,-2.89l-1.67,-0.64q-4,-1.54 -7.83,-3.31l-1.67,-0.76q-4,-1.86 -7.83,-3.93c-0.92,-0.48 -1.83,-1 -2.73,-1.49a163.67,163.67 0 0 1 -39.16,-30.49c-0.33,-0.33 -0.64,-0.67 -1,-1c-1.59,-1.72 -3.15,-3.47 -4.66,-5.26c-0.56,-0.66 -1.12,-1.32 -1.67,-2q-2.69,-3.28 -5.19,-6.71c-0.25,-0.33 -0.49,-0.67 -0.73,-1a144.59,144.59 0 0 1 -16.86,-30.49c-0.14,-0.33 -0.27,-0.67 -0.39,-1q-2,-5.15 -3.65,-10.47c-0.45,-1.48 -0.88,-3 -1.26,-4.48c-0.13,-0.44 -0.25,-0.89 -0.36,-1.33c-5.52,-21.73 -6.15,-44.32 -6.15,-66.78q0,-3.93 0,-7.85c0.16,-36.33 0.72,-73.28 6.08,-109.11c0,-0.25 0.07,-0.5 0.11,-0.74a340.76,340.76 0 0 1 7.31,-35.82a264.25,264.25 0 0 1 12.31,-36.3c12.33,-29 30.26,-55.39 50.17,-79.85c50.15,-61.55 115.92,-113.22 192.9,-132.56c82.95,-20.83 175.14,-0.87 242.05,52.4c20.4,16.24 38.73,35.47 61.64,47.92c20,10.84 43.41,15.33 64.83,6.8c17.7,-7.05 29.22,-10.55 49.1,-9.48a411.56,411.56 0 0 1 120.36,25.21c1.56,0.57 3.12,1.16 4.67,1.75c100.71,38.53 187.28,115.08 232.28,213.45q1.79,3.9 3.47,7.86c26.83,62.67 36.53,136.12 6.93,197.2z"/>
  <ellipse id="svg_2" opacity="0.1" fill="#e4d9bb" ry="14.18" rx="88.28" cy="728.81" cx="120.3"/>
  <ellipse id="svg_3" opacity="0.1" fill="#e4d9bb" ry="15.2" rx="156.53" cy="804.71" cx="912.26"/>
  <rect id="svg_4" fill="url(#2f697947-2a6f-450c-95af-56e5336b1d5f)" ry="12.49" rx="12.49" height="538.33" width="950.33" y="107.75" x="116.14"/>
  <rect id="svg_5" fill="#fff" ry="12.49" rx="12.49" height="528.97" width="947.42" y="115.32" x="117.65"/>
  <rect id="svg_6" fill="#fff" ry="12.49" rx="12.49" height="528.97" width="947.42" y="115.32" x="117.65"/>
  <rect id="svg_7" opacity="0.04" fill="#fff" ry="12.49" rx="12.49" height="528.97" width="947.42" y="115.32" x="117.65"/>
  <path id="svg_8" fill="#5a5773" d="m1060.26,109.25l-937.8,0a4.81,4.81 0 0 0 -4.81,4.81l0,20.33l947.38,0l0,-20.33a4.81,4.81 0 0 0 -4.77,-4.81z"/>
  <g id="6c975d28-8d47-4ade-9154-b3b78f637b65">
   <circle id="svg_9" fill="#fff" r="6.5" cy="121.82" cx="136.57"/>
   <circle id="svg_10" fill="#fff" r="6.5" cy="121.82" cx="154.07"/>
   <circle id="svg_11" fill="#fff" r="6.5" cy="121.82" cx="171.57"/>
  </g>
  <rect id="svg_12" opacity="0.2" fill="#e4d9bb" height="21.58" width="254.25" y="181.67" x="195.68"/>
  <rect id="svg_13" opacity="0.1" fill="#5a5773" height="331.96" width="791.36" y="269.2" x="195.68"/>
  <path id="svg_14" opacity="0.1" d="m659.03,289.85l-13.55,0l0,-26.32c0,-29.7 -23.68,-54.39 -53.38,-54.84a54.28,54.28 0 0 0 -54.85,54.11l0,27.05l-13.52,0a22.62,22.62 0 0 0 -22.55,22.55l0,108.22a22.62,22.62 0 0 0 22.55,22.55l135.3,0a22.61,22.61 0 0 0 22.54,-22.55l0,-108.22a22.61,22.61 0 0 0 -22.54,-22.55zm-59.75,70.35l0,38.76a8.09,8.09 0 0 1 -7.5,8.12a7.91,7.91 0 0 1 -8.28,-7.9l0,-39a18,18 0 1 1 15.78,0l0,0.02zm30.44,-70.35l-76.69,0l0,-27.05a38.33,38.33 0 0 1 76.66,0l0.03,27.05z"/>
  <path id="svg_15" fill="#f6d565" d="m659.03,287.85l-13.55,0l0,-26.32c0,-29.7 -23.68,-54.39 -53.38,-54.84a54.28,54.28 0 0 0 -54.85,54.11l0,27.05l-13.52,0a22.62,22.62 0 0 0 -22.55,22.55l0,108.22a22.62,22.62 0 0 0 22.55,22.55l135.3,0a22.61,22.61 0 0 0 22.54,-22.55l0,-108.22a22.61,22.61 0 0 0 -22.54,-22.55zm-59.75,70.35l0,38.76a8.09,8.09 0 0 1 -7.5,8.12a7.91,7.91 0 0 1 -8.28,-7.9l0,-39a18,18 0 1 1 15.78,0l0,0.02zm30.44,-70.35l-76.69,0l0,-27.05a38.33,38.33 0 0 1 76.66,0l0.03,27.05z"/>
  <rect id="svg_16" opacity="0.1" fill="#5a5773" height="18.91" width="80.1" y="236.25" x="906.94"/>
  <path id="svg_17" fill="url(#2563b911-9cd4-457d-b636-acc38b40f33a)" d="m1014.3,809.29a28.47,28.47 0 0 0 -2.68,-7.61l-12,-17.92l0.07,0s-1.89,-9 0,-13.42s-6.74,-15.29 -6.74,-15.29s-1.05,-2.73 1.69,-6.09s-1.69,-13.2 -1.69,-13.2s-2.1,-20.55 -2.31,-23.69s-1.9,-20.54 -1.9,-20.54l-4,-36.89l-7.12,-97.77l-0.13,-1.83c0.88,-0.43 1.35,-0.7 1.35,-0.7l-1.42,-54.06l1.23,-1.11c10.74,-9.72 35.51,-32.22 35.26,-32.71s-3,-37.57 -3.32,-46.85a55.83,55.83 0 0 0 -4.26,-19.18c-0.62,-1.23 -2.41,-9.34 -3.15,-12.77c-0.2,-0.94 -0.33,-1.53 -0.33,-1.53s-7.26,-13.84 -6.63,-20.13s1.89,-11 -13.59,-13.2c0,0 -13,-1.94 -20.74,-7.23a59,59 0 0 0 -14.86,-7.44s-4.34,-8 -7.36,-5.29a42,42 0 0 1 -2.85,-8.91l-0.09,-0.56a29.47,29.47 0 0 0 11.64,-16.66c0.1,-0.38 0.18,-0.77 0.27,-1.15a3.25,3.25 0 0 0 0.93,0.17c2.63,0 4.25,-2.93 6.71,-3.86c1,-0.39 2.23,-0.45 3,-1.24a2.93,2.93 0 0 0 0.66,-2.21a4.51,4.51 0 0 0 0,-0.82a2.93,2.93 0 0 0 0,-0.29l0,0.1c-0.67,-3.64 -3.49,-6.87 -3.18,-10.57c0.3,-3.48 3.36,-6.54 3.11,-9.93a5.4,5.4 0 0 0 -0.07,-0.8l0,0.12a8.56,8.56 0 0 0 -2,-3.54a11.36,11.36 0 0 0 -4.12,-3.46c-1.39,-0.61 -3,-0.75 -4.3,-1.48c-3.82,-2.08 -3.81,-7.5 -6.08,-11.2a9.91,9.91 0 0 0 -9.27,-4.59c-2.84,0.28 -5.41,1.79 -8.22,2.28c-3.84,0.68 -7.75,-0.57 -11.39,-2s-7.33,-3 -11.24,-3s-8.14,2 -9.32,5.69c-0.63,2 -0.32,4.15 -0.8,6.18c-0.86,3.58 -4,6.14 -7.25,7.92c-2,1.11 -4.38,2.38 -5,4.48c0,-0.06 0,-0.11 0,-0.16a3.84,3.84 0 0 0 -0.1,0.51a3.75,3.75 0 0 0 0,0.67c0,1.44 0.76,2.81 1.27,4.18a11.53,11.53 0 0 1 -0.06,8.06c-0.74,1.9 -2,3.57 -2.72,5.46a10.75,10.75 0 0 0 -0.66,2.74l0,-0.16a11,11 0 0 0 0,1.28a9,9 0 0 0 1,4.2a7.54,7.54 0 0 0 4.49,3.77c2,0.46 3.25,-1.5 5.36,-1a8.42,8.42 0 0 1 1.11,0.35c0.07,0.45 0.14,0.9 0.22,1.34a29.39,29.39 0 0 0 10.14,17.17c0,0.24 0.08,0.48 0.11,0.73l0,0a67.15,67.15 0 0 1 0.83,12.06s-3.15,-4.61 -7.47,4.29c0,0 -11.27,6.5 -15.16,7.24s-17.7,5.55 -17.7,5.55a12.18,12.18 0 0 1 -7.16,2.31c-4.31,0 -7.89,9.43 -7.37,14.56s-0.31,8.91 -4.32,9.12s-1.82,8.34 -1.79,8.48l-0.37,1.75c-0.78,3.58 -2.48,11.26 -3.08,12.46a56,56 0 0 0 -4.27,19.18c-0.31,9.28 -3,46.22 -3.31,46.85c-0.21,0.41 16.76,15.92 28.69,26.76l1.73,1.56l-5.49,51.28a13.69,13.69 0 0 0 5.64,10c0,0.6 0,1.21 -0.06,1.84c-0.24,6 -0.72,13.26 -1.68,15.16c-1.68,3.36 -1.26,21.38 -1.26,21.38s-1.69,36.68 -3.79,40.67s-2.53,12.36 -1.9,14s-2.11,45.69 -2.11,45.69l-2.1,19.71s0.63,18.86 -1.27,19.28s-2.95,13.42 -2.95,13.42s-6.73,9.22 -3.79,12.57s-0.43,4.83 -0.74,5.66s-6.42,4 -2,15.72a3.45,3.45 0 0 0 0.14,0.34c-4.14,5.75 -17.26,24.3 -16.46,27.12a7.43,7.43 0 0 0 3.5,4.2c3.09,1.85 8.39,2.71 16.82,0c14,-4.51 13,-7.76 13,-7.76a5.94,5.94 0 0 1 5.9,-5.66c5.79,-0.42 10.11,-5.76 10.11,-5.76l-0.68,-2.53l-0.93,-3.5c0.11,-1 0.82,-2.75 4,-3.72c4.85,-1.47 3.58,-10.69 3.58,-10.69s-0.42,-9.64 1.68,-10.9s1.27,-17.19 1.27,-17.19s2.32,-11.53 5.68,-19.29s7.38,-53.86 7.38,-53.86s2.73,-22.64 5.26,-29.14s4.85,-24.73 4.85,-24.73s15.59,-30.19 15.79,-36.9c0,0 2,-6.29 4,0.63s7.62,23.48 7.62,23.48l5.47,20.33l6.53,30.39l4.22,25.58s-0.64,9.64 1,13s4,11.1 2.74,12.57s2.52,8.39 3.58,9.85s0,32.49 0,32.49s4.84,26.41 11.79,31a8.5,8.5 0 0 0 1.54,0.8c-0.1,2.86 -0.2,6.69 -0.07,8.69a3.33,3.33 0 0 0 0.22,1.31c0.63,0.84 7.79,6.5 9.27,6.5s6.73,3.67 6.95,5.45s15.39,9.32 17.54,9.54s12.57,2.09 14,-0.84a4.85,4.85 0 0 0 0.29,-2.71zm-37.27,-377.72l1.08,0.93s1.11,8.65 1.9,11.24s-0.16,7.63 -0.16,7.63a17.55,17.55 0 0 0 1.11,5.5c0.94,1.89 -1.9,6 -1.9,6l-2.53,0l-0.79,-32.38l1.29,1.08zm-75.23,-96.68l0,-0.19c-0.02,0.06 -0.03,0.13 -0.03,0.19l0.03,0zm-38.85,124.65a3.65,3.65 0 0 1 -0.16,-2.67a8,8 0 0 0 0.53,-1.48a22.92,22.92 0 0 0 0.58,-4a0.28,0.28 0 0 0 0,-0.05c-0.09,-0.48 -0.9,-5.12 -0.15,-7.58s1.89,-11.24 1.89,-11.24l0.72,-0.61l1.67,-1.45s0,-0.54 0.12,-1.43c0.35,7.6 0.63,16 0.18,16.42c-0.84,0.83 -3.9,9 -3.16,9.32c0.24,0.11 -0.09,3.38 -0.65,7.78a15.94,15.94 0 0 1 -1.57,-3.01z"/>
  <path id="svg_18" fill="#efc6a0" d="m943.55,342.88l0,12.44l-25.52,12.83s-25.34,-15.33 -19.09,-21.43c4,-3.86 3.23,-14.46 2.15,-21.75l0,0c-0.63,-4.24 -1.36,-7.35 -1.36,-7.35s45.52,-13 38.64,-3.13c-2.3,3.3 -2.48,7.57 -1.71,11.8c1.56,8.39 6.89,16.59 6.89,16.59z"/>
  <path id="svg_19" fill="#3f3d56" d="m873.64,464.53l-3.29,40.52s-4.93,-4.47 -11.31,-10.29c-11.83,-10.79 -28.63,-26.22 -28.43,-26.63c0.31,-0.63 3,-37.39 3.29,-46.63a55.8,55.8 0 0 1 4.22,-19.08c0.6,-1.2 2.29,-8.84 3,-12.41c0.24,-1.11 0.39,-1.83 0.39,-1.83l5.52,-2.22s23,25.66 23,26.13s-1.57,20.18 -1.57,20.18l-1.63,1.42l-0.71,0.61s-1.1,8.61 -1.88,11.19s0.06,7.06 0.15,7.54l0,0a23.25,23.25 0 0 1 -0.57,4a8.38,8.38 0 0 1 -0.53,1.47a3.67,3.67 0 0 0 0.16,2.66a16.08,16.08 0 0 0 1.72,3.29l8.47,0.08z"/>
  <path id="svg_20" fill="#3f3d56" d="m1013.03,468.13c0.24,0.49 -24.29,22.88 -34.92,32.55l-4.82,4.37l-3.26,-40.52l8.45,0s2.82,-4.07 1.88,-5.95a17.39,17.39 0 0 1 -1.09,-5.47s0.93,-5 0.15,-7.59s-1.88,-11.19 -1.88,-11.19l-1.07,-0.92l-1.27,-1.11s-1.57,-19.71 -1.57,-20.18s23,-26.13 23,-26.13l5.48,2.19s0.12,0.59 0.32,1.53c0.74,3.41 2.51,11.48 3.12,12.71a55.8,55.8 0 0 1 4.22,19.08c0.26,9.24 2.94,46 3.26,46.63z"/>
  <path id="svg_21" fill="#3f3d56" d="m1013.13,812.07c-1.47,2.92 -11.79,1 -13.92,0.84s-17.17,-7.73 -17.38,-9.5s-5.42,-5.42 -6.88,-5.42s-8.55,-5.64 -9.18,-6.47a3.19,3.19 0 0 1 -0.21,-1.3c-0.22,-3.43 0.21,-12.26 0.21,-12.26l30.25,1.67l14.7,22.11a28.52,28.52 0 0 1 2.66,7.57a5,5 0 0 1 -0.25,2.76z"/>
  <path id="svg_22" opacity="0.1" d="m1013.13,812.07c-1.47,2.92 -11.79,1 -13.92,0.84s-17.17,-7.73 -17.38,-9.5s-5.42,-5.42 -6.88,-5.42s-8.55,-5.64 -9.18,-6.47a3.19,3.19 0 0 1 -0.21,-1.3c-0.22,-3.43 0.21,-12.26 0.21,-12.26l30.25,1.67l14.7,22.11a28.52,28.52 0 0 1 2.66,7.57a5,5 0 0 1 -0.25,2.76z"/>
  <path id="svg_23" opacity="0.1" d="m1013.13,812.07c-1.47,2.92 -11.79,1 -13.92,0.84s-17.17,-7.73 -17.38,-9.5s-5.42,-5.42 -6.88,-5.42s-8.55,-5.64 -9.18,-6.47a3.19,3.19 0 0 1 -0.21,-1.3l9.8,6.2s6.26,4 7.93,6.37s14.83,7.3 15.92,7.4c0.81,0.08 9.45,-1.58 14.17,-0.88a5,5 0 0 1 -0.25,2.76z"/>
  <path id="svg_24" fill="#3f3d56" d="m870.13,793.82s-4.28,5.32 -10,5.73a5.89,5.89 0 0 0 -5.84,5.63s1,3.24 -12.83,7.73c-8.35,2.69 -13.6,1.84 -16.66,0a7.44,7.44 0 0 1 -3.47,-4.18c-0.94,-3.33 17.52,-28.68 17.52,-28.68l16.8,-1l12,5.42l1.84,6.87l0.64,2.48z"/>
  <path id="svg_25" opacity="0.1" d="m870.13,793.82s-4.28,5.32 -10,5.73a5.89,5.89 0 0 0 -5.84,5.63s1,3.24 -12.83,7.73c-8.35,2.69 -13.6,1.84 -16.66,0a7.44,7.44 0 0 1 -3.47,-4.18c-0.94,-3.33 17.52,-28.68 17.52,-28.68l16.8,-1l12,5.42l1.84,6.87l0.64,2.48z"/>
  <path id="svg_26" fill="none" d="m870.13,793.82s-4.28,5.32 -10,5.73a5.89,5.89 0 0 0 -5.84,5.63s1,3.24 -12.83,7.73c-8.35,2.69 -13.6,1.84 -16.66,0c7.87,-0.82 25.26,-5.79 27,-7.51c2.09,-2.09 4.7,-7.83 6.47,-7.93c1.23,-0.08 7.48,-3.84 11.23,-6.17l0.63,2.52z"/>
  <path id="svg_27" opacity="0.1" d="m870.13,793.82s-4.28,5.32 -10,5.73a5.89,5.89 0 0 0 -5.84,5.63s1,3.24 -12.83,7.73c-8.35,2.69 -13.6,1.84 -16.66,0c7.87,-0.82 25.26,-5.79 27,-7.51c2.09,-2.09 4.7,-7.83 6.47,-7.93c1.23,-0.08 7.48,-3.84 11.23,-6.17l0.63,2.52z"/>
  <path id="svg_28" fill="#3f3d56" d="m998.94,770.56c-1.88,4.38 0,13.35 0,13.35s-28,1.46 -34.84,-3.13s-11.68,-30.88 -11.68,-30.88s1,-30.87 0,-32.33s-4.8,-8.34 -3.55,-9.8s-1,-9.18 -2.71,-12.52s-1,-12.93 -1,-12.93l-4.18,-25.46l-6.46,-30.24l-5.49,-20.24s-5.63,-16.48 -7.54,-23.36s-3.93,-0.63 -3.93,-0.63c-0.2,6.68 -15.64,36.72 -15.64,36.72s-2.3,18.15 -4.8,24.61s-5.22,29 -5.22,29s-4,45.89 -7.3,53.61s-5.57,19.19 -5.57,19.19s0.84,15.86 -1.25,17.11s-1.75,10.85 -1.75,10.85s1.25,9.17 -3.55,10.64s-4,4.59 -4,4.59s-26.7,4.38 -31.08,-7.31s1.67,-14.8 2,-15.64s3.66,-2.29 0.74,-5.64s3.75,-12.51 3.75,-12.51s1.05,-12.93 2.92,-13.35s1.26,-19.19 1.26,-19.19l2.08,-19.61s2.72,-43.81 2.09,-45.48s-0.21,-10 1.88,-14s3.75,-40.48 3.75,-40.48s-0.42,-17.93 1.25,-21.27c1,-1.89 1.42,-9.16 1.66,-15.09c0.18,-4.53 0.22,-8.28 0.22,-8.28l23.36,-8.76l30,-9.59l25.24,12.1l36.93,7.09l0.46,6.37l7.05,97.31l4,36.71s1.67,17.31 1.88,20.44s2.29,23.58 2.29,23.58s4.38,9.8 1.67,13.14s-1.67,6 -1.67,6s8.61,10.93 6.73,15.31z"/>
  <path id="svg_29" opacity="0.1" d="m938.39,314.49c-2.3,3.3 -2.48,7.57 -1.71,11.8a29.34,29.34 0 0 1 -35.57,-1.33l0,0c-0.63,-4.24 -1.36,-7.35 -1.36,-7.35s45.52,-12.98 38.64,-3.12z"/>
  <path stroke="null" id="svg_30" fill="#efc6a0" d="m949.03,301.73a29.3,29.3 0 1 1 -29.3,-29.3a29.16,29.16 0 0 1 29.3,29.3z"/>
  <polygon id="svg_31" opacity="0.1" points="955.13 350.42 945.53 521.37 893.38 510.42 883.05 441.89 893.28 349.89 900.98 350.88 914.56 352.61 928.01 353.44 942.59 351.82 955.13 350.42"/>
  <polygon id="svg_32" fill="#e4d9bb" points="955.13 351.67 945.53 522.62 893.38 511.67 883.05 443.14 893.28 351.15 900.98 352.13 914.56 353.86 928.01 354.69 942.59 353.07 955.13 351.67"/>
  <path id="svg_33" fill="#3f3d56" d="m912.26,356.26l18.78,0.63l-5.28,7.39s0.37,14.93 2.88,19.21s1.77,70.4 1.77,70.4l-5,9.49l-8.55,-10.64l0.11,-87.3l-4.71,-9.18z"/>
  <path id="svg_34" opacity="0.1" d="m912.26,356.26l18.78,0.63l-5.28,7.39s0.37,14.93 2.88,19.21s1.77,70.4 1.77,70.4l-5,9.49l-8.55,-10.64l0.11,-87.3l-4.71,-9.18z"/>
  <polygon id="svg_35" opacity="0.1" points="941.67 336.86 924.15 356.26 934.16 366.69 950.75 350.52 941.67 336.86"/>
  <polygon id="svg_36" fill="#e4d9bb" points="941.67 335.61 924.15 355.01 934.16 365.44 950.75 349.27 941.67 335.61"/>
  <polygon id="svg_37" opacity="0.1" points="916.75 355.32 899.01 337.59 897.34 346.87 905.48 367.21 916.75 355.32"/>
  <polygon id="svg_38" fill="#e4d9bb" points="917.37 354.07 899.64 336.34 897.97 345.62 906.11 365.96 917.37 354.07"/>
  <path id="svg_39" opacity="0.1" d="m977.08,558.1a86.57,86.57 0 0 1 -27,7.81c-17.21,2.19 -28.47,-19.71 -28.47,-19.71l-6.57,8.55c-2.09,9.08 -33.9,11.37 -46.83,7.93a20.69,20.69 0 0 1 -7.42,-3.51c0.18,-4.53 0.22,-8.28 0.22,-8.28l23.36,-8.76l30,-9.59l25.24,12.1l36.93,7.09l0.54,6.37z"/>
  <path id="svg_40" opacity="0.1" d="m955.13,351.68l-9.59,170.94l-52.16,-10.95l-10.35,-68.52l10.22,-92l7.7,1a93.48,93.48 0 0 1 -1.13,10c-1.25,5.85 6.47,47.36 6.47,47.36s14.67,46.55 21.27,39.84s16,-42.14 16,-42.14c6.37,-13.14 0.11,-50 -0.36,-50.74a14.88,14.88 0 0 1 -0.6,-3.35l12.53,-1.44z"/>
  <path id="svg_41" opacity="0.1" d="m977.66,483.96l0.44,16.75l-4.82,4.37l-3.25,-40.55l7.2,0l0.43,19.43z"/>
  <path id="svg_42" opacity="0.1" d="m864.4,453.06l0,0a23.25,23.25 0 0 1 -0.57,4c0,-0.37 0,-0.58 -0.08,-0.61c-0.3,-0.08 0.06,-1.61 0.65,-3.39z"/>
  <path id="svg_43" opacity="0.1" d="m873.64,464.53l-3.29,40.52s-4.93,-4.47 -11.31,-10.29l0.76,-7.18s2.69,-17.64 3.67,-26.34a16.08,16.08 0 0 0 1.72,3.29l8.45,0z"/>
  <path id="svg_44" fill="#3f3d56" d="m901.93,336.96s-3.12,-4.59 -7.4,4.27c0,0 -11.16,6.47 -15,7.2s-17.5,5.53 -17.5,5.53a12.08,12.08 0 0 1 -7.09,2.29c-4.28,0 -7.83,9.39 -7.31,14.5s-0.31,8.87 -4.27,9.08s-1.78,8.44 -1.78,8.44l26.39,30.25s1.67,27.85 0.84,28.69s-3.86,9 -3.13,9.28s-4,31.08 -4,31.08l-6.36,59.77s0,10 12.94,13.45s44.77,1.17 46.82,-7.91l6.57,-8.56s11.26,21.91 28.47,19.72s28.17,-8.45 28.17,-8.45l-1.88,-71.63l-1.25,-51.63l26.87,-44.15s-7.2,-13.77 -6.57,-20s1.87,-10.95 -13.46,-13.14c0,0 -12.93,-1.93 -20.55,-7.2a58.74,58.74 0 0 0 -14.7,-7.4s-4.3,-8 -7.29,-5.26c0,0 3,11.31 2.75,13s0.47,9.33 0.94,10.12s6.73,37.6 0.36,50.74c0,0 -9.35,35.43 -16,42.14s-21.27,-39.84 -21.27,-39.84s-7.72,-41.52 -6.47,-47.36s2.16,-27.02 2.16,-27.02z"/>
  <circle id="svg_45" fill="#3f3d56" r="4.59" cy="469.12" cx="924.25"/>
  <circle id="svg_46" fill="#3f3d56" r="4.59" cy="490.76" cx="924.25"/>
  <circle id="svg_47" opacity="0.1" r="4.59" cy="469.12" cx="924.25"/>
  <circle id="svg_48" opacity="0.1" r="4.59" cy="490.76" cx="924.25"/>
  <path id="svg_49" opacity="0.1" stroke-miterlimit="10" stroke="#e4d9bb" d="m965.5,764.3s18.84,1.46 20.71,2.92s-20.71,-2.92 -20.71,-2.92z"/>
  <path id="svg_50" opacity="0.1" stroke-miterlimit="10" stroke="#e4d9bb" d="m853.33,749.49s4,5 2.3,7.3s-2.3,-7.3 -2.3,-7.3z"/>
  <path id="svg_51" opacity="0.1" stroke-miterlimit="10" stroke="#e4d9bb" d="m858.13,767.52s7.3,-4.8 10.22,-1.61s-10.22,1.61 -10.22,1.61z"/>
  <path id="svg_52" opacity="0.1" d="m949.03,301.73a29.16,29.16 0 0 1 -0.94,7.41a3.33,3.33 0 0 1 -1.94,-3.26c0.13,-1.19 0.92,-2.28 0.75,-3.46c-0.25,-1.82 -2.45,-2.56 -3.61,-4c-1.43,-1.74 -1.12,-4.27 -1,-6.52s-0.45,-5 -2.56,-5.77c-0.63,-0.23 -1.32,-0.25 -1.93,-0.51c-1.66,-0.7 -2.17,-2.76 -3.28,-4.18c-2.22,-2.86 -6.63,-2.8 -10,-1.44a47.53,47.53 0 0 1 -4.5,1.88a5.88,5.88 0 0 1 -4.71,-0.35c-0.66,-0.42 -1.19,-1 -1.87,-1.42c-2.26,-1.36 -5.22,0 -7.18,1.75s-3.53,4.1 -6,5.17c-1.11,0.5 -2.48,0.8 -3,1.88a3.94,3.94 0 0 0 -0.32,1.87c0,3.89 0.46,7.84 -0.35,11.65c-0.52,2.45 -2.24,5.23 -4.73,4.93a4.67,4.67 0 0 1 -0.91,-0.23a29.3,29.3 0 1 1 58.1,-5.42l-0.02,0.02z"/>
  <path stroke="null" id="svg_53" fill="#3f3d56" d="m889.64,305.47c0.75,0.17 1.46,0.56 2.23,0.66c2.49,0.3 4.21,-2.48 4.73,-4.93c0.81,-3.81 0.39,-7.76 0.36,-11.65a3.81,3.81 0 0 1 0.31,-1.87c0.57,-1.08 1.94,-1.38 3,-1.88c2.42,-1.08 4,-3.38 6,-5.17s4.91,-3.11 7.17,-1.75c0.67,0.4 1.21,1 1.87,1.42a6,6 0 0 0 4.72,0.35c1.55,-0.46 3,-1.27 4.49,-1.88c3.34,-1.36 7.76,-1.41 10,1.43c1.11,1.43 1.62,3.48 3.28,4.18c0.61,0.26 1.3,0.29 1.93,0.52c2.11,0.79 2.65,3.52 2.56,5.77s-0.39,4.78 1,6.52c1.16,1.42 3.36,2.16 3.61,4c0.16,1.18 -0.62,2.28 -0.75,3.46a3.32,3.32 0 0 0 3.13,3.54c2.6,0 4.21,-2.91 6.64,-3.84c1,-0.39 2.21,-0.45 3,-1.24a3.31,3.31 0 0 0 0.62,-2.71c-0.49,-3.83 -3.56,-7.16 -3.23,-11c0.31,-3.68 3.72,-6.89 3,-10.51a8.52,8.52 0 0 0 -2,-3.57a11.56,11.56 0 0 0 -4.08,-3.45c-1.39,-0.6 -3,-0.74 -4.27,-1.47c-3.78,-2.07 -3.77,-7.47 -6,-11.15a9.79,9.79 0 0 0 -9.12,-4.54c-2.81,0.28 -5.36,1.77 -8.14,2.27c-3.81,0.68 -7.67,-0.57 -11.28,-2s-7.26,-3 -11.13,-3s-8.06,2 -9.24,5.66c-0.62,2 -0.31,4.14 -0.79,6.15c-0.84,3.57 -4,6.11 -7.18,7.88c-2.19,1.22 -4.82,2.62 -5.08,5.11c-0.17,1.58 0.7,3 1.25,4.53a11.53,11.53 0 0 1 -0.06,8c-0.73,1.89 -1.95,3.55 -2.69,5.43a9.75,9.75 0 0 0 0.26,8a7.46,7.46 0 0 0 4.57,3.75c1.97,0.47 3.21,-1.48 5.31,-1.02z"/>
  <g id="svg_54" opacity="0.1">
   <path id="svg_55" d="m896.6,299.02c-0.52,2.45 -2.25,5.23 -4.74,4.93c-0.77,-0.1 -1.47,-0.49 -2.23,-0.66c-2.09,-0.46 -3.33,1.5 -5.3,1a7.48,7.48 0 0 1 -4.58,-3.75a8.66,8.66 0 0 1 -0.93,-3.27a9.13,9.13 0 0 0 0.93,5.15a7.48,7.48 0 0 0 4.58,3.75c2,0.46 3.21,-1.5 5.3,-1a22.61,22.61 0 0 0 2.23,0.65c2.49,0.31 4.22,-2.47 4.74,-4.92a28.89,28.89 0 0 0 0.48,-6.57a24.63,24.63 0 0 1 -0.48,4.69z"/>
   <path id="svg_56" d="m882.9,283.96a11.51,11.51 0 0 0 -0.66,-4.83a25.53,25.53 0 0 1 -1.15,-3.16a4.59,4.59 0 0 0 -0.1,0.51c-0.17,1.57 0.71,3 1.25,4.53a11.47,11.47 0 0 1 0.66,2.95z"/>
   <path id="svg_57" d="m959.3,278.69c-0.47,2.84 -2.77,5.51 -3,8.5a7.15,7.15 0 0 0 0,1.54c0.5,-3.49 3.59,-6.58 3,-10.04z"/>
   <path id="svg_58" d="m959.47,299.79a2.35,2.35 0 0 1 -0.57,1.12c-0.74,0.79 -2,0.85 -3,1.24c-2.43,0.93 -4,3.87 -6.64,3.84a3.35,3.35 0 0 1 -3,-2.32a5.18,5.18 0 0 0 -0.14,0.66a3.32,3.32 0 0 0 3.13,3.53c2.61,0 4.21,-2.91 6.64,-3.83c1,-0.39 2.22,-0.45 3,-1.24a3.31,3.31 0 0 0 0.62,-2.71c-0.01,-0.12 -0.03,-0.2 -0.04,-0.29z"/>
   <path id="svg_59" d="m946.93,298.96c-0.25,-1.82 -2.45,-2.56 -3.61,-4a5.48,5.48 0 0 1 -1.1,-3.28c-0.08,1.86 -0.05,3.76 1.1,5.16s2.9,2 3.46,3.44a3.21,3.21 0 0 0 0.15,-1.32z"/>
   <path id="svg_60" d="m942.28,288.49c0.08,-2.25 -0.46,-5 -2.57,-5.77c-0.62,-0.23 -1.31,-0.26 -1.92,-0.51c-1.66,-0.7 -2.18,-2.76 -3.28,-4.18c-2.23,-2.85 -6.64,-2.8 -10,-1.44c-1.5,0.61 -2.93,1.42 -4.49,1.88a5.88,5.88 0 0 1 -4.71,-0.35c-0.66,-0.42 -1.2,-1 -1.87,-1.42c-2.27,-1.36 -5.23,0 -7.18,1.75s-3.53,4.09 -6,5.17c-1.12,0.5 -2.48,0.8 -3.06,1.88a3.93,3.93 0 0 0 -0.31,1.87c0,0.39 0,0.78 0,1.17a2.84,2.84 0 0 1 0.29,-1.16c0.58,-1.08 1.94,-1.38 3.06,-1.88c2.42,-1.08 4,-3.38 6,-5.17s4.91,-3.11 7.18,-1.75c0.67,0.4 1.21,1 1.87,1.41a5.84,5.84 0 0 0 4.71,0.35a46.21,46.21 0 0 0 4.49,-1.87c3.35,-1.36 7.76,-1.42 10,1.43c1.1,1.42 1.62,3.48 3.28,4.18c0.61,0.26 1.3,0.29 1.92,0.52c1.71,0.64 2.39,2.56 2.54,4.46l0.05,-0.57z"/>
  </g>
  <g id="svg_61" opacity="0.1">
   <path id="svg_62" d="m893.03,298.96a7.67,7.67 0 0 1 5.78,-7.17a24,24 0 0 1 13.48,0.61c9.49,3.14 -1.2,14.44 -1.2,14.44s-7.11,7 -13.74,2.11a10.39,10.39 0 0 1 -3.87,-6a15.3,15.3 0 0 1 -0.45,-3.99z"/>
   <path id="svg_63" d="m945.2,298.96a7.67,7.67 0 0 0 -5.79,-7.17a24,24 0 0 0 -13.47,0.61c-9.49,3.14 1.2,14.44 1.2,14.44s7.1,7 13.74,2.11a10.39,10.39 0 0 0 3.87,-6a15.3,15.3 0 0 0 0.45,-3.99z"/>
   <polygon id="svg_64" points="910.5 291.48 910.5 291.95 927.83 291.95 927.83 291.39 910.5 291.48"/>
   <path id="svg_65" d="m916.03,296.49l0.55,0l0,-1.59s1.76,-1.37 4.68,0l0,1.42l1,0l0,-0.93l-0.49,0s0.2,-1.93 -3.06,-1.62c0,0 -2.62,-0.25 -2.56,1.41l-0.6,0l0.48,1.31z"/>
  </g>
  <path id="svg_66" fill="#000000" d="m893.03,298.31a7.67,7.67 0 0 1 5.78,-7.17a24.13,24.13 0 0 1 13.48,0.61c9.49,3.15 -1.2,14.44 -1.2,14.44s-7.11,7 -13.74,2.11a10.33,10.33 0 0 1 -3.87,-6a15.21,15.21 0 0 1 -0.45,-3.99z"/>
  <path id="svg_67" fill="#000000" d="m945.2,298.31a7.67,7.67 0 0 0 -5.79,-7.17a24.09,24.09 0 0 0 -13.47,0.61c-9.49,3.15 1.2,14.44 1.2,14.44s7.1,7 13.74,2.11a10.33,10.33 0 0 0 3.87,-6a15.21,15.21 0 0 0 0.45,-3.99z"/>
  <polygon id="svg_68" fill="#e4d9bb" points="910.5 290.85 910.5 291.33 927.83 291.33 927.83 290.76 910.5 290.85"/>
  <path id="svg_69" fill="#e4d9bb" d="m916.03,295.86l0.55,0l0,-1.59s1.76,-1.36 4.68,0l0,1.43l1,0l0,-0.94l-0.49,0s0.2,-1.92 -3.06,-1.62c0,0 -2.62,-0.24 -2.56,1.41l-0.6,0l0.48,1.31z"/>
  <rect id="svg_70" fill="#535461" height="127.9" width="5.68" y="457.19" x="117.46"/>
  <path id="svg_71" fill="#3f3d56" d="m158.84,584.7l-0.36,5.76l-0.5,8.13l-0.21,3.39l-0.5,8.14l-0.22,3.39l-0.5,8.13l-5.73,92.47a15.66,15.66 0 0 1 -15.63,14.7l-29.78,0a15.65,15.65 0 0 1 -15.62,-14.7l-5.76,-92.47l-0.5,-8.13l-0.21,-3.39l-0.49,-8.16l-0.21,-3.39l-0.5,-8.13l-0.36,-5.76a8.11,8.11 0 0 1 8.1,-8.61l60.89,0a8.1,8.1 0 0 1 8.09,8.63z"/>
  <polygon id="svg_72" fill="#9d9cb5" points="158.48 590.46 157.98 598.59 82.61 598.59 82.11 590.46 158.48 590.46"/>
  <polygon id="svg_73" fill="#9d9cb5" points="157.77 601.98 157.27 610.12 83.33 610.12 82.82 601.98 157.77 601.98"/>
  <polygon id="svg_74" fill="#9d9cb5" points="157.05 613.51 156.55 621.64 84.05 621.64 83.54 613.51 157.05 613.51"/>
  <path id="svg_75" fill="#aaff56" d="m73.44,505.13c33.08,23.93 46.86,61.37 46.86,61.37s-39.87,-1.37 -73,-25.3s-46.86,-61.37 -46.86,-61.37s39.91,1.37 73,25.3z"/>
  <path id="svg_76" stroke-width="2" stroke-miterlimit="10" stroke="#535461" fill="none" d="m0.49,479.83s41.38,23 54.65,42s65.16,44.68 65.16,44.68"/>
  <path id="svg_77" fill="#aaff56" d="m94.79,456.96c18,13 25.51,33.4 25.51,33.4s-21.7,-0.74 -39.71,-13.77s-25.5,-33.4 -25.5,-33.4s21.7,0.69 39.7,13.77z"/>
  <path id="svg_78" stroke-width="2" stroke-miterlimit="10" stroke="#535461" fill="none" d="m55.09,443.14s22.52,12.5 29.74,22.85s35.47,24.32 35.47,24.32"/>
  <path id="svg_79" fill="#aaff56" d="m146.47,489.28c-20.69,22.73 -25.06,52.43 -25.06,52.43s29.16,-7.15 49.84,-29.88s25.06,-52.44 25.06,-52.44s-29.16,7.15 -49.84,29.89z"/>
  <path id="svg_80" stroke-width="2" stroke-miterlimit="10" stroke="#535461" fill="none" d="m196.31,459.39s-26.94,23.3 -33.79,39.36s-41.11,43 -41.11,43"/>
 </g>
</svg>