<?xml version="1.0" encoding="UTF-8" standalone="no"?>
<!DOCTYPE svg PUBLIC "-//W3C//DTD SVG 1.1//EN" "http://www.w3.org/Graphics/SVG/1.1/DTD/svg11.dtd">
<!-- 由 Microsoft Visio, SVG Export 產生 globe.svg the_world_is_mine -->
<svg xmlns="http://www.w3.org/2000/svg" xmlns:xlink="http://www.w3.org/1999/xlink" xmlns:ev="http://www.w3.org/2001/xml-events"
		xmlns:v="http://schemas.microsoft.com/visio/2003/SVGExtensions/" width="6.94642in" height="7.43238in"
		viewBox="0 0 500.142 535.132" xml:space="preserve" color-interpolation-filters="sRGB" class="st9">
	<v:documentProperties v:langID="1028" v:viewMarkup="false"/>

	<style type="text/css">
	<![CDATA[
		.st1 {fill:#00b050}
		.st2 {stroke:none;stroke-linecap:butt;stroke-width:0.75}
		.st3 {fill:#e6e6e6;stroke:none;stroke-linecap:butt;stroke-width:0.75}
		.st4 {fill:#00b0ff;stroke:none;stroke-linecap:butt;stroke-width:0.75}
		.st5 {fill:#00b050;stroke:none;stroke-linecap:butt;stroke-width:0.75}
		.st6 {fill:#2f2e41;stroke:none;stroke-linecap:butt;stroke-width:0.75}
		.st7 {fill:#ffb9b9;stroke:none;stroke-linecap:butt;stroke-width:0.75}
		.st8 {fill:#3f3d56;stroke:none;stroke-linecap:butt;stroke-width:0.75}
		.st9 {fill:none;fill-rule:evenodd;font-size:12px;overflow:visible;stroke-linecap:square;stroke-miterlimit:3}
	]]>
	</style>

	<g v:mID="0" v:index="1" v:groupContext="foregroundPage">
		<title>the_world_is_mine</title>
		<v:pageProperties v:drawingScale="1" v:pageScale="1" v:drawingUnits="19" v:shadowOffsetX="9" v:shadowOffsetY="-9"/>
		<g id="shape1-1" v:mID="1" v:groupContext="shape" transform="translate(84.1703,-128.675)">
			<title>工作表.1</title>
			<path d="M0 535.13 C0 535.13 1.76 497.3 37.82 501.7 L0 535.13 Z" class="st1"/>
			<path d="M0 535.13 C0 535.13 1.76 497.3 37.82 501.7" class="st2"/>
		</g>
		<g id="shape2-4" v:mID="2" v:groupContext="shape" transform="translate(79.4457,-0.478913)">
			<title>工作表.2</title>
			<path d="M4.3 535.13 C4.26 534.74 0 495.31 17.23 474.45 C23.59 466.75 32.12 462.44 42.56 461.64 L42.68 463.12 C32.65
						 463.89 24.48 468.02 18.38 475.4 C1.55 495.77 5.74 534.57 5.78 534.96 L4.3 535.13 Z" class="st3"/>
		</g>
		<g id="shape3-6" v:mID="3" v:groupContext="shape" transform="translate(82.2899,-1.60611)">
			<title>工作表.3</title>
			<rect x="0" y="369.382" width="1.5" height="165.75" class="st3"/>
		</g>
		<g id="shape4-8" v:mID="4" v:groupContext="shape" transform="translate(71.8574,-166.507)">
			<title>工作表.4</title>
			<ellipse cx="12.313" cy="522.819" rx="12.313" ry="12.313" class="st4"/>
		</g>
		<g id="shape5-10" v:mID="5" v:groupContext="shape" transform="translate(109.832,-60.9976)">
			<title>工作表.5</title>
			<ellipse cx="12.2351" cy="522.897" rx="12.2351" ry="12.2351" class="st5"/>
		</g>
		<g id="shape6-12" v:mID="6" v:groupContext="shape" transform="translate(229.562,-264.543)">
			<title>工作表.6</title>
			<path d="M270.58 399.83 L270.58 400.64 C270.56 402.68 270.5 404.7 270.41 406.72 A135.29 135.29 0 0 1 0.28 408.48 C0.09
						 405.62 0 402.74 0 399.83 A134.62 134.62 0 0 1 24.88 321.63 C26.17 319.79 27.52 317.98 28.93 316.21 C29.89
						 314.98 30.89 313.77 31.89 312.58 A135.316 135.316 0 0 1 220.43 294.68 C222.06 296 223.66 297.36 225.23 298.75
						 C226.48 299.87 227.71 301 228.92 302.17 A134.924 134.924 0 0 1 270.11 388.46 C270.42 392.21 270.58 396 270.58
						 399.83 Z" class="st4"/>
		</g>
		<g id="shape7-14" v:mID="7" v:groupContext="shape" transform="translate(229.562,-284.532)">
			<title>工作表.7</title>
			<path d="M28.93 336.2 a0.752422 0.752422 0 0 1 0.184065 0.110438 C29.84 336.91 28.93 338.06 29.04 339.01 C29.17 340.22
						 30.79 340.49 32.01 340.61 C33.23 340.74 34.78 341.72 34.2 342.81 C31.13 343.87 28.02 342.83 24.88 341.62
						 A134.62 134.62 -180 0 0 -0 419.82 C-0 422.73 0.09 425.61 0.28 428.47 A3.49676 3.49676 -180 0 0 1.11 428.92
						 C2.03 429.27 3.1 429.21 3.95 429.71 C4.62 430.1 5.07 430.8 5.74 431.17 C7.67 432.22 10.34 430.2 12.13 431.46
						 A16.5028 16.5028 0 0 1 13.45 432.8 C15.1 434.23 17.83 433.27 19.74 434.35 C20.97 435.04 21.61 436.42 22.27
						 437.67 C23.92 440.8 26.59 443.87 30.11 444.12 A21.1162 21.1162 0 0 1 33.45 444.23 C34.53 444.48 35.6 445.43
						 35.42 446.52 C35.12 448.41 36.05 450.47 35.8 452.36 C35.35 455.81 30.46 457.32 30.05 460.77 A20.7831 20.7831
						 0 0 1 29.92 463.04 C29.7 463.94 29.02 464.68 28.78 465.58 C28.32 467.28 29.54 468.99 30.88 470.13 C32.22
						 471.28 33.82 472.27 34.56 473.87 C35.33 475.58 34.95 477.56 35.2 479.41 C35.76 483.45 39.24 486.44 42.83
						 488.37 A7.96625 7.96625 0 0 1 45.81 490.54 C46.73 491.88 46.64 493.63 46.96 495.23 C47.71 499.12 50.99 502.33
						 51.08 506.3 C51.14 509.12 49.58 511.68 48.64 514.34 A18.5638 18.5638 -180 0 0 47.8 523.03 A135.938 135.938
						 -180 0 0 64.49 535.13 A4.86174 4.86174 -180 0 0 65.18 533.59 A3.058 3.058 -180 0 0 63.75 530.42 A7.56577
						 7.56577 -180 0 0 66.39 528.73 A2.59105 2.59105 -180 0 0 66.87 525.8 C68.49 526 70.42 526.1 71.48 524.86
						 C72.34 523.87 72.28 522.38 71.94 521.11 C71.6 519.84 71.03 518.62 71.02 517.3 A68.5366 68.5366 -180 0 0
						 82.27 516.93 A7.30086 7.30086 -180 0 0 78.85 512.64 C80.54 512.35 82.08 510.33 82.61 508.7 A10.0332 10.0332
						 -180 0 0 82.68 503.61 A2.70746 2.70746 0 0 1 82.63 502.28 A2.6075 2.6075 0 0 1 83.97 500.99 C86.77 499.38
						 89.57 497.77 92.37 496.16 A5.06041 5.06041 -180 0 0 93.71 495.18 C94.58 494.14 94.45 492.58 94 491.3 C93.55
						 490.03 92.83 488.82 92.66 487.48 C92.14 483.45 96.45 480.56 97.91 476.77 A16.0755 16.0755 -180 0 0 98.7
						 472.09 C98.82 470.38 98.83 468.4 97.52 467.3 C96.26 466.24 94.3 466.48 92.98 465.5 C91.78 464.6 91.36 462.86
						 90.05 462.13 C88.85 461.47 87.36 461.89 86.02 461.58 C83.69 461.03 82.21 458.34 79.82 458.09 C78.48 457.94
						 76.95 458.61 75.85 457.82 C74.87 457.12 74.83 455.73 74.65 454.56 A9.12679 9.12679 -180 0 0 67.29 447.17
						 C65.9 446.95 64.39 447.04 63.2 446.27 C62 445.5 61.46 444.05 60.51 442.98 C59 441.26 56.61 440.64 54.37
						 440.12 C51.34 439.41 48.3 438.7 45.27 437.98 C43.66 437.59 41.58 437.39 40.71 438.81 A6.22643 6.22643 -180
						 0 0 40.17 440.51 A5.28011 5.28011 0 0 1 35.22 444.23 A5.8505 5.8505 -180 0 0 31.78 441.56 A21.7175 21.7175
						 0 0 1 28.98 440.9 A3.91989 3.91989 0 0 1 27.29 435.46 A4.88358 4.88358 -180 0 0 26.45 429.6 C24.9 428.21
						 22.67 427.87 20.59 428 C20.05 426.82 20.96 425.48 21.93 424.62 C22.92 423.76 24.1 422.91 24.32 421.63 C24.66
						 419.6 22.07 418.06 20.11 418.66 C18.15 419.27 16.9 421.17 16.07 423.05 A13.2396 13.2396 0 0 1 14.44 426.17
						 A3.19811 3.19811 0 0 1 11.35 427.44 C9.73 427.03 9.11 425.1 8.75 423.49 A25.8049 25.8049 0 0 1 7.89 416.85
						 A8.66221 8.66221 0 0 1 10.39 410.81 C13.07 408.35 17.19 408.58 20.81 408.98 A2.65366 2.65366 0 0 1 21.09
						 405.48 A3.97639 3.97639 0 0 1 24.69 404.6 A4.9499 4.9499 0 0 1 27.48 406.27 C28.51 407.52 28.81 409.22 29.58
						 410.64 C30.36 412.06 32.11 413.28 33.54 412.51 C34.78 411.85 34.97 410.14 34.67 408.77 C34.36 407.41 33.7
						 406.07 33.81 404.67 C34.03 402.01 36.8 400.4 39.23 399.31 C41.67 398.21 44.46 396.73 44.85 394.08 A4.88475
						 4.88475 0 0 1 45.14 392.57 A2.95064 2.95064 0 0 1 46.24 391.54 C53.35 386.84 60.6 382.07 68.73 379.5 C69.15
						 379.36 69.2 379.51 69.63 379.41 C70.24 379.06 69.84 378.09 69.26 377.71 C68.68 377.32 67.9 377.02 67.76
						 376.34 C67.65 375.84 67.95 375.34 68.02 374.84 A1.87298 1.87298 -180 0 0 65.57 372.94 C64.91 372.07 66.2
						 371.07 67.25 370.78 A45.9997 45.9997 0 0 1 76.87 369.21 A1.7126 1.7126 0 0 1 77.96 369.4 A1.3015 1.3015
						 0 0 1 78.04 371.18 A10.0802 10.0802 0 0 1 76.58 372.52 A4.02 4.02 -180 0 0 75.53 376.56 C77.24 377.42 79.08
						 378.31 80.96 378.01 C82.84 377.71 84.51 375.59 83.62 373.91 C82.8 372.33 80.33 371.97 79.9 370.25 C79.41
						 368.24 82.26 366.44 81.62 364.47 C81.34 363.61 80.47 363.09 79.81 362.48 A5.4452 5.4452 0 0 1 78.62 356.46
						 A6.85787 6.85787 0 0 1 72.62 354.58 C71.19 353.13 70.05 350.84 68 350.92 C66.14 350.97 64.53 353.15 62.78
						 352.49 C62.34 352.32 61.89 351.99 61.48 352.19 A1.07264 1.07264 -180 0 0 60.99 352.99 C60.55 355.11 61.31
						 357.53 60.15 359.37 C58.89 361.37 55.98 361.65 54.45 363.45 C53.62 364.43 53.3 365.74 52.53 366.77 C51.77
						 367.8 50.16 368.47 49.24 367.57 A4.53532 4.53532 -180 0 0 48 362.04 A11.8588 11.8588 -180 0 0 45.28 360.72
						 A16.1676 16.1676 0 0 1 42.23 359.02 A3.01875 3.01875 0 0 1 41.12 357.83 A2.751 2.751 0 0 1 41.19 355.93
						 A7.74879 7.74879 0 0 1 47.35 350.83 C48.57 350.67 49.98 350.72 50.79 349.79 C51.22 349.31 51.44 348.56 52.06
						 348.37 A1.85161 1.85161 0 0 1 53.23 348.5 C54.75 349.04 56.26 349.57 57.78 350.11 A3.11436 3.11436 -180
						 0 0 59.4 350.37 A1.08955 1.08955 -180 0 0 60.35 349.22 C60.2 348.47 59.04 348.11 59.15 347.35 A1.19361 1.19361
						 0 0 1 59.53 346.7 A16.2625 16.2625 0 0 1 72.42 341.61 C72.99 342.56 72.09 343.67 71.33 344.47 C70.57 345.28
						 69.96 346.72 70.88 347.34 A2.42463 2.42463 -180 0 0 72.09 347.61 A10.5159 10.5159 0 0 1 75.31 348.59 C76.89
						 349.27 78.43 350.02 79.94 350.83 A5.83637 5.83637 0 0 1 80.05 347.85 A2.025 2.025 0 0 1 82.44 346.55 C83.35
						 346.9 83.81 348.1 84.77 348.21 C86.05 348.36 86.56 346.46 86.02 345.28 C85.49 344.11 84.42 343.13 84.34
						 341.83 C84.28 340.97 84.61 339.89 83.92 339.37 A1.83087 1.83087 -180 0 0 83.1 339.07 C77.32 338.01 71.54
						 336.95 65.75 335.89 C64.72 335.69 63.24 335.84 63.19 336.88 C63.16 337.47 63.69 338.05 63.46 338.58 C63.21
						 339.15 62.4 339.11 61.81 339.31 A2.23679 2.23679 -180 0 0 60.52 341.68 A6.44714 6.44714 -180 0 0 61.61 344.34
						 C60.48 343.87 58.77 343.78 57.64 343.3 A15.2671 15.2671 -180 0 0 56.65 339.49 A1.34811 1.34811 -180 0 0
						 54.89 338.4 C53.4 338.63 51.91 338.85 50.42 339.08 A1.73011 1.73011 -180 0 0 49.39 339.48 C48.81 340.09
						 49.39 341.08 49.37 341.92 A2.2942 2.2942 0 0 1 47.59 343.9 A6.69545 6.69545 0 0 1 44.76 343.87 C42.67 343.54
						 40.59 343.22 38.5 342.9 A10.2518 10.2518 -180 0 0 43.23 339.73 C44.06 338.76 44.5 336.94 43.3 336.48 A2.85538
						 2.85538 -180 0 0 42.22 336.39 C39.38 336.41 37.14 334.05 34.49 333.04 A7.59016 7.59016 -180 0 0 31.89 332.56
						 L28.93 336.2 Z" class="st5"/>
		</g>
		<g id="shape8-16" v:mID="8" v:groupContext="shape" transform="translate(324.246,-378.821)">
			<title>工作表.8</title>
			<path d="M175.72 521 A3.32317 3.32317 0 0 1 172.9 522.33 C170.02 522.08 168.81 517.93 165.96 517.46 A1.11194 1.11194
						 -180 0 0 165.2 517.53 C164.78 517.76 164.7 518.34 164.68 518.81 C164.56 521.19 164.46 523.65 165.39 525.85
						 C166.74 529.05 170.24 531.74 169.51 535.13 C165.55 533.3 163.49 528.85 162.56 524.59 C161.62 520.33 161.47
						 515.86 159.8 511.83 C158.52 513.46 155.85 512.11 154.69 510.4 C153.59 508.78 152.91 506.9 151.84 505.26
						 C150.77 503.62 149.13 502.15 147.18 502.05 C145.13 501.96 143.34 503.37 141.78 504.71 A12.5027 12.5027 -180
						 0 0 138.42 508.44 C137.32 510.65 137.61 513.25 137.55 515.7 C137.5 518.35 136.94 521.16 135.12 523.11 C133.31
						 525.05 129.97 525.73 127.97 523.98 A8.06728 8.06728 0 0 1 125.98 520.38 A175.109 175.109 0 0 1 120.56 501.07
						 C120.23 502.56 118.92 504.48 117.67 503.61 A2.58525 2.58525 0 0 1 117 502.74 C114.67 498.8 110.35 496.42
						 105.98 495 C101.62 493.58 97.02 492.92 92.71 491.35 A33.9316 33.9316 0 0 1 85.81 487.92 A5.42811 5.42811
						 -180 0 0 85.48 493.46 A4.43821 4.43821 -180 0 0 90.47 495.55 C91.43 495.23 92.24 494.57 93.18 494.24 C94.13
						 493.92 95.41 494.08 95.83 495 C96.23 495.87 95.62 496.93 95.93 497.85 C96.38 499.24 98.49 499.35 99.22 500.62
						 A2.56433 2.56433 0 0 1 98.53 503.58 A12.4032 12.4032 0 0 1 95.75 505.29 C92.66 507.02 90.46 509.95 87.75
						 512.23 C85.05 514.53 81.23 516.19 78.01 514.73 C78.77 510.83 74.14 507.98 73.29 504.11 C73 502.83 73.15
						 501.47 72.75 500.23 C72.17 498.43 70.57 497.2 69.27 495.83 A17.2922 17.2922 0 0 1 64.53 483.27 C64.6 481.67
						 64.89 480.04 64.53 478.48 C64.17 476.92 62.87 475.41 61.27 475.48 C57.61 475.64 53 475.92 51.09 472.8 C50.4
						 471.68 50.1 470.05 51.1 469.2 C51.8 468.6 52.83 468.66 53.74 468.75 C56.49 469.01 59.23 469.29 61.99 469.56
						 C63.91 469.74 65.99 469.9 67.65 468.89 C69.3 467.89 70.02 465.21 68.48 464.03 C67.37 463.16 65.36 463.21
						 65.03 461.84 C64.76 460.69 66.03 459.39 65.34 458.42 C64.86 457.74 63.75 457.92 63.08 458.44 A14.7909 14.7909
						 0 0 1 61.18 460.11 C59.86 460.79 58.29 460.13 56.88 459.69 C55.46 459.25 53.56 459.21 52.88 460.53 C52.11
						 461.99 53.55 463.92 52.8 465.4 C51.79 467.34 48.38 466.23 46.97 467.91 C45.35 469.82 48.07 472.7 47.53 475.14
						 A4.50964 4.50964 0 0 1 43.08 474.9 A4.3035 4.3035 0 0 1 41.22 470.88 C41.35 469.78 41.93 468.65 41.54 467.61
						 A3.82487 3.82487 -180 0 0 39.6 465.83 C36.93 464.35 34.26 462.87 31.6 461.4 C30.85 462.78 31.79 464.49 32.97
						 465.53 C34.14 466.56 35.61 467.34 36.38 468.7 A4.17321 4.17321 0 0 1 34.82 474.21 a0.970845 0.970845 0 0
						 1 -0.800693 0.138052 A1.10951 1.10951 0 0 1 33.5 473.65 C32.09 470.04 29.97 466.47 26.58 464.59 C23.18 462.69
						 18.31 463.09 16.09 466.26 C15.56 467.02 15.2 467.88 14.74 468.68 C12.3 472.93 7.06 474.93 2.16 474.8 A2.42475
						 2.42475 0 0 1 0.79 474.48 C0 473.94 0.04 472.78 0.16 471.82 C0.33 470.47 0.5 469.12 0.67 467.77 A3.24319
						 3.24319 0 0 1 1.56 465.55 C2.48 464.84 3.78 465.29 4.94 465.27 A4.25475 4.25475 -180 0 0 8.82 462.28 A4.80809
						 4.80809 -180 0 0 7.47 457.49 C6.95 456.99 6.24 456.37 6.52 455.7 A1.4914 1.4914 0 0 1 7.56 455 C9.63 454.4
						 11.83 454.24 13.86 453.53 C15.9 452.82 17.88 451.36 18.37 449.25 C18.52 448.61 18.58 447.83 19.16 447.51
						 A2.5632 2.5632 0 0 1 20.08 447.32 A4.47936 4.47936 -180 0 0 23.92 442.66 C24.9 441.97 26.27 442.48 27.21
						 443.21 C28.15 443.94 28.99 444.89 30.14 445.21 C32.29 445.79 34.36 443.89 36.58 443.88 C37.52 443.88 38.49
						 444.21 39.36 443.89 C40.26 443.57 40.79 442.68 41.47 442.03 C42.16 441.37 43.36 440.97 43.99 441.68 C43.81
						 440.35 43.63 439.02 43.45 437.7 A7.83409 7.83409 -180 0 0 49.83 436.54 C47.51 435.75 45.2 434.97 42.88 434.19
						 A1.49942 1.49942 0 0 1 42.23 433.84 C41.72 433.3 42.23 432.45 42.63 431.83 C43.62 430.35 43.78 427.91 42.16
						 427.18 C41.06 426.67 39.8 427.28 38.74 427.87 C37.04 428.8 35.35 429.75 33.66 430.69 C33.5 431.66 34.68
						 432.21 35.41 432.85 A2.93262 2.93262 0 0 1 33.49 437.98 A3.67381 3.67381 0 0 1 34.14 441.08 C33.01 441.16
						 31.87 441.25 30.73 441.33 A1.46625 1.46625 0 0 1 29.63 441.11 C29.26 440.79 29.31 440.22 29.22 439.74 A2.96227
						 2.96227 -180 0 0 26.72 437.56 A8.642 8.642 -180 0 0 23.23 437.88 A2.12534 2.12534 0 0 1 21.72 437.84 A1.50569
						 1.50569 0 0 1 21.13 437.09 A3.84818 3.84818 0 0 1 21.9 433.39 A21.1782 21.1782 0 0 1 24.81 430.71 A16.9542
						 16.9542 -180 0 0 29.87 422.89 C31.74 422.1 33.68 421.03 35.57 420.24 A22.7947 22.7947 0 0 1 40.31 418.64
						 A22.3982 22.3982 0 0 1 44.96 418.42 C47.08 418.46 49.2 418.5 51.32 418.54 A15.3052 15.3052 0 0 1 56.89 419.34
						 C58.63 420.06 60.16 421.62 60.28 423.49 A1.27442 1.27442 0 0 1 59.87 424.66 A1.49133 1.49133 0 0 1 59.07
						 424.85 C57.31 424.9 56.56 425.34 54.81 425.41 C55.92 426.6 57.17 427.85 58.79 428.06 C61.64 428.43 63.7
						 425.47 65.01 422.91 A2.5115 2.5115 -180 0 0 67.64 425.23 A5.28946 5.28946 -180 0 0 69.61 424.46 A38.9242
						 38.9242 0 0 1 88.07 419.69 A1.98698 1.98698 0 0 1 89.59 417.5 C90.9 417.25 92.08 418.38 92.72 419.56 C93.34
						 420.73 93.74 422.1 94.75 422.98 C95.75 423.86 97.69 423.82 98.09 422.55 C98.48 421.32 97.2 420.27 96.14
						 419.55 C95.07 418.83 93.96 417.49 94.68 416.43 C100.09 415.22 105.54 414.02 111.09 413.78 A6.98686 6.98686
						 -180 0 0 113.86 413.31 A2.14612 2.14612 -180 0 0 115.14 411.03 A6.27499 6.27499 0 0 1 108.61 408.57 C114.31
						 408.1 120.27 407.68 125.75 408.96 L130.54 413.03 C129.63 413.98 128.42 414.87 129.08 415.82 A2.04017 2.04017
						 -180 0 0 130.76 416.4 C131.92 416.42 133.08 416.44 134.23 416.44 A134.925 134.925 0 0 1 175.43 502.74 C173.49
						 502.66 171.72 505.11 171.97 507.25 C172.26 509.72 174.05 511.71 175.33 513.84 A10.0562 10.0562 0 0 1 175.9
						 514.92 L175.72 521 Z" class="st5"/>
		</g>
		<g id="shape9-18" v:mID="9" v:groupContext="shape" transform="translate(297.845,-266.677)">
			<title>工作表.9</title>
			<ellipse cx="23.2496" cy="511.882" rx="23.2496" ry="23.2496" class="st6"/>
		</g>
		<g id="shape10-20" v:mID="10" v:groupContext="shape" transform="translate(298.096,-250.594)">
			<title>工作表.10</title>
			<path d="M11.9 507.54 C11.9 507.54 4.33 524.31 2.16 524.85 C0 525.4 20.01 535.13 20.01 535.13 C20.01 535.13 23.8 514.58
						 25.42 513.5 C27.05 512.41 11.9 507.54 11.9 507.54 Z" class="st7"/>
		</g>
		<g id="shape11-22" v:mID="11" v:groupContext="shape" transform="translate(251.036,-95.3511)">
			<title>工作表.11</title>
			<path d="M14.06 489.69 L0 529.18 L15.15 535.13 L41.11 483.74 L14.06 489.69 Z" class="st7"/>
		</g>
		<g id="shape12-24" v:mID="12" v:groupContext="shape" transform="translate(314.323,-99.1377)">
			<title>工作表.12</title>
			<path d="M0 494.56 C0 494.56 28.13 534.05 29.75 534.59 C31.37 535.13 42.73 525.4 42.73 525.4 C42.73 525.4 28.67 491.32
						 24.34 489.69 C20.01 488.07 0 494.56 0 494.56 Z" class="st7"/>
		</g>
		<g id="shape13-26" v:mID="13" v:groupContext="shape" transform="translate(214.254,-6.64118)">
			<title>工作表.13</title>
			<path d="M34.62 433.44 L12.44 491.32 C12.44 491.32 14.06 494.56 12.44 495.1 C10.82 495.64 7.03 504.3 7.03 504.84 C7.03
						 505.38 3.25 505.92 3.25 507.54 C3.25 509.17 0 522.15 0 522.15 C0 522.15 5.95 535.13 9.74 531.35 C13.52 527.56
						 15.15 519.99 15.15 519.99 L20.55 505.92 C20.55 505.92 20.01 498.35 23.8 497.27 C27.59 496.19 29.75 482.66
						 29.75 482.66 C29.75 482.66 35.7 476.71 36.78 475.09 C37.86 473.47 56.8 444.8 55.17 444.26 C53.55 443.72
						 34.62 433.44 34.62 433.44 Z" class="st6"/>
		</g>
		<g id="shape14-28" v:mID="14" v:groupContext="shape" transform="translate(340.828,-20.705)">
			<title>工作表.14</title>
			<path d="M0 455.08 L16.23 444.26 C16.23 444.26 44.36 495.64 44.36 496.73 C44.36 497.81 43.27 501.05 44.36 502.14 C45.44
						 503.22 54.63 520.53 60.58 522.15 C66.53 523.77 67.61 530.26 62.75 531.35 C57.88 532.43 51.39 535.13 49.76
						 531.35 A59.5282 59.5282 -180 0 0 46.52 524.85 C46.52 524.85 41.11 526.48 40.57 525.4 A49.7783 49.7783 0
						 0 1 38.95 520.53 C38.95 520.53 34.62 512.95 34.62 510.25 C34.62 507.54 31.91 507 31.91 507 C31.91 507 25.96
						 492.94 22.18 490.78 C18.39 488.61 15.15 477.79 15.15 477.79 L0 455.08 Z" class="st6"/>
		</g>
		<g id="shape15-30" v:mID="15" v:groupContext="shape" transform="translate(305.669,-265.74)">
			<title>工作表.15</title>
			<ellipse cx="15.6865" cy="519.445" rx="15.6865" ry="15.6865" class="st7"/>
		</g>
		<g id="shape16-32" v:mID="16" v:groupContext="shape" transform="translate(251.62,-122.596)">
			<title>工作表.16</title>
			<path d="M23.22 471.5 C23.22 471.5 0 533.18 3.25 533.18 C6.49 533.18 96.28 535.13 98.98 530.8 C101.69 526.48 75.69 483.4
						 74.6 482.86 C73.52 482.32 23.22 471.5 23.22 471.5 Z" class="st6"/>
		</g>
		<g id="shape17-34" v:mID="17" v:groupContext="shape" transform="translate(226.832,-307.931)">
			<title>工作表.17</title>
			<path d="M24.74 528.1 L8.52 503.22 C8.52 503.22 12.53 477.12 7.12 481.98 C1.71 486.85 0 506.51 0 506.51 L18.79 535.13
						 L24.74 528.1 Z" class="st7"/>
		</g>
		<g id="shape18-36" v:mID="18" v:groupContext="shape" transform="translate(397.624,-261.953)">
			<title>工作表.18</title>
			<path d="M1.08 527.56 L15.69 526.48 C15.69 526.48 33 508.09 34.08 514.04 C35.16 519.99 20.01 532.97 20.01 532.97 L0 535.13
						 L1.08 527.56 Z" class="st7"/>
		</g>
		<g id="shape19-38" v:mID="19" v:groupContext="shape" transform="translate(240.759,-252.217)">
			<title>工作表.19</title>
			<path d="M51.39 523.23 L51.39 517.82 C51.39 517.82 37.32 508.63 37.86 507 C38.4 505.38 36.78 504.3 36.78 504.3 C36.78
						 504.3 35.16 502.14 35.16 501.59 C35.16 501.05 33 500.51 33 500.51 L19.47 484.83 C19.47 484.83 11.9 469.68
						 10.28 470.22 C8.65 470.76 0 474.01 1.08 476.17 C2.16 478.34 32.45 524.85 32.45 524.85 C32.45 524.85 34.08
						 535.13 36.78 535.13 C39.49 535.13 51.39 523.23 51.39 523.23 Z" class="st8"/>
		</g>
		<g id="shape20-40" v:mID="20" v:groupContext="shape" transform="translate(326.223,-239.235)">
			<title>工作表.20</title>
			<path d="M2.16 516.74 C2.16 516.74 14.06 516.2 14.6 516.74 C15.15 517.28 22.72 516.74 22.72 516.74 C22.72 516.74 43.27
						 511.87 44.9 510.25 C46.52 508.63 73.56 501.59 74.65 504.84 C75.73 508.09 78.43 514.58 75.73 515.66 C73.02
						 516.74 0 535.13 0 535.13 L2.16 516.74 Z" class="st8"/>
		</g>
		<g id="shape23-42" v:mID="23" v:groupContext="shape" transform="translate(307.765,-285.236)">
			<title>工作表.23</title>
			<ellipse cx="16.0342" cy="525.511" rx="16.0342" ry="9.62053" class="st6"/>
		</g>
		<g id="shape24-44" v:mID="24" v:groupContext="shape" transform="translate(262.125,-169.186)">
			<title>工作表.24</title>
			<path d="M43.27 434.52 C43.27 434.52 38.4 438.31 37.32 438.85 C36.24 439.39 29.75 433.98 28.67 433.98 C27.59 433.98 13.52
						 450.21 13.52 450.21 C13.52 450.21 16.14 453.22 13.52 468.6 C12.54 474.37 10.6 499.03 10.6 502.27 C10.6 505.52
						 0 513.5 9.74 520.53 C19.47 527.56 65.99 535.13 66.53 530.8 C67.07 526.48 61.12 515.12 63.83 509.71 C66.53
						 504.3 66.53 484.29 66.53 484.29 L69.78 463.19 L72.48 446.42 C72.48 446.42 59.77 442.91 58.69 442.91 C57.61
						 442.91 52.74 450.48 43.27 434.52 Z" class="st8"/>
		</g>
		<g id="shape25-46" v:mID="25" v:groupContext="shape">
			<title>工作表.25</title>
			<rect x="0" y="533.451" width="498" height="1.68054" class="st8"/>
		</g>
	</g>
</svg>
