<svg width="128" height="128" xmlns="http://www.w3.org/2000/svg" xml:space="preserve" version="1.1">

 <g>
  <title>Layer 1</title>
  <g id="svg_1">
   <g id="svg_2">
    <g id="svg_3">
     <circle id="svg_4" fill="#F0DB4F" r="50" cy="64" cx="64"/>
    </g>
   </g>
   <g id="Layer_1_1_">
    <g id="svg_5">
     <g id="svg_6">
      <path id="svg_7" fill="#323330" d="m48.4,44.6l8.7,0l0,24.5c0,11 -5.3,14.9 -13.7,14.9c-2.1,0 -4.7,-0.3 -6.4,-0.9l1,-7.1c1.2,0.4 2.8,0.7 4.5,0.7c3.7,0 6,-1.7 6,-7.6l-0.1,-24.5l0,0z"/>
      <path id="svg_8" fill="#323330" d="m64.8,74.4c2.3,1.2 6,2.4 9.7,2.4c4,0 6.1,-1.7 6.1,-4.3c0,-2.4 -1.8,-3.8 -6.5,-5.4c-6.4,-2.3 -10.7,-5.9 -10.7,-11.6c0,-6.5 5.6,-11.5 14.7,-11.5c4.4,0 7.6,0.9 9.9,2l-2,7c-1.5,-0.7 -4.3,-1.8 -8,-1.8c-3.8,0 -5.6,1.8 -5.6,3.7c0,2.5 2.1,3.6 7.2,5.5c6.8,2.5 10,6.1 10,11.6c0,6.5 -4.9,12 -15.6,12c-4.4,0 -8.8,-1.2 -11,-2.4l1.8,-7.2z"/>
     </g>
    </g>
   </g>
  </g>
 </g>
</svg>