<svg width="1007.04" height="858" xmlns="http://www.w3.org/2000/svg">
 <defs>
  <linearGradient y2="-0.00003" x2="0.5" y1="1" x1="0.5" id="cc082665-c41a-43d9-8451-73726d32e49c">
   <stop stop-opacity="0.25" stop-color="gray" offset="0"/>
   <stop stop-opacity="0.12" stop-color="gray" offset="0.54"/>
   <stop stop-opacity="0.1" stop-color="gray" offset="1"/>
  </linearGradient>
 </defs>
 <title>reading list</title>
 <g>
  <title>background</title>
  <rect fill="none" id="canvas_background" height="602" width="802" y="-1" x="-1"/>
 </g>
 <g>
  <title>Layer 1</title>
  <g id="svg_1" opacity="0.1">
   <path id="svg_2" fill="#1b2d92" d="m597.25,16.32c-9.33,7.66 -13.5,19.8 -17.14,31.31q-12.24,38.74 -22.89,78c-10.35,38.02 -19.75,76.88 -38.7,111.47s-46.56,63.26 -73.87,91.59l-98.38,102c-30.4,31.53 -62.83,67.92 -62.25,111.72c0.5,38 27.06,71.71 59.56,91.33s70.48,27.65 107.65,35.37c18.87,3.92 38.9,7.77 57,1.25c21.74,-7.82 35.91,-28.77 55.78,-40.56c35.65,-21.17 80.82,-9.26 120.76,1.84s87,19.52 119.39,-6.34c47,-37.53 26.74,-113.14 47.73,-169.5c19.92,-53.49 75,-84.25 111.15,-128.41c80.76,-98.63 45.45,-235.63 -66,-290.93c-36.52,-18.07 -72.52,-17.14 -112.13,-19.99c-49.39,-3.54 -145.09,-35.12 -187.66,-0.15z"/>
  </g>
  <g id="svg_3" opacity="0.5">
   <path id="svg_4" fill="#00bf00" d="m292.93,586.83s-165.2,-83.6 -94.6,-270.33s-185.01,-251.5 -185.01,-251.5s-50.07,181.82 44,302.9s130.36,322.1 235.61,218.93z"/>
   <path id="svg_5" stroke-miterlimit="10" stroke="#fff" fill="#00bf00" d="m13.32,65s69.7,120.77 104.87,277.87s92.43,286.74 173.89,241"/>
  </g>
  <g id="svg_6" opacity="0.5">
   <path id="svg_7" fill="#00bf00" d="m257.44,617.37s-66.06,-94.83 21.58,-186.24s-31.83,-199.82 -31.83,-199.82s-75.35,94.12 -57.36,191.69s-16.24,226.7 67.61,194.37z"/>
   <path id="svg_8" stroke-miterlimit="10" stroke="#fff" fill="#00bf00" d="m247.2,231.31s5,90.72 -18.1,193.52s-27.13,195.38 28.67,190.57"/>
  </g>
  <g id="svg_9" opacity="0.1">
   <path id="svg_10" fill="#1b2d92" d="m62.71,766.86c1.16,7.13 5.29,12.56 9.21,17.54l46.65,59.14c3.75,4.76 7.78,9.71 12.82,11c10.53,2.79 19,-10.73 28,-18.64c32,-28.12 75.73,14.69 111.9,-1.68c14.47,-6.55 26.19,-22.11 40.94,-27.38c39.05,-14 72.14,47.85 112.46,51c13.24,1 26.23,-4.44 38.88,-9.85l84.38,-36.12c5.86,-2.51 11.82,-5 18,-5.15c10.38,-0.18 20.05,6.5 29.82,11.31c39.33,19.38 83,8.92 123.4,-5.76s81.09,-33.57 122.85,-30.44c10.87,0.82 25.23,0.13 28.2,-14.13c1.77,-8.48 -22.12,0.41 -27.65,-4.16s7.63,-23.64 1.18,-24.45c-37.53,-4.7 -75.77,-4.83 -112.45,7c-19,6.12 -37.69,15.44 -57.2,17.35c-20.34,2 -40.57,-4.16 -60.54,-9.76c-50.57,-14.18 -102,-25 -153.63,-22.8c-91.76,4 -182.14,49.26 -273.44,36.14a232.69,232.69 0 0 1 -77.4,-25.92c-12.32,-6.65 -11.77,16.9 -24.34,24.83c-4.09,2.58 -14.8,-21.48 -18,-16.85a23.52,23.52 0 0 0 -4.04,17.78z"/>
  </g>
  <path id="svg_11" fill="url(#cc082665-c41a-43d9-8451-73726d32e49c)" d="m849.64,652.83l-145.85,-191c-11.39,-53.62 -28.49,-53.62 -28.49,-53.62c-116.22,-15.64 -148.12,-35.75 -148.12,-35.75l-26,-10.18l-2.17,-1.28c-0.1,-0.57 -0.21,-1.14 -0.31,-1.73s-0.2,-1.37 -0.28,-2.06a125.45,125.45 0 0 0 57,-76.8c0.21,-0.84 0.4,-1.7 0.6,-2.55a32.84,32.84 0 0 0 13.59,-12.11c11.17,-18.31 0.56,-41.49 0.8,-62.82c0.15,-13.48 4.8,-26.69 4.27,-40.16c-0.44,-11.28 -4.48,-22.11 -8.89,-32.53c-2.14,-5.07 -4.5,-10.25 -8.6,-14c-10.87,-9.87 -28.47,-5.64 -42.43,-10.5c-18.06,-6.29 -26.47,-25.89 -36.91,-41.65c-4,-6.08 -11.28,-12.5 -17.85,-9.17c-7.71,3.9 -5.62,17.25 -13.41,21c-4.72,2.27 -10.49,-0.59 -13.86,-4.55s-5.3,-8.93 -8.62,-12.93a25.34,25.34 0 0 0 -24.59,-8.24a8.53,8.53 0 0 0 -4.67,2.39c-2.49,2.9 -0.93,7.22 -0.76,11c0.59,12.73 -15,19.8 -27.88,21.15s-28.06,1.51 -35.77,11.76c-4.08,5.43 -4.95,12.5 -7.7,18.68c-6.38,14.33 -21.81,22.18 -35.37,30.41s-27.52,20.23 -27.4,35.87c0.12,15 13.36,27.15 15.69,42c1.24,7.87 -0.69,16 0.85,23.83c2.83,14.36 16.25,24 28.63,32.15c0.84,0.55 1.69,1.1 2.56,1.62c0.22,0.88 0.44,1.75 0.68,2.62a125.91,125.91 0 0 0 64.36,78c0.2,0.84 0.39,1.69 0.58,2.56c0.59,2.68 1.14,5.47 1.63,8.33l-0.38,0.1l0,-0.28l-144.05,36.73a6.24,6.24 0 0 0 -2.71,-0.34c-5.9,-0.48 -24.35,5.88 -45.88,92.13l-92.28,163.09s-53.55,51.39 -12.53,95c20.91,22.21 44.49,27.58 62.58,27.51a86.36,86.36 0 0 0 30.82,-5.22s-0.74,-1.14 -1.88,-3.16l12.2,1.49c24,26.68 64.88,17.31 64.88,17.31s58.15,-0.66 60.29,-31.07l104.51,32.06l0.42,5.71l54.88,0l-0.09,-3.64l115.46,-34.78c9,16.64 31,24.87 31,24.87s67.76,2.85 89.06,-9.49a95.17,95.17 0 0 1 28.86,-11.11l0.59,-0.06l-0.14,0.14l130.46,-14c59.26,-51.35 -11.38,-102.73 -11.38,-102.73zm-656.67,45.42l-2.87,-1.66a106.09,106.09 0 0 1 15.77,-4.66l25.38,-31.33l4.39,30.9a57.72,57.72 0 0 0 -42.67,6.75zm490.87,-0.25a53.22,53.22 0 0 0 -32.85,-10.75l1,-76.06c9.53,6.09 17.53,12.81 19.9,19.29c6.84,19 39.88,49.15 39.88,49.15l-17.16,14.1l0,0l-2.67,2.19c-0.72,0.17 -1.44,0.34 -2.16,0.53l-5.94,1.55z"/>
  <polygon id="svg_12" fill="#efb7b9" points="166.28 782 192.91 785.33 208.44 708.77 178.48 691.01 139.65 733.18 166.28 782"/>
  <polygon id="svg_13" opacity="0.03" points="166.28 782 192.91 785.33 208.44 708.77 178.48 691.01 139.65 733.18 166.28 782"/>
  <path id="svg_14" fill="#efb7b9" d="m523.52,405.86l-64.35,57.7s-124.27,27.74 -93.2,-11.1c17.6,-22 15.26,-55.39 9.92,-80.21a208.09,208.09 0 0 0 -9.92,-33s159.8,-96.49 137.61,-23.25c-6.58,21.72 -7.5,38.47 -5.55,51.27c4.66,30.36 25.49,38.59 25.49,38.59z"/>
  <path id="svg_15" opacity="0.1" d="m503.58,316c-6.58,21.72 -7.5,38.47 -5.55,51.27a124.41,124.41 0 0 1 -122.12,5a208.09,208.09 0 0 0 -9.92,-33s159.78,-96.51 137.59,-23.27z"/>
  <path id="svg_16" fill="#efb7b9" d="m556.84,259.4a124.27,124.27 0 1 1 -124.32,-124.27a123.91,123.91 0 0 1 124.32,124.27z"/>
  <polygon id="svg_17" fill="#e1e7ef" points="347.13 420.29 347.13 647.74 565.71 629.99 529.1 398.1 432.57 455.79 347.13 420.29"/>
  <path id="svg_18" opacity="0.1" d="m465.85,560.09l-24.33,-68.79l1,0c25.52,-27.74 14.42,-44.38 14.42,-44.38l-35.42,0c-22.55,16 -6.9,36.73 -1.59,42.7l-10.62,70.47l56.54,0z"/>
  <path id="svg_19" fill="#d32a2a" d="m465.85,557.87l-24.33,-68.79l1,0c25.52,-27.74 14.42,-44.38 14.42,-44.38l-35.42,0c-22.55,16 -6.9,36.73 -1.59,42.7l-10.62,70.47l56.54,0z"/>
  <path id="svg_20" opacity="0.1" d="m498.33,371.2s-7,32.44 -55.77,75.71c0,0 15,5 17.2,44.94l18.31,25s14.42,-52.15 39.94,-69.9s0,-64.35 0,-64.35l-19.68,-11.4z"/>
  <path id="svg_21" fill="#e1e7ef" d="m498.33,369s-7,32.44 -55.77,75.71c0,0 15,5 17.2,44.94l18.31,25s14.42,-52.15 39.94,-69.9s0,-64.35 0,-64.35l-19.68,-11.4z"/>
  <path id="svg_22" opacity="0.1" d="m432.52,446.91s-21,16.65 -22.14,43.28s-12.2,26.63 -12.2,26.63s-27.74,-85.43 -36.61,-93.2s16,-40.54 16,-40.54s13.95,46.08 54.95,63.83z"/>
  <path id="svg_23" fill="#e1e7ef" d="m432.52,444.7s-21,16.64 -22.14,43.3s-12.2,26.63 -12.2,26.63s-27.75,-85.47 -36.66,-93.23s16,-40.54 16,-40.54s14,46.08 55,63.84z"/>
  <path id="svg_24" opacity="0.1" d="m496.92,369.25l27.74,11.1s31.07,20 144.24,35.51c0,0 16.64,0 27.74,53.26l142,189.73s68.79,51 11.1,102.08l-127,13.87s73.23,-69.9 -37.72,-72.12l20.5,-17.21s-32.18,-30 -38.83,-48.82s-61,-39.94 -61,-39.94l6.66,159.77l-99.9,15.52l-14.4,-297.3a197.44,197.44 0 0 1 2.4,-41.93c3.76,-22.55 7.73,-58.27 -3.53,-63.52z"/>
  <path id="svg_25" fill="#67647e" d="m498.03,369.25l27.74,11.1s31.07,20 144.24,35.51c0,0 16.64,0 27.74,53.26l142,189.73s68.79,51 11.1,102.08l-127,13.87s73.23,-69.9 -37.72,-72.12l20.53,-17.2s-32.18,-30 -38.83,-48.82s-61,-39.94 -61,-39.94l6.66,159.77l-99.97,15.51l-14.4,-297.3a197.44,197.44 0 0 1 2.4,-41.93c3.8,-22.55 7.77,-58.27 -3.49,-63.52z"/>
  <path id="svg_26" opacity="0.1" d="m378.2,380.34l-140.91,36.66s-21.08,-13.31 -46.6,91l-89.87,162s-52.15,51 -12.2,94.31s89.9,22.12 89.9,22.12s-45.49,-71 34.4,-88.76l30,-37.72l135.36,15.53l-3.41,-195.28l3.79,-22.76a226,226 0 0 0 0,-74.31l-0.46,-2.79z"/>
  <path id="svg_27" fill="#67647e" d="m377.09,380.34l-140.91,36.66s-21.08,-13.31 -46.6,91l-89.87,162s-52.19,51 -12.19,94.24s89.87,22.19 89.87,22.19s-45.49,-71 34.4,-88.76l30,-37.72l135.36,15.53l-3.39,-195.28l3.76,-22.76a226,226 0 0 0 0,-74.31l-0.43,-2.79z"/>
  <polygon id="svg_28" fill="#e4e6ed" points="238.4 489.08 225.08 499.06 425.91 550.1 425.91 530.13 238.4 489.08"/>
  <polygon id="svg_29" fill="#e4e6ed" points="626.74 485.75 640.05 495.74 425.91 550.1 425.91 530.13 626.74 485.75"/>
  <polygon id="svg_30" fill="#006eff" points="212.88 489.08 399.28 532.35 412.59 803.08 249.49 752.04 212.88 489.08"/>
  <polygon id="svg_31" fill="#006eff" points="648.93 489.08 450.32 534.57 461.41 806.41 645.6 749.82 648.93 489.08"/>
  <path id="svg_32" fill="#1b2d92" d="m392.62,532.35s32.54,20 66.75,0l6.66,276.28l-53.43,0l-19.98,-276.28z"/>
  <path id="svg_33" opacity="0.1" d="m392.62,532.35s32.54,20 66.75,0l6.66,276.28l-53.43,0l-19.98,-276.28z"/>
  <path id="svg_34" fill="#d8d9e5" d="m242.84,485.75l0,7.77l183.07,36.61s-93.2,-34.4 -183.07,-44.38z"/>
  <path id="svg_35" fill="#d8d9e5" d="m623.41,481.31l0,7.77l-197.5,41.05s107.61,-38.83 197.5,-48.82z"/>
  <path id="svg_36" fill="#efb7b9" d="m684.1,702.18l-5.79,1.56s-37.71,-33 -85.78,17s16,74.47 16,74.47s66,2.83 86.73,-9.43a91.23,91.23 0 0 1 28.89,-11.19a29.52,29.52 0 0 0 16.18,-9.13l0,0a38.61,38.61 0 0 0 9.66,-31.84l0,0a38.61,38.61 0 0 0 -28.4,-31.62l0,0a73.16,73.16 0 0 0 -37.49,0.18z"/>
  <path id="svg_37" fill="#efb7b9" d="m195.13,707.66s44.38,-39.94 98.75,26.63s-42.17,67.71 -42.17,67.71s-52.19,12.17 -72.12,-31.1s15.54,-63.24 15.54,-63.24z"/>
  <path id="svg_38" opacity="0.1" d="m688.8,699.47s51.59,15.06 40.53,74.59l31.18,-3.4l6.58,-30.27l-13.31,-42.16l-25.52,-10l-39.46,11.24z"/>
  <path id="svg_39" fill="#67647e" d="m689.91,699.47s51.59,15.06 40.53,74.59l31.18,-3.4l6.58,-30.27l-13.31,-42.16l-25.52,-10l-39.46,11.24z"/>
  <path id="svg_40" opacity="0.1" d="m556.84,259.4a123.91,123.91 0 0 1 -3.54,29.52a43.16,43.16 0 0 1 -25.06,3.68c-14.7,-2.25 -27.68,-11 -38.43,-21.27s-19.77,-22.22 -30.14,-32.9c-9.4,-9.68 -21,-18.73 -34.48,-19.12c-12.24,-0.36 -23.39,6.48 -35.19,9.72c-12.36,3.4 -37.26,-5.88 -43.29,4.6c-3.54,6.16 -2.29,19.71 -4.38,27a105.93,105.93 0 0 1 -9.53,22.85c-3,5.27 -7.41,10.86 -13.46,10.81a13.61,13.61 0 0 1 -6.64,-2.12a124.28,124.28 0 1 1 244.15,-32.8l-0.01,0.03z"/>
  <path stroke="null" id="svg_41" fill="#585268" d="m389.99,226.83c11.81,-3.24 23,-10.08 35.19,-9.72c13.48,0.39 25.09,9.44 34.48,19.12c10.36,10.67 19.38,22.62 30.14,32.9s23.73,19 38.43,21.27s31.25,-3.26 38.88,-16c10.87,-18.18 0.55,-41.21 0.78,-62.39c0.15,-13.39 4.67,-26.51 4.16,-39.89c-0.43,-11.2 -4.36,-22 -8.65,-32.31c-2.09,-5 -4.38,-10.18 -8.38,-13.89c-10.59,-9.8 -27.72,-5.6 -41.32,-10.43c-17.58,-6.25 -25.78,-25.72 -35.94,-41.37c-3.92,-6 -11,-12.41 -17.38,-9.11c-7.51,3.88 -5.47,17.14 -13.06,20.86c-4.6,2.25 -10.22,-0.59 -13.5,-4.52s-5.17,-8.87 -8.39,-12.84a24.4,24.4 0 0 0 -24,-8.19a8.25,8.25 0 0 0 -4.55,2.37c-2.42,2.88 -0.91,7.17 -0.74,10.93c0.58,12.64 -14.57,19.66 -27.15,21s-27.33,1.5 -34.83,11.69c-4,5.39 -4.82,12.41 -7.5,18.55c-6.22,14.24 -21.24,22 -34.45,30.21s-26.8,20.1 -26.68,35.63c0.12,14.93 13,27 15.28,41.73c1.2,7.82 -0.67,15.9 0.83,23.67c2.75,14.26 15.82,23.83 27.88,31.93c3,2 6.2,4.09 9.8,4.12c6,0.05 10.49,-5.54 13.46,-10.81a106,106 0 0 0 9.53,-22.85c2.09,-7.31 0.84,-20.86 4.38,-27c6.04,-10.54 30.94,-1.27 43.3,-4.66z"/>
 </g>
</svg>