<svg width="800.0000000000001" height="900" xmlns="http://www.w3.org/2000/svg">
 <defs>
  <linearGradient y2="0.73421" x2="0.38341" y1="0.81447" x1="0.25895" id="a">
   <stop stop-color="#909ca9" offset="0"/>
   <stop stop-color="#ededee" offset="1"/>
  </linearGradient>
  <linearGradient y2="0.49846" x2="0.18594" y1="0.49846" x1="0.00168" id="b">
   <stop stop-color="#939fab" offset="0"/>
   <stop stop-color="#dcdee1" offset="1"/>
  </linearGradient>
  <radialGradient gradientUnits="userSpaceOnUse" gradientTransform="matrix(-.1185 -.0178 -.036 .237 -198.955 -1314.415)" r="898.12" cy="7277.705" cx="-14217.448" id="c">
   <stop stop-color="#ee352c" offset="0"/>
   <stop stop-color="#a91d22" offset="1"/>
  </radialGradient>
 </defs>
 <g>
  <title>background</title>
  <rect fill="none" id="canvas_background" height="902" width="802" y="-1" x="-1"/>
 </g>
 <g>
  <title>Layer 1</title>
  <g id="svg_1" transform="matrix(0.569,0,0,0.569,199.451,-82.735) ">
   <path id="svg_6" d="m508.29079,852.19425l-286.9,93.683l-249.599,110.161l-69.829,18.435c-17.784,16.916 -36.431,34.049 -56.599,51.397c-22.119,19.082 -42.72,36.433 -58.553,49.008c-17.564,13.88 -43.587,39.902 -56.814,56.38c-19.735,24.721 -35.348,50.96 -42.071,71.13c-11.928,36.433 -6.07,73.297 16.916,107.346c29.492,43.369 88.261,87.606 156.785,117.749c34.916,15.4 93.683,35.132 137.92,46.19c73.512,18.651 215.771,38.819 294.054,41.857c15.828,0.65 37.082,0.65 37.947,0c1.737,-1.088 13.881,-24.289 27.979,-53.129c48.142,-98.238 82.838,-190.402 101.703,-269.119c11.276,-47.706 20.166,-111.246 26.019,-186.492c1.521,-21.036 2.169,-91.514 0.868,-115.37c-1.953,-39.033 -5.423,-70.692 -10.84,-101.703c-0.868,-4.555 -1.088,-8.676 -0.652,-8.892c0.865,-0.65 3.467,-1.517 38.815,-11.712l-7.153,-16.912l0,-0.005l0.004,0l0,-0.002zm-65.49,38.386c2.602,0 9.539,66.573 11.273,108.646c0.436,8.89 0.216,14.745 -0.216,14.745c-1.733,0 -36.649,-20.599 -61.583,-36.212c-21.687,-13.663 -62.888,-40.988 -69.393,-46.192c-2.173,-1.517 -1.957,-1.733 15.828,-7.807c30.14,-10.194 101.706,-33.18 104.091,-33.18zm-146.161,48.143c1.953,0 6.937,2.816 18.865,10.191c44.671,27.974 105.393,61.805 131.415,73.083c8.022,3.469 8.887,2.166 -9.542,14.746c-39.468,26.889 -88.697,53.344 -148.983,80.018c-10.624,4.771 -19.514,8.456 -19.73,8.456c-0.432,0 0.865,-5.418 2.598,-11.925c14.53,-54.001 22.772,-108.647 23.208,-152.452c0.216,-21.687 0.216,-21.687 2.169,-22.334c-0.436,0.217 -0.22,0.217 0,0.217zm-30.142,11.492c1.297,1.299 0.432,49.877 -1.304,63.104c-3.903,31.662 -9.975,61.153 -19.947,94.335c-2.386,8.018 -4.558,14.745 -4.987,15.177c-0.872,1.083 -30.581,-27.975 -40.339,-39.251c-16.916,-19.518 -30.141,-39.035 -39.9,-58.117c-4.988,-9.759 -12.793,-28.84 -12.144,-29.492c3.469,-2.385 117.753,-46.622 118.621,-45.756zm-141.826,55.731c0.216,0 0.432,0 0.652,0.216c0.432,0.434 1.953,3.905 3.254,7.807c6.937,18.867 22.548,46.624 35.997,64.407c14.746,19.518 34.048,40.334 50.091,53.996c5.207,4.337 9.975,8.456 10.624,9.108c1.304,1.302 1.737,1.083 -33.612,14.53c-40.981,15.613 -85.656,31.226 -136.835,47.706a6825.474,6825.474 0 0 0 -36.643,11.928c-1.955,0.652 -1.303,-0.434 4.335,-9.323c25.371,-39.686 63.97,-117.536 85.657,-172.618c3.687,-9.542 7.373,-19.082 8.025,-21.251c0.868,-3.038 1.95,-4.121 4.768,-5.64c1.518,-0.43 3.038,-0.866 3.687,-0.866zm-43.367,17.999c0.649,0.436 -10.411,23.637 -21.254,44.889c-21.036,40.985 -44.022,81.323 -74.815,130.331c-5.204,8.456 -10.19,16.265 -10.842,17.132c-1.083,1.519 -1.519,1.083 -4.988,-5.638c-7.373,-14.53 -13.447,-33.181 -16.699,-50.313c-3.254,-16.916 -2.602,-46.406 1.086,-64.621c2.816,-13.444 2.602,-13.227 9.107,-16.481c27.757,-14.095 117.537,-56.166 118.405,-55.299zm374.073,15.182l0,9.107c0,48.359 -5.204,114.716 -12.797,163.077c-1.301,8.456 -2.389,15.393 -2.602,15.613c0,0 -6.288,-1.733 -13.661,-3.905c-32.527,-10.193 -67.875,-25.156 -99.754,-42.718c-21.038,-11.494 -51.612,-30.363 -50.743,-31.231c0.213,-0.215 9.323,-4.986 19.947,-10.625c42.509,-22.118 83.274,-45.972 118.622,-69.609c13.229,-8.892 33.176,-23.202 37.518,-27.107l3.47,-2.602zm-537.802,64.185c0.867,0 0.65,1.735 -0.651,9.542c-0.868,5.64 -1.951,16.049 -2.382,23.202c-1.739,31.662 3.469,55.084 19.082,87.177c4.337,8.892 7.809,16.265 7.589,16.48c-1.519,1.303 -145.074,43.375 -190.183,55.734c-13.444,3.685 -25.152,6.939 -26.024,7.153c-1.515,0.436 -1.733,0.22 -1.083,-3.47c4.987,-31.875 29.276,-73.512 63.104,-108.644c22.554,-23.419 40.554,-37.08 71.347,-54.648c22.119,-12.575 56.165,-31.439 58.767,-32.309c0.002,-0.217 0.218,-0.217 0.434,-0.217zm338.295,60.503c0.216,-0.216 5.42,2.605 11.708,6.29c46.408,26.891 111.03,51.83 166.108,64.623l4.991,1.086l-6.941,3.899c-28.84,16.049 -123.606,55.515 -220.538,91.732c-14.098,5.202 -27.975,10.409 -30.581,11.492c-2.602,1.083 -4.988,1.735 -4.988,1.519c0,-0.22 3.906,-7.809 8.89,-17.132c27.107,-50.744 54.433,-112.547 68.311,-155.485c1.739,-4.12 2.82,-7.805 3.04,-8.024zm-34.48,11.278c0.22,0.221 -1.517,4.771 -3.687,9.975c-18.865,45.756 -43.59,95.636 -75.249,151.583c-8.022,14.314 -14.746,25.808 -14.966,25.808c-0.213,0 -6.721,-3.906 -14.527,-8.676c-45.976,-28.192 -86.743,-62.888 -113.414,-96.501l-3.905,-4.771l19.732,-5.422c70.696,-19.298 130.762,-40.116 190.4,-65.704c8.459,-3.471 15.4,-6.292 15.616,-6.292zm214.253,74.815s0.217,0.217 0,0c0.216,4.988 -10.844,49.661 -19.953,81.969c-7.589,27.107 -14.098,48.361 -26.022,85.874c-5.204,16.485 -9.755,30.143 -9.975,30.143c-0.216,0 -1.517,-0.216 -2.818,-0.647c-64.405,-11.714 -122.089,-27.977 -176.303,-49.661c-15.182,-6.074 -36.866,-15.833 -38.167,-16.916c-0.432,-0.438 12.58,-6.506 29.06,-13.663c98.669,-43.154 201.024,-92.164 236.153,-113.196c4.119,-2.603 7.373,-3.903 8.025,-3.903zm-494.646,16.916c0.434,0.432 -27.107,40.118 -65.709,94.114c-13.444,18.867 -29.057,40.985 -34.911,49.225c-5.856,8.241 -14.746,21.253 -19.734,29.06l-9.112,14.096l-9.759,-8.24c-11.494,-9.544 -31.442,-29.927 -40.333,-41.204c-18.651,-23.201 -31.226,-47.706 -36.214,-70.04c-2.386,-10.411 -2.386,-15.618 -0.22,-16.265c3.252,-0.867 61.153,-14.53 115.37,-27.11c30.143,-6.937 65.054,-15.177 77.632,-18.213c12.579,-3.041 22.774,-5.423 22.99,-5.423zm27.756,10.626l6.937,7.806c31.231,34.914 63.108,60.724 101.708,83.272c6.941,3.906 12.144,7.373 11.708,7.594c-1.514,1.083 -134.016,48.136 -195.385,69.389c-34.478,12.143 -62.888,21.901 -63.102,21.901c-0.216,0 -2.169,-1.299 -4.341,-2.818l-3.901,-2.82l6.288,-9.106c20.383,-29.493 45.976,-61.803 101.707,-129.028l38.381,-46.19zm173.053,123.822c0.213,-0.215 9.755,3.252 21.464,7.594c28.195,10.624 50.527,17.345 80.456,24.936c36.866,9.326 90.211,18.434 121.657,21.035c4.771,0.432 7.373,0.868 6.505,1.519c-1.521,0.868 -33.395,11.494 -56.816,18.867c-37.302,11.708 -151.149,45.32 -243.962,71.995c-17.132,4.987 -31.879,9.108 -32.746,9.323c-2.166,0.436 -9.325,-1.519 -9.325,-2.386c0,-0.431 5.204,-7.153 11.494,-14.527c31.225,-37.3 62.238,-78.935 88.044,-118.403c7.154,-10.846 13.229,-19.736 13.229,-19.953zm-38.17,1.087c0.216,0.216 -15.179,24.936 -42.066,67.439c-11.496,17.999 -24.291,38.383 -28.846,45.54c-4.337,6.939 -10.842,17.784 -14.527,23.854l-6.29,11.061l-3.252,-0.868c-7.809,-2.169 -62.672,-21.471 -77.202,-27.325c-18,-7.157 -36.649,-15.829 -50.529,-23.202c-17.346,-9.326 -39.03,-23.206 -37.297,-23.637c0.433,-0.216 30.143,-8.243 65.922,-17.999c94.984,-25.809 147.678,-40.77 182.161,-51.612c6.29,-1.952 11.71,-3.471 11.926,-3.251zm269.985,63.318l0.216,0c0.868,2.171 -34.26,99.755 -47.06,130.547c-2.815,6.939 -3.896,8.677 -5.417,8.456c-3.687,-0.213 -54.646,-7.37 -85.66,-11.925c-53.994,-8.24 -144.641,-24.073 -167.409,-29.275l-5.204,-1.083l32.307,-7.378c69.396,-15.613 102.791,-24.069 136.619,-34.478c42.722,-13.011 85.011,-29.276 127.729,-49.225c6.722,-3.037 12.361,-5.422 13.879,-5.639z" fill="url(#a)"/>
   <path id="svg_7" d="m212.50079,183.41325c-4.771,-0.647 -81.757,27.11 -131.415,47.275c-67.01,27.327 -119.052,53.351 -151.148,75.899c-11.925,8.461 -26.891,23.422 -29.273,29.276c-0.867,2.169 -1.303,4.771 -1.303,7.373l29.06,27.541l69.175,22.119l164.594,29.493l188.228,32.312l1.953,-16.264c-0.649,0 -1.085,-0.216 -1.73,-0.216l-24.728,-3.905l-4.984,-8.89c-25.59,-45.107 -53.781,-101.056 -70.261,-138.789c-12.793,-29.276 -24.938,-63.102 -31.662,-87.391c-3.687,-14.746 -4.119,-15.613 -6.501,-15.829l0,-0.005l-0.005,0l0,0.001zm-3.474,11.063l0.223,0c0.213,0.214 1.081,6.29 1.95,13.442c3.683,30.364 10.411,59.635 21.035,91.297c8.022,23.855 8.022,22.555 -1.301,19.734c-22.119,-6.07 -121.221,-23.202 -193,-33.177c-11.494,-1.519 -21.253,-3.036 -21.253,-3.252c-0.867,-0.867 51.827,-28.41 75.031,-39.25c29.709,-13.665 111.246,-47.711 117.315,-48.794zm-209.047,97.15l8.461,2.816c45.97,15.616 161.551,37.736 225.31,42.94c7.154,0.651 13.229,1.303 13.442,1.303c0.216,0.216 -5.852,3.469 -13.661,7.154c-30.79,15.397 -64.621,34.264 -88.042,48.794c-6.937,4.335 -13.229,7.807 -14.094,7.807c-0.868,0 -5.42,-0.868 -10.191,-1.519l-8.674,-1.303l-21.683,-21.253c-38.167,-37.08 -68.094,-65.704 -79.588,-76.549l-11.28,-10.19zm-8.671,6.721l30.576,38.168c16.696,21.035 33.611,41.635 37.301,46.187c3.683,4.557 6.721,8.245 6.505,8.461c-0.868,0.65 -44.236,-7.809 -67.226,-13.011c-23.637,-5.423 -33.395,-8.025 -47.924,-12.577l-11.928,-3.905l0,-3.038c0.216,-14.53 18.651,-36.214 49.877,-58.331l2.819,-1.954zm259.791,52.046c0.869,0 1.95,1.951 4.552,7.806c7.373,16.263 30.364,60.07 35.997,68.526c1.74,2.822 4.771,3.038 -25.802,-1.95c-73.512,-11.93 -97.152,-15.829 -97.152,-16.263c0,-0.216 2.169,-1.735 4.988,-3.254c22.771,-12.575 45.756,-28.624 66.142,-45.756c4.988,-4.121 9.542,-8.024 10.407,-8.676c0.216,-0.433 0.652,-0.649 0.868,-0.433z" fill="url(#b)"/>
   <path id="svg_8" d="m-97.82221,332.82725s-4.768,7.593 -0.215,18.87c2.822,6.937 11.061,15.393 20.384,24.069c0,0 96.5,94.114 108.211,107.561c53.344,61.585 76.549,122.305 78.718,206.012c1.301,53.78 -8.894,101.054 -34.264,155.919c-45.106,98.453 -140.307,207.098 -287.117,327.67l21.472,-7.157c13.878,-10.411 32.745,-21.467 76.982,-45.756c102.137,-55.952 217.071,-107.346 358.028,-160.258c202.971,-76.335 536.715,-165.681 726.676,-194.736l19.737,-3.038l-3.038,-4.771c-17.345,-26.891 -29.276,-43.587 -43.59,-61.369c-41.633,-51.612 -92.157,-93.463 -153.964,-128.161c-85.007,-47.489 -194.956,-84.571 -334.173,-112.112c-26.239,-5.207 -83.923,-15.181 -130.763,-22.337c-99.321,-15.393 -163.51,-26.021 -234.203,-38.165c-25.37,-4.339 -63.323,-10.843 -88.478,-16.263c-13.011,-2.822 -37.947,-8.676 -57.464,-15.398c-15.613,-6.075 -38.168,-12.147 -42.939,-30.58zm55.952,54.216c0.214,-0.214 3.683,1.083 8.24,2.602c8.24,2.816 18.865,6.07 31.446,9.542a1599.47,1599.47 0 0 0 28.624,7.589c13.011,3.251 23.852,6.288 24.068,6.288c1.521,1.519 23.424,71.558 30.797,98.449c2.815,10.195 4.988,18.867 4.771,18.867c-0.223,0.22 -2.605,-3.469 -5.423,-8.456c-25.373,-44.673 -65.491,-89.995 -111.899,-126.428c-6.069,-4.333 -10.624,-8.237 -10.624,-8.453zm106.692,29.492c1.085,0 5.856,0.651 11.708,1.951c36.866,8.24 103.008,20.818 145.293,27.975c7.157,1.083 12.797,2.387 12.797,2.818c0,0.436 -2.605,1.951 -5.859,3.688c-7.153,3.685 -35.997,20.815 -45.536,27.322c-24.073,16.047 -45.756,33.395 -61.371,49.008c-6.288,6.29 -11.712,11.494 -11.712,11.494s-1.297,-3.685 -2.386,-8.242c-7.802,-30.143 -24.069,-74.816 -38.815,-106.258c-2.386,-4.986 -4.339,-9.541 -4.339,-9.973c0,0.433 0,0.217 0.22,0.217zm187.795,35.781c1.301,0.432 3.47,7.806 7.806,24.069c8.025,31.446 11.712,66.576 10.411,99.321c-0.436,9.108 -0.868,17.564 -1.304,18.651l-0.649,2.166l-11.276,-3.685c-23.204,-7.373 -60.935,-18.435 -93.245,-27.541c-18.436,-4.988 -33.395,-9.542 -33.395,-9.975c0,-1.303 26.891,-28.192 38.383,-38.383c21.898,-19.303 81.316,-65.275 83.269,-64.623zm14.963,2.166c0.652,-0.647 89.779,14.746 130.331,22.554c30.145,5.854 73.948,14.963 76.549,16.049c1.301,0.432 -3.254,3.034 -17.784,9.539c-57.248,25.808 -99.754,49.008 -142.036,77.202c-11.06,7.373 -20.386,13.444 -20.602,13.444c-0.216,0 -0.433,-6.287 -0.433,-13.878c0,-41.201 -8.241,-82.838 -23.424,-117.968c-1.517,-3.47 -2.818,-6.722 -2.601,-6.942zm230.516,45.542c0.652,0.65 -2.169,18.217 -4.771,28.624c-7.806,32.312 -28.84,80.24 -54.643,125.343c-4.558,8.024 -8.677,14.53 -9.114,14.746c-0.429,0.216 -6.285,-3.038 -13.009,-6.941c-25.154,-14.746 -53.778,-28.624 -85.007,-41.637c-8.671,-3.685 -16.263,-6.723 -16.48,-7.153c-1.521,-1.303 68.308,-47.493 105.174,-69.612c29.276,-17.781 76.982,-44.239 77.85,-43.37zm16.48,2.601c1.953,0 41.421,10.844 62.019,16.916c50.963,15.181 109.512,36.648 147.679,53.996l15.828,7.159l-11.056,2.6c-93.245,21.467 -173.049,46.192 -250.034,77.418c-6.289,2.602 -11.928,4.771 -12.357,4.771c-0.436,0 1.733,-4.987 4.552,-11.061c23.204,-49.225 38.167,-100.62 41.85,-144.427c0.221,-4.121 0.867,-7.372 1.519,-7.372zm-392.938,90.213c0.649,-0.652 30.793,6.506 47.057,11.056c24.721,6.942 77.198,24.505 77.198,25.808c0,0.216 -5.853,5.204 -12.79,11.278c-28.408,23.637 -55.734,48.572 -88.481,80.234c-9.759,9.328 -17.997,16.917 -18.429,16.917c-0.436,0 -0.649,-1.304 -0.436,-3.038c4.987,-36.433 3.906,-83.272 -3.034,-130.763c-0.653,-6.074 -1.302,-11.276 -1.085,-11.492zm633.433,0.652c0.429,0.431 -13.881,22.984 -22.988,35.777c-13.009,18.649 -32.098,43.375 -75.252,97.588c-22.765,28.622 -48.358,60.936 -56.812,71.778c-8.678,10.842 -15.831,19.948 -16.051,19.948c-0.216,0 -3.031,-3.901 -6.069,-8.671c-24.289,-36.433 -53.349,-68.311 -87.829,-96.935c-6.505,-5.423 -13.658,-11.278 -16.044,-13.013c-2.386,-1.734 -4.339,-3.469 -4.339,-3.685c0,-0.649 36.862,-16.483 64.841,-27.757c49.01,-19.952 115.794,-43.805 165.892,-59.203c26.24,-8.239 54.215,-16.263 54.651,-15.827zm16.696,4.334c0.865,-0.215 6.072,2.387 12.361,6.07c52.697,30.143 104.305,68.962 145.077,108.864c11.492,11.278 39.9,40.77 39.464,40.986c0,0 -9.975,0.867 -21.683,1.733c-91.296,6.942 -208.178,26.239 -320.511,53.345c-7.589,1.733 -14.31,3.252 -14.746,3.252c-0.429,0 8.025,-8.456 18.653,-18.647c65.922,-63.538 96.067,-103.656 131.628,-175.22c4.986,-10.623 9.325,-19.731 9.757,-20.383c-0.216,0 -0.216,0 0,0zm-482.936,49.446c3.038,0.647 31.229,13.88 52.48,24.503c19.517,9.755 48.794,25.372 50.311,26.671c0.216,0.216 -10.195,5.638 -22.984,11.928c-40.772,20.384 -75.684,39.682 -112.118,61.802c-10.408,6.29 -19.082,11.497 -19.298,11.497c-0.868,0 -0.652,-0.872 5.204,-11.497c19.518,-35.561 35.129,-78.065 44.023,-119.486c0.864,-3.252 1.733,-5.418 2.382,-5.418zm-28.192,5.202c0.652,0.652 -6.721,27.323 -11.273,41.853c-8.894,27.541 -23.856,62.02 -38.383,88.043c-3.474,6.069 -8.677,14.961 -11.496,19.948l-5.42,8.674l-12.144,-11.707c-14.094,-13.663 -25.59,-22.12 -40.333,-29.712c-5.859,-3.033 -10.411,-5.638 -10.411,-6.069c0,-1.735 37.082,-35.347 65.49,-59.635c20.383,-17.566 63.321,-52.045 63.97,-51.395zm172.404,70.913l10.627,6.937c24.282,15.833 52.906,36.866 74.813,55.298c12.357,10.19 36.21,31.662 40.985,36.866l2.598,2.822l-17.561,4.986c-99.321,27.538 -176.087,52.043 -265.649,85.007c-9.975,3.685 -18.433,6.721 -19.085,6.721c-1.297,0 -2.385,1.083 19.954,-19.519c57.251,-52.691 107.992,-110.812 145.726,-167.411l7.592,-11.707zm-45.324,11.276c0.432,0.432 -29.276,42.284 -47.06,65.922c-21.251,28.192 -58.985,75.465 -85.007,106.256c-10.84,12.797 -20.163,23.422 -20.599,23.64c-0.652,0.216 -0.868,-3.036 -0.868,-8.024c0,-26.242 -6.721,-54.216 -18.433,-78.068c-4.988,-9.975 -5.856,-12.361 -4.768,-13.444c4.119,-3.688 67.223,-39.686 107.123,-61.153c26.89,-14.312 68.956,-35.563 69.612,-35.129zm-274.107,67.225c0.652,0 5.64,2.6 11.279,5.638c13.878,7.589 26.239,16.046 37.298,25.156c0.432,0.432 -5.204,4.988 -12.577,10.406c-20.602,14.746 -51.828,38.385 -70.041,52.915c-19.088,15.18 -19.734,15.613 -17.568,12.361c14.314,-21.903 21.467,-34.264 29.06,-50.093c6.721,-14.094 13.442,-30.793 18.213,-45.323c1.734,-6.289 3.904,-11.06 4.336,-11.06zm73.083,57.248c1.081,-0.214 2.386,1.735 8.238,10.411c12.361,18.429 21.903,43.154 24.292,63.104l0.429,4.339l-29.705,11.494c-53.133,20.599 -102.139,40.985 -135.322,56.162c-9.322,4.339 -25.587,12.144 -36.211,17.352c-10.627,5.418 -19.301,9.539 -19.301,9.323s6.721,-5.204 14.961,-11.278c64.844,-47.055 121.007,-98.669 163.076,-150.279c4.555,-5.423 8.677,-10.411 9.107,-10.627l0.436,-0.001zm-33.612,8.242c0.868,0.867 -23.853,28.84 -40.768,45.971c-41.853,42.723 -83.273,76.12 -134.669,108.649c-6.505,4.119 -12.359,7.804 -13.011,8.24c-1.519,0.867 0.432,-1.303 22.986,-25.808c14.314,-15.397 25.155,-28.408 37.516,-44.453c8.24,-10.624 9.759,-12.143 21.688,-20.604c31.878,-22.987 105.39,-72.864 106.258,-71.995z" fill="url(#c)"/>
  </g>
 </g>
</svg>