<svg width="1168" height="270" xmlns="http://www.w3.org/2000/svg" xmlns:xlink="http://www.w3.org/1999/xlink" overflow="hidden"><defs><clipPath id="clip0"><rect x="59" y="225" width="1168" height="270"/></clipPath><clipPath id="clip1"><rect x="60" y="241" width="237" height="238"/></clipPath><clipPath id="clip2"><rect x="60" y="241" width="237" height="238"/></clipPath><clipPath id="clip3"><rect x="60" y="241" width="237" height="238"/></clipPath><clipPath id="clip4"><rect x="377" y="244" width="232" height="232"/></clipPath><clipPath id="clip5"><rect x="377" y="244" width="232" height="232"/></clipPath><clipPath id="clip6"><rect x="377" y="244" width="232" height="232"/></clipPath><clipPath id="clip7"><rect x="655" y="225" width="268" height="269"/></clipPath><clipPath id="clip8"><rect x="655" y="225" width="268" height="270"/></clipPath><clipPath id="clip9"><rect x="655" y="225" width="268" height="270"/></clipPath><clipPath id="clip10"><rect x="958" y="225" width="268" height="269"/></clipPath><clipPath id="clip11"><rect x="958" y="225" width="268" height="270"/></clipPath><clipPath id="clip12"><rect x="958" y="225" width="268" height="270"/></clipPath></defs><g clip-path="url(#clip0)" transform="translate(-59 -225)"><g clip-path="url(#clip1)"><g clip-path="url(#clip2)"><g clip-path="url(#clip3)"><path d="M194.323 197.5 42.6761 197.5C40.924 197.495 39.5049 196.075 39.5 194.323L39.5 42.6761C39.5053 40.924 40.9246 39.5049 42.6768 39.5L194.324 39.5C196.076 39.5053 197.495 40.9246 197.5 42.6768L197.5 194.324C197.495 196.076 196.075 197.495 194.323 197.5Z" fill="#FD4F4F" transform="matrix(1 0 -0 1.00422 60 241)"/><path d="M194.323 197.5 42.6761 197.5C40.924 197.495 39.5049 196.075 39.5 194.323L39.5 42.6761C39.5053 40.924 40.9246 39.5049 42.6768 39.5L194.324 39.5C196.076 39.5053 197.495 40.9246 197.5 42.6768L197.5 194.324C197.495 196.076 196.075 197.495 194.323 197.5Z" stroke="#000000" stroke-width="6.58333" stroke-linejoin="round" fill="#FD4F4F" transform="matrix(1 0 -0 1.00422 60 241)"/></g></g></g><g clip-path="url(#clip4)"><g clip-path="url(#clip5)"><g clip-path="url(#clip6)"><path d="M583.222 360C583.222 409.828 542.828 450.222 493 450.222 443.172 450.222 402.778 409.828 402.778 360 402.778 310.172 443.172 269.778 493 269.778 542.828 269.778 583.222 310.172 583.222 360Z" fill="#43D0E4"/><path d="M583.222 360C583.222 409.828 542.828 450.222 493 450.222 443.172 450.222 402.778 409.828 402.778 360 402.778 310.172 443.172 269.778 493 269.778 542.828 269.778 583.222 310.172 583.222 360Z" stroke="#000000" stroke-width="6.44444" stroke-linejoin="round" fill="#43D0E4"/></g></g></g><g clip-path="url(#clip7)"><g clip-path="url(#clip8)"><g clip-path="url(#clip9)"><path d="M216.41 81.07 187.526 51.2438 134.335 104.174 81.405 51.2438 51.5788 81.07 105.03 134 51.5788 186.93 81.4087 216.756 134.339 163.826 187.529 216.756 216.414 186.93 163.484 134Z" fill="#FFC507" transform="matrix(1 0 -0 1.00373 655 225)"/><path d="M216.41 81.07 187.526 51.2438 134.335 104.174 81.405 51.2438 51.5788 81.07 104.993 134 51.5788 186.93 81.4087 216.756 134.339 163.826 187.529 216.756 216.414 186.93 163.484 134Z" stroke="#000000" stroke-width="7.44444" stroke-linejoin="round" stroke-miterlimit="10" fill="#FFC507" transform="matrix(1 0 -0 1.00373 655 225)"/></g></g></g><g clip-path="url(#clip10)"><g clip-path="url(#clip11)"><g clip-path="url(#clip12)"><path d="M124.862 56.7713 42.1333 200.062C38.0724 207.096 43.1487 215.889 51.271 215.889L216.729 215.889C224.851 215.889 229.928 207.096 225.867 200.062L143.138 56.7713C139.076 49.7371 128.924 49.7371 124.862 56.7713Z" fill="#24CF82" transform="matrix(1 0 -0 1.00373 958 225)"/><path d="M124.862 56.7713 42.1333 200.062C38.0724 207.096 43.1487 215.889 51.271 215.889L216.729 215.889C224.851 215.889 229.928 207.096 225.867 200.062L143.138 56.7713C139.076 49.7371 128.924 49.7371 124.862 56.7713Z" stroke="#000000" stroke-width="7.44444" stroke-miterlimit="10" fill="#24CF82" transform="matrix(1 0 -0 1.00373 958 225)"/></g></g></g></g></svg>