<svg width="1162" height="709.96" xmlns="http://www.w3.org/2000/svg" xmlns:xlink="http://www.w3.org/1999/xlink">
 <defs>
  <linearGradient y2="0.00016" x2="0.49997" y1="1.00023" x1="0.49997" id="fa286f9f-ed07-4920-80c0-c778f8df51be">
   <stop stop-opacity="0.25" stop-color="gray" offset="0"/>
   <stop stop-opacity="0.12" stop-color="gray" offset="0.54"/>
   <stop stop-opacity="0.1" stop-color="gray" offset="1"/>
  </linearGradient>
  <linearGradient xlink:href="#fa286f9f-ed07-4920-80c0-c778f8df51be" y2="549.09" x2="415.84" y1="549.09" x1="193.62" id="ab69bf3a-9db3-4152-8c9a-791e07a8812e"/>
 </defs>
 <title>happy 2019</title>
 <g>
  <title>background</title>
  <rect fill="none" id="canvas_background" height="602" width="802" y="-1" x="-1"/>
 </g>
 <g>
  <title>Layer 1</title>
  <ellipse id="svg_40" fill="#56aaff" ry="22.99" rx="581" cy="686.97" cx="581"/>
  <ellipse id="svg_42" fill="#5fbf00" ry="22.99" rx="581" cy="674.48" cx="581"/>
  <path id="svg_176" opacity="0.5" fill="#ff7f00" d="m306.68,232.84c0.9,3 5.1,1.23 4.33,-1.87c-0.2,-0.81 -0.45,-1.61 -0.68,-2.38c-2.79,-9.31 -2.66,-19.6 -2.2,-29.68c0.12,-2.47 0.29,-5.1 1.58,-7.2a52.71,52.71 0 0 0 -4.26,18.77a130.32,130.32 0 0 0 0.65,19.07a16.81,16.81 0 0 0 0.58,3.29z"/>
  <path id="svg_187" opacity="0.2" fill="#ff7f00" d="m327.58,238.61c-0.43,1.89 -3.06,0.95 -2.71,-1c0.09,-0.5 0.2,-1 0.31,-1.47c1.34,-5.78 0.85,-12.05 0.18,-18.17a9.16,9.16 0 0 0 -1.25,-4.33a32.2,32.2 0 0 1 3.34,11.34a79.53,79.53 0 0 1 0.35,11.64a10.69,10.69 0 0 1 -0.22,1.99z"/>
  <path id="svg_202" opacity="0.2" fill="#ff7f00" d="m311.11,247.98a0.55,0.55 0 0 1 -0.3,0.09c-0.2,0 -0.33,-0.19 -0.41,-0.37c-0.44,-1 -0.19,-2.19 -0.87,-3a10.66,10.66 0 0 0 -1.64,2.75l-2.57,-0.8a3.84,3.84 0 0 0 0.48,3a4.17,4.17 0 0 0 -1.21,0.82a1.35,1.35 0 0 0 -0.32,1.37a7,7 0 0 0 1.82,0.18a12.07,12.07 0 0 0 0.2,3.39a0.62,0.62 0 0 0 0.22,0.43c0.19,0.12 0.44,0 0.63,-0.11a6,6 0 0 0 2.12,-2.25l1,2.29a1,1 0 0 0 0.42,0.58a0.7,0.7 0 0 0 0.81,-0.28a2,2 0 0 0 0.28,-0.87l0.36,-2.18a0.56,0.56 0 0 1 0.12,-0.31a0.63,0.63 0 0 1 0.38,-0.11c0.91,0 1.82,0 2.73,0c0.15,-0.49 -0.33,-0.94 -0.79,-1.14s-1,-0.36 -1.25,-0.81c-0.48,-0.92 0.75,-2.2 0.23,-3s-1.64,-0.07 -2.44,0.33z"/>
  <path id="svg_86" fill="url(#ab69bf3a-9db3-4152-8c9a-791e07a8812e)" d="m395.82,385.08c-2.31,-0.76 -15.91,-11.53 -16.94,-16.4s7.19,-50.23 7.19,-50.23s-0.76,0 -2,-0.15l0,-0.73l1.74,-59.59s6.93,-40 -6.16,-37.67s-4.88,37.67 -4.88,37.67s-1.49,17.95 -2.54,23.33c-1,5.18 -5.58,26.32 -2.46,32.89a6.1,6.1 0 0 0 0.38,0.68l0,0s0.52,22.55 -5.13,25.63c-5.39,2.94 -7.63,17.68 -7.82,19l-0.29,-0.13l0,0a15.8,15.8 0 0 1 -4.17,-3.8c-0.12,-0.16 -0.21,-0.32 -0.32,-0.48a22,22 0 0 0 -0.59,-29.86a22.21,22.21 0 0 0 -6.19,-4.53a14.24,14.24 0 0 0 -1.33,-5.52c-2.6,-5.56 -17,-12.83 -27.23,-13c-4.72,-0.15 -8.59,1.2 -10,4.89c-0.72,1.87 -0.5,3.95 -0.8,5.93c-0.6,4 -3.17,7.14 -6.47,9.62a39.41,39.41 0 0 0 -4.31,-4.14c-3.34,-2.56 -10,-11 -10,-11s-20.82,-21.59 -22.36,-27.51s-22.33,-41.27 -26.95,-35.12s15.91,33.12 15.91,33.12s3.85,9.74 6.93,13.07s25.97,36.63 25.97,36.63l1.1,2.27c-4.86,2.56 -9.3,5.82 -10.87,10.9c-2.3,7.48 2.73,15 6.21,22c6.78,13.65 7.75,31.07 -1,43.56c-7.78,11.1 -21.35,16.3 -34.11,20.91a33.69,33.69 0 0 0 21.6,7.18c-2.94,8.51 -13.36,11.34 -22.24,12.91c4.66,4.48 11.33,6.11 17.73,7.1a52.21,52.21 0 0 0 9.49,0.75l0.78,0l0.78,-0.05a25.26,25.26 0 0 0 3.23,-0.42c4.62,-0.94 9.11,-3.46 11.47,-7.54c2,-3.49 2.7,-8.24 6.33,-10a8.08,8.08 0 0 1 3,-0.7l-0.11,0c0.68,0 1.38,0 2.06,0l15.13,0.16c0.63,0 1.28,0 1.93,0c4.27,-0.09 8.83,-0.83 11,-4.36a12.15,12.15 0 0 0 1.37,-5.55c0.32,-4.8 0,-9.72 0.13,-14.56c1.29,8.79 2.64,22.5 -0.57,27.55a47,47 0 0 1 -9.44,10.13a18,18 0 0 0 -2.48,2.54c-0.49,0.35 -0.78,0.54 -0.78,0.54l-0.31,0.94a17.42,17.42 0 0 0 -2.44,5.66a3.87,3.87 0 0 0 -0.19,1.6c0.35,0.72 -2.5,3.65 -1.67,4.88c-7.12,8.34 -8.47,21 -8.47,21l-13,19.73c-6.68,17.56 -16.68,19.35 -16.68,19.35s-23.49,-15.76 -24.13,-16.53s-9.62,-4.61 -9.62,-4.61a10.17,10.17 0 0 0 -4.62,-4.23c-3.08,-1.28 -3.34,-6 -3.34,-6c-0.38,-11.14 -6.93,-12 -6.93,-12c-5.28,-0.45 -9.31,0.49 -12.41,2.21l-0.94,0.08c-4.54,0.36 -10,0.77 -16,1.17c-16.69,1.1 -20.66,11.92 -20.66,11.92s-2.05,2.3 0.64,4.8s19.91,0 20.64,-0.06a10.72,10.72 0 0 1 -3.92,-0.27c2.71,-0.1 6.44,-0.2 9.62,-0.2l0.77,0a41.62,41.62 0 0 0 -0.29,5.08c0,3.21 8.85,5.26 8.85,5.26l26.95,24s16.94,7.56 27.72,18.45s20.27,1.54 20.27,1.54c11.41,-2.82 44.24,-42.5 44.27,-42.54l0,0c0,1.16 0.69,39.75 2,47.5l0,0a5.15,5.15 0 0 0 0.29,1.15c1.54,3.33 -0.52,12.43 -1.41,16.28a45.09,45.09 0 0 0 -0.65,9.73s-12.31,47 -11.29,51.13s-6.67,23.33 -6.67,23.33l0,16l1.34,-0.06a8.8,8.8 0 0 0 -0.48,0.79l-0.09,0.17s8.21,1.79 13.73,1.28s15,4.26 15,4.26s3.21,1.51 13.09,2.15s9.88,-4.36 9.88,-4.36c-1.13,-6.81 -16.74,-9.09 -17.22,-9.15c-1.26,-0.79 -2.44,-1.66 -3.41,-2.4l-0.2,-0.16a3.61,3.61 0 0 0 0.17,-0.46c1.67,-6.79 -7.57,-9.74 -7.57,-9.74l0,-1.69c6,-3.07 7.19,-24.22 7.19,-24.22s9,-26.14 10.26,-30.49s0,-10.9 0,-10.9l0.9,-5.63s1.93,-3.85 1.93,-4.62a11.43,11.43 0 0 1 2.18,-5.38c1.41,-1.67 -1.54,-5.64 -1.54,-5.64l2.57,-6.66l0,-7.3l6,-26.53s6.29,-30.89 4.11,-41s2.57,-15.25 2.57,-15.25a12.64,12.64 0 0 1 -1.32,0.6a38.21,38.21 0 0 0 1.55,-4.26l13.5,1.68l0,0.19l4.87,0s-1.54,-19 -1.54,-26.65s5.14,-35.12 5.14,-35.12s2.4,-26.95 0.09,-27.72zm-59.93,-22.17c0,0.75 -0.07,1.53 -0.12,2.32l-0.27,0.42l-0.5,-0.43l-0.61,0.95l-0.18,0.1c-1.32,-0.68 -2,-4.57 -2.95,-3.74l-0.13,0.11c-0.21,-0.23 -0.42,-0.31 -0.64,-0.11l-0.2,0.18c0,-0.3 0,-0.6 0,-0.9a22,22 0 0 0 5.6,0.72c0.01,0.12 0,0.25 0,0.38zm44.9,88.48l0.29,0l-0.48,1.25c0.06,-0.41 0.12,-0.83 0.19,-1.25zm-49.29,226.77l-1.84,-0.47l1,-0.16l0.93,0.61l0.11,0.07l-0.2,-0.05zm18.8,-2.69c-0.61,-0.33 -1.23,-0.69 -1.83,-1.07a21.17,21.17 0 0 1 1.83,1.07z"/>
  <polygon id="svg_87" fill="#f86d70" points="387.43 432.49 375.32 464.05 378.26 464.05 366.87 473.13 387.43 475.69 387.43 432.49"/>
  <polygon id="svg_88" opacity="0.1" points="387.43 432.49 375.32 464.05 372.27 463.23 366.87 473.13 387.43 475.69 387.43 432.49"/>
  <polygon id="svg_89" fill="#f86d70" points="368.44 452.68 387.43 452.68 394.4 395.33 368.44 395.33 368.44 452.68"/>
  <polygon id="svg_90" opacity="0.1" points="368.44 452.68 387.43 452.68 394.4 395.33 368.44 395.33 368.44 452.68"/>
  <path id="svg_91" fill="#fbbebe" d="m331.35,408.91l4.1,-0.69l9.42,-1.6s28.29,-6.37 34.15,-6.88a36.14,36.14 0 0 0 10.24,-2.92c1.53,-0.66 2.5,-1.16 2.5,-1.16l-10.19,-18.61l-15.81,-11.72s-10,-2.13 -14.23,-8a9.35,9.35 0 0 1 -1.31,-8.87c2.58,-8 -15.41,7.64 -15.41,7.64s0.17,3.75 0,8.53c0,0.94 -0.09,1.93 -0.16,2.93c0,0.66 -0.09,1.32 -0.16,2c-0.44,4.74 -1.34,9.63 -3.12,12.55c-4.37,7.18 -0.02,26.8 -0.02,26.8z"/>
  <path id="svg_92" opacity="0.1" d="m334.79,365.07l0.4,0c0.72,0 1.3,-1.52 2,-1.6c5.63,-0.54 10.77,-1.72 14.34,-5.7a9.4,9.4 0 0 1 -1.31,-8.88c2.58,-8 -15.41,7.65 -15.41,7.65s0.19,3.74 -0.02,8.53z"/>
  <path id="svg_93" fill="#fbbebe" d="m312.89,342.39a21.91,21.91 0 0 0 21.92,21.92c0.72,0 1.43,0 2.14,-0.11a21.92,21.92 0 1 0 -24.06,-21.81z"/>
  <path id="svg_94" fill="#3f3d56" d="m306.16,309.12c-0.72,1.86 -0.5,3.93 -0.79,5.9c-1.07,7.11 -8.3,11.37 -14.84,14.36s-13.92,6.5 -16,13.37c-2.28,7.44 2.7,14.88 6.16,21.85c6.74,13.59 7.7,30.91 -1,43.33c-7.73,11 -21.2,16.21 -33.88,20.8a33.45,33.45 0 0 0 21.45,7.13c-2.91,8.47 -13.26,11.28 -22.08,12.85c4.63,4.45 11.26,6.08 17.61,7.06c4.63,0.71 9.38,1.18 14,0.25s9,-3.44 11.38,-7.5c2,-3.47 2.68,-8.2 6.29,-9.95a11.37,11.37 0 0 1 5.13,-0.74l15,0.15c4.67,0 10.2,-0.36 12.61,-4.35a12,12 0 0 0 1.36,-5.52c0.65,-9.84 -1.24,-20.23 2.81,-29.22c1.22,-2.7 -6.61,-7 -5.79,-9.86c2.82,-9.87 3.53,-17.65 3.5,-27.92c0,-7.94 5.17,-14.79 9.44,-21.5s7.84,-15.18 4.47,-22.38c-3.8,-8.04 -32.34,-19.7 -36.83,-8.11z"/>
  <path id="svg_95" fill="#fbbebe" d="m326.13,675.27l3.82,2.53l0.59,0.39l0.11,0.08l4.53,3l10.58,1.79l9.3,-0.64s2.68,-5.61 -1.53,-5.48a8.87,8.87 0 0 1 -3.84,-1.1c-0.19,-0.09 -0.39,-0.19 -0.58,-0.3l0,0c-0.61,-0.32 -1.22,-0.68 -1.82,-1.06l0,0l0,0c-1.25,-0.79 -2.43,-1.64 -3.38,-2.38c-1.4,-1.07 -2.33,-1.9 -2.33,-1.9l-15.45,5.07z"/>
  <path id="svg_96" opacity="0.1" d="m330,677.8l0.59,0.39l0.11,0.08l4.53,3l10.58,1.79l9.3,-0.64s2.68,-5.61 -1.53,-5.48a8.87,8.87 0 0 1 -3.84,-1.1c0.74,0.58 1.36,1.2 1.42,1.74c0.17,1.42 -6.88,4 -6.88,4l-9.99,-2.6s-1.69,-0.48 -4,-1.08l-0.22,-0.06l-0.07,-0.04z"/>
  <path id="svg_97" fill="#3f3d56" d="m313,680.24s8.15,1.79 13.63,1.28s14.91,4.23 14.91,4.23s3.19,1.5 13,2.14s9.81,-4.33 9.81,-4.33c-1.12,-6.78 -16.62,-9 -17.1,-9.11l0,0l0,0l0,0c0.19,0.1 1,0.52 1.82,1.06l0,0c1.1,0.72 2.29,1.66 2.38,2.42c0.17,1.43 -6.88,4 -6.88,4l-9.94,-2.62s-1.69,-0.48 -4,-1.08l-0.22,-0.06a85.26,85.26 0 0 0 -10.41,-2.13c-4.28,-0.46 -6.47,3.19 -6.92,4a1.19,1.19 0 0 0 -0.08,0.2z"/>
  <path id="svg_98" fill="#fbbebe" d="m184.54,500.42l4.33,3.31l3.14,-0.12l0.6,0c2.69,-0.09 6.4,-0.19 9.55,-0.2a31.13,31.13 0 0 1 6.09,0.34c2.16,0.77 6,-12.36 6,-12.36l-4.34,-1l-1.44,-0.33l-1,-0.24l-3.53,-0.83l-10.7,1.21l-7.55,4.78l-1.15,5.44z"/>
  <path id="svg_99" opacity="0.1" d="m184.54,500.42l4.33,3.31l3.14,-0.12a3.79,3.79 0 0 1 -2,-1.79c-2.8,-7.77 11.09,-11.09 11.09,-11.09l6.47,-0.28l1.26,-0.05l1,0l-1.44,-0.33l-1,-0.24l-3.53,-0.83l-10.7,1.21l-7.47,4.77l-1.15,5.44z"/>
  <path id="svg_100" fill="#3f3d56" d="m176,503.92c2.62,2.43 19.78,0 20.5,-0.06a10.57,10.57 0 0 1 -3.89,-0.27a4.29,4.29 0 0 1 -3,-2.15c-2.8,-7.77 11.09,-11.09 11.09,-11.09l6.47,-0.28l1.25,-0.05l15.73,-0.69l0.76,-4.33s-5.11,0.49 -13.13,1.13c-4.51,0.36 -10,0.77 -15.93,1.16c-16.57,1.1 -20.51,11.86 -20.51,11.86s-2.01,2.29 0.66,4.77z"/>
  <path id="svg_188" opacity="0.5" fill="#ff7f00" d="m376.1,226.04c1.49,2.52 -2.17,2.35 -3.78,-0.18c-0.43,-0.66 -0.81,-1.33 -1.19,-2c-4.54,-7.74 -11.46,-15.38 -18.42,-22.77a25.54,25.54 0 0 0 -5.72,-4.93a89.65,89.65 0 0 1 15.01,12.82c4.47,4.68 8.42,9.55 12.29,14.41a24.53,24.53 0 0 1 1.81,2.65z"/>
  <path id="svg_197" opacity="0.2" fill="#ff7f00" d="m366.4,236.07a0.9,0.9 0 0 1 -0.41,0.13c-0.27,0 -0.45,-0.27 -0.56,-0.51c-0.59,-1.29 -0.25,-3 -1.16,-4a13.85,13.85 0 0 0 -2.22,3.71l-3.48,-1.08a5.14,5.14 0 0 0 0.66,4a5.2,5.2 0 0 0 -1.64,1.12a1.81,1.81 0 0 0 -0.43,1.84a8.83,8.83 0 0 0 2.46,0.25a16.31,16.31 0 0 0 0.26,4.57a0.87,0.87 0 0 0 0.3,0.58a0.84,0.84 0 0 0 0.85,-0.14a8,8 0 0 0 2.86,-3l1.3,3.1a1.38,1.38 0 0 0 0.58,0.77a0.93,0.93 0 0 0 1.08,-0.37a2.84,2.84 0 0 0 0.39,-1.18l0.48,-2.94a0.7,0.7 0 0 1 0.16,-0.42a0.76,0.76 0 0 1 0.52,-0.15c1.22,0 2.45,0 3.68,0c0.21,-0.66 -0.44,-1.26 -1.07,-1.54s-1.37,-0.48 -1.69,-1.09c-0.64,-1.25 1,-3 0.31,-4.05c-0.82,-1.37 -2.16,-0.13 -3.23,0.4z"/>
  <path id="svg_101" fill="#fbbebe" d="m368.45,316.23a4.32,4.32 0 0 0 0.38,0.67l3.82,5.61l9.94,1l0.11,-3.94l1.67,-59.28s6.88,-39.76 -6.12,-37.46s-4.84,37.46 -4.84,37.46s-1.48,17.85 -2.52,23.2c-1.01,5.18 -5.54,26.2 -2.44,32.74z"/>
  <path id="svg_102" fill="#fbbebe" d="m346.14,463.46l2.83,4.85l6.33,10.83s11.48,4.2 14.42,1c1.61,-1.75 3.35,-7.85 4.57,-13c1,-4.16 1.67,-7.67 1.67,-7.67l-29.82,3.99z"/>
  <path id="svg_103" opacity="0.1" d="m346.14,463.46l2.83,4.85a4,4 0 0 0 0.48,-0.52c3.2,-4.08 17.29,-0.86 24.84,-0.61c1,-4.16 1.67,-7.67 1.67,-7.67l-29.82,3.95z"/>
  <path id="svg_104" opacity="0.1" d="m202.16,503.39a31.13,31.13 0 0 1 6.09,0.34c2.16,0.77 6,-12.36 6,-12.36l-5.8,-1.39l15.73,-0.69l0.76,-4.33s-5.11,0.49 -13.13,1.13a16.13,16.13 0 0 0 -4.37,3.65l-0.24,0.29c-3.33,4.15 -4.57,9.45 -5.04,13.36z"/>
  <path id="svg_105" opacity="0.1" d="m326.13,675.27l4.41,2.92c6.58,-1.18 12.59,-3.05 13.3,-6a0.83,0.83 0 0 0 0,-0.15c-1.4,-1.07 -2.33,-1.9 -2.33,-1.9l-15.38,5.13z"/>
  <path id="svg_106" opacity="0.1" d="m313.09,680.07a148,148 0 0 0 17.34,-1.86a85.26,85.26 0 0 0 -10.43,-2.17c-4.27,-0.46 -6.46,3.19 -6.91,4.03z"/>
  <path id="svg_107" fill="#3f7f00" d="m202.64,508.45c0,3.19 8.79,5.22 8.79,5.22l26.77,23.83s16.8,7.48 27.52,18.36s20.14,1.53 20.14,1.53c11.34,-2.81 44,-42.31 44,-42.31s0.76,45.11 2.29,48.42s-0.51,12.37 -1.4,16.19a45.13,45.13 0 0 0 -0.64,9.69s-12.23,46.77 -11.21,50.85s-6.63,23.19 -6.63,23.19l0,15.93s29.95,-1.15 31.6,-7.9s-7.51,-9.69 -7.51,-9.69l0,-1.65c6,-3.06 7.13,-24.09 7.13,-24.09s8.93,-26 10.2,-30.33s0,-10.84 0,-10.84l0.89,-5.6s1.91,-3.82 1.91,-4.59a11.38,11.38 0 0 1 2.17,-5.35c1.4,-1.66 -1.53,-5.61 -1.53,-5.61l2.55,-6.63l0,-7.26l6,-26.38s6.25,-30.72 4.08,-40.78s2.55,-15.17 2.55,-15.17c-10.23,5.37 -15.39,-6.56 -17.08,-11.69c-0.43,-1.33 -0.64,-2.2 -0.64,-2.2s-14.05,-5.18 -27.13,-4a31.69,31.69 0 0 0 -7.79,1.65c-14.53,5.23 -16.82,26.89 -16.82,26.89l-12.87,19.63c-6.63,17.46 -16.57,19.25 -16.57,19.25s-23.32,-15.68 -24,-16.44s-9.56,-4.59 -9.56,-4.59a10.09,10.09 0 0 0 -4.59,-4.21c-3.06,-1.27 -3.31,-6 -3.31,-6c-0.38,-11.09 -6.88,-12 -6.88,-12c-22.56,-1.79 -22.43,21.49 -22.43,24.68z"/>
  <rect id="svg_108" fill="#f86d70" transform="rotate(-180 697.5200195312501,944.5800170898438) " height="42.69" width="13.76" y="1443.03002" x="1048.90002"/>
  <rect id="svg_109" opacity="0.1" transform="rotate(-180 697.5200195312501,944.5800170898438) " height="42.69" width="13.76" y="1443.03002" x="1048.90002"/>
  <path id="svg_110" opacity="0.1" d="m368.44,316.13a0.67,0.67 0 0 0 0,0.1a4.32,4.32 0 0 0 0.38,0.67l3.82,5.61l9.94,1l0.11,-3.94c-3.1,-0.25 -10.16,-1.1 -14.25,-3.44z"/>
  <path id="svg_111" fill="#f86d70" d="m368.83,316.9s0.51,22.43 -5.1,25.49s-7.79,19 -7.79,19s17,11.18 20.79,16.09s12.49,16.64 10.7,19.45s4.34,15.54 4.34,15.54s-11.22,22.94 -8.67,31.61s2.8,31.61 2.8,31.61l4.85,0s-1.53,-18.87 -1.53,-26.51s5.09,-34.92 5.09,-34.92s2.3,-26.77 0,-27.53s-15.8,-11.47 -16.82,-16.31s7.14,-50 7.14,-50s-10.45,-0.44 -15.8,-3.52z"/>
  <path id="svg_112" opacity="0.1" d="m332.12,399.48a21.82,21.82 0 0 0 3.33,8.74l9.42,-1.6s28.29,-6.37 34.15,-6.88a36.14,36.14 0 0 0 10.24,-2.92a45.08,45.08 0 0 0 -12.65,-20.74l-3.6,-3.33a61.09,61.09 0 0 0 -8.53,-6.6a59.92,59.92 0 0 0 -9.57,-5c0.42,0.35 30.1,25.7 23.6,30.67s-24,-7.14 -24,-7.14l-19.9,-17.09l-0.72,-0.63l-1.15,1.79a18.71,18.71 0 0 1 1.71,0.83a29.21,29.21 0 0 1 14,17.4c4.08,13.76 -16.33,12.5 -16.33,12.5z"/>
  <path id="svg_113" fill="#444053" d="m326,463.21s18.86,10.45 23.44,4.58c1,-1.29 3.11,-1.85 5.74,-2c-0.43,-1.33 -0.64,-2.2 -0.64,-2.2s-14.05,-5.18 -27.13,-4c-0.86,2.22 -1.41,3.62 -1.41,3.62z"/>
  <path id="svg_114" fill="#e8e8f0" d="m334.68,366.98l20.62,17.71s17.43,12.14 24,7.14s-23.61,-30.67 -23.61,-30.67l0,0a60.57,60.57 0 0 1 18.11,11.58l3.59,3.33c9.44,8.74 11.57,8.74 11.89,21.61c0.08,3.16 -1,7.72 -1.83,8.54c-3.06,3 -5.2,24.78 -4.73,27.33s-5.72,24.56 -3.72,30.68s-25,-3.06 -29.57,2.8s-23.43,-4.59 -23.43,-4.59s10.45,-26.76 13,-28.55s5.61,-15.54 0,-21.92s-6.11,-12.49 -6.11,-12.49s20.4,1.27 16.31,-12.49a28.86,28.86 0 0 0 -15.68,-18.22l1.16,-1.79z"/>
  <path id="svg_115" opacity="0.1" d="m362.2,412.1s-7.91,14.91 -18.14,18.79c-0.33,0.12 -0.65,0.23 -1,0.33c-10.68,3.25 19.94,-14.53 19.14,-19.12z"/>
  <path id="svg_116" fill="#fbbebe" d="m251.58,280.2s3.82,9.68 6.88,13s25.74,36.46 25.74,36.46l1.92,4l1.65,3.42l14.53,-1.53l1,-5.86s-0.2,-0.26 -0.56,-0.68c-1.46,-1.76 -5.44,-6.45 -8.11,-8.5c-3.31,-2.55 -9.94,-11 -9.94,-11s-20.64,-21.41 -22.17,-27.27s-22.18,-41 -26.76,-34.93s15.82,32.89 15.82,32.89z"/>
  <g id="svg_117" opacity="0.1">
   <path id="svg_118" d="m293.74,437.82a11.39,11.39 0 0 0 -5.13,0.74c-3.6,1.76 -4.28,6.48 -6.28,10c-2.34,4.05 -6.8,6.56 -11.39,7.49a25.46,25.46 0 0 1 -2.76,0.39a31.34,31.34 0 0 0 8.76,-0.39c4.59,-0.93 9.05,-3.44 11.39,-7.49c2,-3.48 2.68,-8.2 6.28,-10a8,8 0 0 1 3,-0.7l-3.87,-0.04z"/>
   <path id="svg_119" d="m329.26,361.11c0,-7.95 5.17,-14.8 9.43,-21.51s7.84,-15.18 4.47,-22.38c-2.88,-6.15 -20.24,-14.4 -30.26,-12.76c9.81,1.26 21.9,7.72 24.26,12.76c3.37,7.2 -0.21,15.67 -4.47,22.38s-9.45,13.56 -9.43,21.51c0,10.26 -0.69,18 -3.51,27.91c-0.81,2.85 7,7.16 5.8,9.86c-4.06,9 -2.16,19.39 -2.81,29.23a12.11,12.11 0 0 1 -1.37,5.51c-2,3.3 -6.1,4.15 -10.09,4.32l3.49,0c4.66,0 10.19,-0.35 12.6,-4.35a12.11,12.11 0 0 0 1.37,-5.51c0.65,-9.84 -1.25,-20.24 2.81,-29.23c1.22,-2.7 -6.61,-7 -5.8,-9.86c2.82,-9.84 3.53,-17.62 3.51,-27.88z"/>
  </g>
  <path id="svg_120" opacity="0.1" d="m286.12,333.62l1.65,3.42l14.53,-1.53l1,-5.86s-0.2,-0.26 -0.56,-0.68c-1.55,0.77 -13.16,6.34 -16.62,4.65z"/>
  <path id="svg_121" opacity="0.1" d="m339.77,371.98s-3.57,-5.61 -5.61,-4.08s-2.83,-4.59 -4,-3.57s-4.58,3.86 -6,-0.12c-1.11,-3.16 -13.19,-23.14 -18.09,-31.19l-2.05,-3.36s-13.76,6.89 -17.07,4.59l0,4.85l2.8,0.25l15,28s4.72,7.5 4.4,10.12s6.05,14.09 7.07,14.86s12,13.51 12,13.51s5.61,27.52 0.76,35.17s-13.25,13.25 -13.25,13.25s-2.53,7.4 -2.16,8.16s-2.94,4.08 -1.41,5.1s3.57,8.16 3.57,8.16s7.14,-11.47 11,-13.26s8.8,-25.23 8.8,-25.23s1.41,-13.83 1.52,-22.75s-0.34,-42.46 2.72,-42.46z"/>
  <path id="svg_122" fill="#f86d70" d="m339,371.98s-3.56,-5.61 -5.6,-4.08s-2.84,-4.59 -4,-3.57s-4.57,3.86 -6,-0.12c-1.12,-3.16 -13.2,-23.14 -18.09,-31.19c-1.27,-2.07 -2.05,-3.36 -2.05,-3.36s-13.76,6.89 -17.08,4.59l0,4.85l2.81,0.25l15,28s4.73,7.5 4.4,10.12s6,14.09 7.07,14.86s12,13.51 12,13.51s5.61,27.52 0.77,35.17a46.42,46.42 0 0 1 -9.23,10.21a17.84,17.84 0 0 0 -6,9.62a3.8,3.8 0 0 0 -0.18,1.6c0.37,0.77 -2.94,4.08 -1.41,5.1s3.56,8.16 3.56,8.16s7.14,-11.47 11,-13.26s8.81,-25.23 8.81,-25.23s1.4,-13.83 1.52,-22.75s-0.3,-42.48 2.7,-42.48z"/>
  <path id="svg_123" opacity="0.1" d="m304.08,487.98s10.71,2 15,5.1s-16.31,-4.84 -16.31,-4.84l1.31,-0.26z"/>
  <path id="svg_124" opacity="0.1" d="m329.83,515.08s11.17,9.3 9.17,17.71s-7.16,29.57 -7.16,29.57l-2.01,-47.28z"/>
  <path id="svg_125" opacity="0.1" d="m232.14,497.17s-15.74,1.72 -14.72,3.76s14.72,-1.88 14.72,-1.88l0,-1.88z"/>
  <path id="svg_126" opacity="0.1" d="m353,574.59s1,1.28 -4.84,0s-1.53,-5.19 -1.53,-5.19l6.37,5.19z"/>
  <path id="svg_127" opacity="0.1" d="m351,592.18s-8,1.27 -12.29,0s12.29,0 12.29,0z"/>
  <path id="svg_128" opacity="0.1" d="m334.54,660.98s-1.4,-1.53 -8.41,1.27s-9.81,2.93 -11.85,2s20.26,-3.27 20.26,-3.27z"/>
  <path id="svg_129" opacity="0.1" d="m342.32,494.98l-9.94,13.83s5.35,-12.09 9.94,-13.83z"/>
  <path id="svg_130" opacity="0.1" d="m323,367.88s-0.43,4.59 -6.84,6.37s-7.63,3.24 -7.63,3.24"/>
  <path id="svg_131" opacity="0.1" d="m306.34,334.6s-8.46,6 -17.29,4.73"/>
  <path id="svg_132" opacity="0.1" d="m312.78,463.08s2.47,1.55 8.4,-5.24"/>
  <path id="svg_133" opacity="0.1" d="m374.37,391.18c0.24,-1.24 -0.62,-2.39 -1.43,-3.36l-1.66,-2a7.7,7.7 0 0 0 -1.09,-1.12c-1,-0.77 -2.28,-1 -3.32,-1.69"/>
  <g id="svg_134" opacity="0.8">
   <path id="svg_135" opacity="0.5" fill="#ff0000" d="m757.62,142.9c-2.43,-3.31 -7.45,0.27 -5.18,3.69c0.59,0.89 1.24,1.76 1.86,2.59c7.47,10.08 11.34,22.33 14.67,34.44c0.82,3 1.61,6.14 0.68,9.08c1.34,-7.87 0.47,-16 -1.55,-23.71s-5.15,-15.1 -8.39,-22.39a20.26,20.26 0 0 0 -2.09,-3.7z"/>
   <path id="svg_136" fill="#ff0000" d="m709.14,164.11c-5,-0.15 -5.68,7.49 -0.66,7.89c1.32,0.11 2.64,0.14 3.91,0.17c15.43,0.42 30,6 44.05,12c3.44,1.47 7,3.13 9.07,6.29c-6.32,-7.33 -14.65,-12.7 -23.5,-16.64s-18.29,-6.54 -27.72,-9a24.16,24.16 0 0 0 -5.15,-0.71z"/>
   <path id="svg_137" opacity="0.2" fill="#ff0000" d="m710.53,182.9c-3.18,0.12 -2.46,4.64 0.74,4.67c0.84,0 1.68,0 2.48,-0.06c9.73,-0.4 19.7,2.29 29.37,5.24c2.38,0.73 4.88,1.55 6.61,3.33a53.13,53.13 0 0 0 -17.17,-8.82a131.8,131.8 0 0 0 -18.68,-4.11a17.07,17.07 0 0 0 -3.35,-0.25z"/>
   <path id="svg_138" opacity="0.5" fill="#ff0000" d="m775.67,266.98c0.9,3.06 5.1,1.24 4.33,-1.87c-0.2,-0.82 -0.44,-1.62 -0.67,-2.38c-2.8,-9.34 -2.67,-19.66 -2.21,-29.76c0.12,-2.48 0.29,-5.11 1.58,-7.23a53,53 0 0 0 -4.27,18.82a131,131 0 0 0 0.65,19.12a16.79,16.79 0 0 0 0.59,3.3z"/>
   <path id="svg_139" opacity="0.2" fill="#ff0000" d="m716.33,138.66c-1.91,-0.34 -2.06,2.45 -0.15,2.88c0.5,0.11 1,0.19 1.49,0.27c5.86,1 11.47,3.88 16.87,6.87a9.25,9.25 0 0 1 3.53,2.82a32.56,32.56 0 0 0 -9.14,-7.44a80.5,80.5 0 0 0 -10.63,-4.83a10.33,10.33 0 0 0 -1.97,-0.57z"/>
   <path id="svg_140" fill="#ff0000" d="m686.75,212.62c-4.86,2.5 -0.75,9.37 4.24,7.09c1.31,-0.59 2.58,-1.26 3.8,-1.89c14.86,-7.71 32.11,-10.55 49.09,-12.73c4.16,-0.54 8.6,-1 12.46,0.64c-10.51,-3 -21.69,-3.2 -32.5,-1.95s-21.32,4 -31.73,6.83a27.52,27.52 0 0 0 -5.36,2.01z"/>
   <path id="svg_141" opacity="0.5" fill="#ff0000" d="m700.64,239.36c-3.5,3.25 2,7.1 5.62,4c1,-0.82 1.87,-1.68 2.75,-2.5c10.64,-10 24.71,-17.11 38.72,-23.66c3.44,-1.61 17.59,-3.25 21.37,-3.16c-9.87,0.88 -30,4 -39,8a214.88,214.88 0 0 0 -25.42,14.27a26.28,26.28 0 0 0 -4.04,3.05z"/>
   <path id="svg_142" fill="#ff0000" d="m725.56,282.03c-1,4.67 5.65,4.73 6.89,0.07c0.32,-1.21 0.58,-2.44 0.83,-3.61c3.08,-14.28 10.61,-28.13 18.41,-41.49c1.92,-3.27 12.63,-12.67 15.79,-14.74c-7.62,6.33 -22.45,20.33 -27.51,28.77a217.09,217.09 0 0 0 -12.81,26.2a26.52,26.52 0 0 0 -1.6,4.8z"/>
   <path id="svg_143" fill="#ff0000" d="m775.72,118.2c-2.38,-4.85 -9.18,-0.86 -7,4.11c0.57,1.31 1.2,2.58 1.81,3.79c7.32,14.83 9.84,32 11.73,48.82c0.46,4.13 0.85,8.54 -0.83,12.34c3.07,-10.37 3.48,-21.45 2.42,-32.18s-3.57,-21.19 -6.21,-31.55a28,28 0 0 0 -1.92,-5.33z"/>
   <path id="svg_144" fill="#ff0000" d="m737.82,126.46a0.88,0.88 0 0 0 0.41,0.12c0.26,0 0.45,-0.27 0.56,-0.51c0.59,-1.29 0.25,-3 1.17,-4a13.75,13.75 0 0 1 2.22,3.72l3.49,-1.08a5.21,5.21 0 0 1 -0.66,4a5.31,5.31 0 0 1 1.64,1.12a1.79,1.79 0 0 1 0.43,1.84a8.87,8.87 0 0 1 -2.46,0.25a16.08,16.08 0 0 1 -0.27,4.59a0.83,0.83 0 0 1 -0.3,0.58c-0.25,0.16 -0.59,0 -0.85,-0.14a8.09,8.09 0 0 1 -2.87,-3l-1.33,3.03a1.37,1.37 0 0 1 -0.58,0.78a0.94,0.94 0 0 1 -1.09,-0.38a2.74,2.74 0 0 1 -0.38,-1.17l-0.49,-3a0.7,0.7 0 0 0 -0.16,-0.42a0.75,0.75 0 0 0 -0.51,-0.15c-1.24,0 -2.47,-0.05 -3.7,0c-0.21,-0.65 0.44,-1.26 1.07,-1.54s1.38,-0.48 1.7,-1.09c0.64,-1.25 -1,-3 -0.32,-4.06c0.86,-1.27 2.2,-0.03 3.28,0.51z"/>
   <path id="svg_145" opacity="0.5" fill="#ff0000" d="m805.21,142.9c2.43,-3.31 7.44,0.27 5.18,3.69c-0.6,0.89 -1.24,1.76 -1.86,2.59c-7.47,10.08 -11.34,22.33 -14.68,34.44c-0.82,3 -1.61,6.14 -0.67,9.08c-1.34,-7.87 -0.47,-16 1.55,-23.71a146.49,146.49 0 0 1 8.38,-22.39a20.92,20.92 0 0 1 2.1,-3.7z"/>
   <path id="svg_146" fill="#ff0000" d="m853.68,164.11c5,-0.15 5.68,7.49 0.66,7.89c-1.31,0.11 -2.64,0.14 -3.9,0.17c-15.44,0.42 -30,6 -44.05,12c-3.44,1.47 -7.06,3.13 -9.07,6.29c6.32,-7.33 14.64,-12.7 23.5,-16.64s18.28,-6.54 27.72,-9a24.17,24.17 0 0 1 5.14,-0.71z"/>
   <path id="svg_147" opacity="0.5" fill="#ff0000" d="m852.29,182.9c3.19,0.12 2.47,4.64 -0.73,4.67c-0.84,0 -1.68,0 -2.48,-0.06c-9.74,-0.4 -19.7,2.29 -29.37,5.24c-2.38,0.73 -4.89,1.55 -6.61,3.33a53.13,53.13 0 0 1 17.17,-8.82a131.8,131.8 0 0 1 18.68,-4.11a17,17 0 0 1 3.34,-0.25z"/>
   <path id="svg_148" opacity="0.2" fill="#ff0000" d="m846.5,138.66c1.91,-0.34 2.06,2.45 0.15,2.88c-0.5,0.11 -1,0.19 -1.49,0.27c-5.86,1 -11.48,3.88 -16.88,6.87a9.22,9.22 0 0 0 -3.52,2.82a32.51,32.51 0 0 1 9.13,-7.44a81.21,81.21 0 0 1 10.64,-4.83a10.33,10.33 0 0 1 1.97,-0.57z"/>
   <path id="svg_149" opacity="0.2" fill="#ff0000" d="m796.61,272.78c-0.43,1.9 -3.06,0.95 -2.71,-1c0.09,-0.5 0.21,-1 0.32,-1.48c1.33,-5.8 0.85,-12.08 0.17,-18.22a9.27,9.27 0 0 0 -1.25,-4.34a32.37,32.37 0 0 1 3.35,11.3a80.08,80.08 0 0 1 0.35,11.68a10,10 0 0 1 -0.23,2.06z"/>
   <path id="svg_150" opacity="0.5" fill="#ff0000" d="m845.27,260.17c1.5,2.54 -2.18,2.36 -3.8,-0.17c-0.42,-0.67 -0.81,-1.34 -1.18,-2c-4.56,-7.76 -11.49,-15.42 -18.48,-22.83a25.38,25.38 0 0 0 -5.73,-4.94a90,90 0 0 1 15,12.83c4.48,4.69 8.44,9.58 12.32,14.45a24.65,24.65 0 0 1 1.87,2.66z"/>
   <path id="svg_151" opacity="0.2" fill="#ff0000" d="m712.14,260.17c-1.5,2.54 2.18,2.36 3.79,-0.17c0.43,-0.67 0.82,-1.34 1.19,-2c4.56,-7.76 11.49,-15.42 18.48,-22.83a25.17,25.17 0 0 1 5.73,-4.94a89.64,89.64 0 0 0 -15,12.83c-4.48,4.69 -8.45,9.58 -12.32,14.45a24.65,24.65 0 0 0 -1.87,2.66z"/>
   <path id="svg_152" opacity="0.2" fill="#ff0000" d="m760.83,272.78c0.43,1.9 3.06,0.95 2.71,-1c-0.09,-0.5 -0.21,-1 -0.32,-1.48c-1.33,-5.8 -0.85,-12.08 -0.17,-18.22a9.27,9.27 0 0 1 1.25,-4.34a32.37,32.37 0 0 0 -3.35,11.3a80.08,80.08 0 0 0 -0.35,11.68a10,10 0 0 0 0.23,2.06z"/>
   <path id="svg_153" opacity="0.2" fill="#ff0000" d="m831.16,157.7c1.91,-0.33 2.06,2.46 0.15,2.88c-0.5,0.11 -1,0.2 -1.49,0.28c-5.86,1 -11.47,3.87 -16.88,6.86a9.32,9.32 0 0 0 -3.52,2.83a32.21,32.21 0 0 1 9.14,-7.44a79.22,79.22 0 0 1 10.63,-4.83a10.36,10.36 0 0 1 1.97,-0.58z"/>
   <path id="svg_154" opacity="0.2" fill="#ff0000" d="m813.27,120.31c1.65,-1 2.83,1.51 1.21,2.62c-0.42,0.28 -0.86,0.55 -1.27,0.81c-5.07,3.12 -9.2,7.88 -13.09,12.67a9.07,9.07 0 0 0 -2.21,3.94a32.3,32.3 0 0 1 5.69,-10.32a78.61,78.61 0 0 1 8.06,-8.45a10.47,10.47 0 0 1 1.61,-1.27z"/>
   <path id="svg_155" fill="#ff0000" d="m876.08,212.62c4.86,2.5 0.75,9.37 -4.24,7.09c-1.31,-0.59 -2.59,-1.26 -3.8,-1.89c-14.86,-7.71 -32.12,-10.55 -49.09,-12.73c-4.16,-0.54 -8.6,-1 -12.46,0.64c10.5,-3 21.69,-3.2 32.5,-1.95s21.32,4 31.73,6.83a27.77,27.77 0 0 1 5.36,2.01z"/>
   <path id="svg_156" opacity="0.5" fill="#ff0000" d="m862.19,239.36c3.49,3.25 -2,7.1 -5.63,4c-1,-0.82 -1.87,-1.68 -2.74,-2.5c-10.65,-10 -24.72,-17.11 -38.72,-23.66c-3.44,-1.61 -17.6,-3.25 -21.37,-3.16c9.87,0.88 30,4 39,8a215,215 0 0 1 25.43,14.27a26.28,26.28 0 0 1 4.03,3.05z"/>
   <path id="svg_157" fill="#ff0000" d="m821,287.36c0.43,4.75 -6.21,4 -6.85,-0.79c-0.17,-1.25 -0.27,-2.51 -0.37,-3.7c-1.27,-14.55 -7,-29.23 -13.07,-43.46c-1.49,-3.49 -10.94,-14.15 -13.82,-16.61c6.77,7.24 19.73,23 23.69,32a215.34,215.34 0 0 1 9.42,27.59a27.17,27.17 0 0 1 1,4.97z"/>
   <path id="svg_158" fill="#ff0000" d="m825,126.46a0.88,0.88 0 0 1 -0.41,0.12c-0.27,0 -0.45,-0.27 -0.56,-0.51c-0.6,-1.29 -0.25,-3 -1.17,-4a13.75,13.75 0 0 0 -2.22,3.72l-3.49,-1.08a5.17,5.17 0 0 0 0.66,4a5.36,5.36 0 0 0 -1.65,1.12a1.81,1.81 0 0 0 -0.42,1.84a8.83,8.83 0 0 0 2.46,0.25a16.45,16.45 0 0 0 0.26,4.59a0.65,0.65 0 0 0 1.16,0.44a8.09,8.09 0 0 0 2.87,-3l1.3,3.1a1.33,1.33 0 0 0 0.58,0.78a0.92,0.92 0 0 0 1.08,-0.38a2.62,2.62 0 0 0 0.39,-1.17l0.48,-3a0.78,0.78 0 0 1 0.17,-0.42a0.75,0.75 0 0 1 0.51,-0.15c1.23,0 2.47,-0.05 3.7,0c0.21,-0.65 -0.45,-1.26 -1.08,-1.54s-1.37,-0.48 -1.69,-1.09c-0.64,-1.25 1,-3 0.31,-4.06c-0.81,-1.34 -2.15,-0.1 -3.24,0.44z"/>
   <path id="svg_159" opacity="0.2" fill="#ff0000" d="m835.54,270.24a0.88,0.88 0 0 1 -0.41,0.12c-0.27,0 -0.45,-0.27 -0.56,-0.51c-0.59,-1.29 -0.25,-3 -1.17,-4.05a13.75,13.75 0 0 0 -2.22,3.72l-3.49,-1.08a5.21,5.21 0 0 0 0.66,4a5.31,5.31 0 0 0 -1.64,1.12a1.81,1.81 0 0 0 -0.43,1.85a9.26,9.26 0 0 0 2.46,0.24a16.08,16.08 0 0 0 0.27,4.59a0.83,0.83 0 0 0 0.3,0.58c0.25,0.17 0.59,0 0.85,-0.14a8.09,8.09 0 0 0 2.87,-3.05l1.3,3.11a1.38,1.38 0 0 0 0.58,0.77a0.94,0.94 0 0 0 1.09,-0.37a2.83,2.83 0 0 0 0.38,-1.18l0.49,-3a0.7,0.7 0 0 1 0.16,-0.42a0.75,0.75 0 0 1 0.51,-0.15c1.23,0 2.47,0 3.7,0c0.21,-0.66 -0.44,-1.27 -1.07,-1.54s-1.38,-0.49 -1.7,-1.1c-0.64,-1.25 1,-3 0.32,-4.06c-0.79,-1.23 -2.17,0.01 -3.25,0.55z"/>
   <path id="svg_160" fill="#ff0000" d="m865.13,173.86a0.89,0.89 0 0 1 -0.42,0.12c-0.26,0 -0.44,-0.27 -0.55,-0.51c-0.6,-1.29 -0.26,-3 -1.17,-4.05a13.9,13.9 0 0 0 -2.22,3.72l-3.49,-1.08a5.17,5.17 0 0 0 0.66,4a5.41,5.41 0 0 0 -1.65,1.12a1.85,1.85 0 0 0 -0.43,1.85a8.94,8.94 0 0 0 2.47,0.24a16.45,16.45 0 0 0 0.26,4.59a0.87,0.87 0 0 0 0.3,0.58c0.26,0.17 0.59,0 0.85,-0.14a8.08,8.08 0 0 0 2.88,-3l1.29,3.1a1.38,1.38 0 0 0 0.58,0.77a0.92,0.92 0 0 0 1.09,-0.37a2.71,2.71 0 0 0 0.39,-1.18l0.48,-2.95a0.86,0.86 0 0 1 0.16,-0.42a0.78,0.78 0 0 1 0.52,-0.15q1.84,0 3.69,0c0.22,-0.66 -0.44,-1.27 -1.07,-1.54s-1.38,-0.49 -1.69,-1.1c-0.64,-1.25 1,-3 0.31,-4.06c-0.82,-1.32 -2.17,-0.08 -3.24,0.46z"/>
   <path id="svg_161" fill="#ff0000" d="m746.84,284.66a1.18,1.18 0 0 1 -0.57,0.17c-0.37,0 -0.63,-0.37 -0.78,-0.71c-0.83,-1.8 -0.35,-4.13 -1.63,-5.65a19.49,19.49 0 0 0 -3.09,5.19l-4.87,-1.51a7.3,7.3 0 0 0 0.92,5.58a7.39,7.39 0 0 0 -2.29,1.56a2.55,2.55 0 0 0 -0.6,2.57a12.49,12.49 0 0 0 3.44,0.34a22.43,22.43 0 0 0 0.37,6.39a0.9,0.9 0 0 0 1.6,0.62a11.23,11.23 0 0 0 4,-4.24l1.81,4.32a1.94,1.94 0 0 0 0.81,1.08a1.3,1.3 0 0 0 1.52,-0.52a3.92,3.92 0 0 0 0.53,-1.64l0.68,-4.12a1,1 0 0 1 0.22,-0.58a1.06,1.06 0 0 1 0.72,-0.21c1.72,0 3.44,-0.06 5.15,-0.05c0.3,-0.91 -0.62,-1.76 -1.49,-2.14s-1.92,-0.68 -2.36,-1.53c-0.9,-1.74 1.42,-4.16 0.43,-5.65c-1.15,-1.75 -3.02,-0.02 -4.52,0.73z"/>
   <path id="svg_162" fill="#ff0000" d="m697.63,176.73a1.12,1.12 0 0 1 -0.58,0.17c-0.36,0 -0.62,-0.37 -0.78,-0.7c-0.82,-1.8 -0.35,-4.13 -1.62,-5.65a19.37,19.37 0 0 0 -3.1,5.19l-4.86,-1.51a7.21,7.21 0 0 0 0.92,5.58a7.41,7.41 0 0 0 -2.29,1.55a2.55,2.55 0 0 0 -0.6,2.58a12.42,12.42 0 0 0 3.44,0.34a22.84,22.84 0 0 0 0.36,6.39a1.13,1.13 0 0 0 0.42,0.81c0.36,0.23 0.82,0 1.19,-0.19a11.26,11.26 0 0 0 4,-4.25l1.81,4.32a2,2 0 0 0 0.8,1.09a1.32,1.32 0 0 0 1.52,-0.53a3.84,3.84 0 0 0 0.54,-1.64l0.67,-4.11a1.07,1.07 0 0 1 0.23,-0.58a1,1 0 0 1 0.72,-0.21c1.71,-0.05 3.43,-0.06 5.15,-0.05c0.29,-0.91 -0.62,-1.76 -1.5,-2.15s-1.92,-0.67 -2.36,-1.52c-0.89,-1.74 1.42,-4.16 0.44,-5.66c-1.15,-1.74 -3.02,-0.02 -4.52,0.73z"/>
   <path id="svg_163" opacity="0.2" fill="#ff0000" d="m847,243.57a0.65,0.65 0 0 1 -0.3,0.09c-0.2,0 -0.33,-0.2 -0.42,-0.38c-0.44,-1 -0.18,-2.19 -0.86,-3a10.28,10.28 0 0 0 -1.64,2.76l-2.59,-0.8a3.81,3.81 0 0 0 0.49,3a3.94,3.94 0 0 0 -1.22,0.83a1.36,1.36 0 0 0 -0.31,1.36a6.55,6.55 0 0 0 1.82,0.19a11.69,11.69 0 0 0 0.2,3.39a0.62,0.62 0 0 0 0.22,0.43a0.62,0.62 0 0 0 0.63,-0.1a6,6 0 0 0 2.12,-2.26l1,2.3a1,1 0 0 0 0.43,0.57a0.68,0.68 0 0 0 0.81,-0.27a2,2 0 0 0 0.28,-0.87l0.36,-2.19a0.56,0.56 0 0 1 0.12,-0.31a0.63,0.63 0 0 1 0.38,-0.11l2.74,0c0.16,-0.48 -0.33,-0.93 -0.79,-1.14s-1,-0.35 -1.26,-0.81c-0.47,-0.92 0.76,-2.2 0.23,-3s-1.68,-0.08 -2.44,0.32z"/>
   <path id="svg_164" opacity="0.2" fill="#ff0000" d="m780.11,282.17a0.85,0.85 0 0 1 -0.31,0.09a0.58,0.58 0 0 1 -0.41,-0.38c-0.44,-0.95 -0.19,-2.19 -0.86,-3a10.32,10.32 0 0 0 -1.65,2.76l-2.58,-0.8a3.82,3.82 0 0 0 0.49,3a3.91,3.91 0 0 0 -1.22,0.82a1.36,1.36 0 0 0 -0.32,1.37a6.26,6.26 0 0 0 1.83,0.18a12.12,12.12 0 0 0 0.19,3.4a0.67,0.67 0 0 0 0.22,0.43c0.19,0.12 0.44,0 0.63,-0.1a6,6 0 0 0 2.13,-2.26l1,2.3a1,1 0 0 0 0.43,0.57a0.7,0.7 0 0 0 0.81,-0.28a2,2 0 0 0 0.28,-0.87l0.36,-2.18a0.56,0.56 0 0 1 0.12,-0.31a0.52,0.52 0 0 1 0.38,-0.11c0.91,0 1.82,0 2.74,0c0.15,-0.48 -0.33,-0.93 -0.8,-1.14s-1,-0.36 -1.25,-0.81c-0.48,-0.92 0.75,-2.21 0.23,-3s-1.64,-0.08 -2.44,0.32z"/>
   <path id="svg_165" opacity="0.5" fill="#ff0000" d="m715.41,147.07a0.58,0.58 0 0 1 -0.3,0.09c-0.2,0 -0.34,-0.2 -0.42,-0.37c-0.44,-1 -0.19,-2.2 -0.86,-3a10.11,10.11 0 0 0 -1.65,2.75l-2.58,-0.8a3.8,3.8 0 0 0 0.49,3a4.12,4.12 0 0 0 -1.22,0.83a1.35,1.35 0 0 0 -0.32,1.37a7.07,7.07 0 0 0 1.83,0.18a12,12 0 0 0 0.19,3.39a0.64,0.64 0 0 0 0.23,0.44c0.19,0.12 0.43,0 0.63,-0.11a6,6 0 0 0 2.12,-2.25l1,2.29a1.07,1.07 0 0 0 0.43,0.58a0.7,0.7 0 0 0 0.81,-0.28a2,2 0 0 0 0.28,-0.87l0.36,-2.19a0.56,0.56 0 0 1 0.12,-0.31a0.63,0.63 0 0 1 0.38,-0.11c0.91,0 1.83,0 2.74,0c0.15,-0.49 -0.33,-0.94 -0.8,-1.14s-1,-0.36 -1.25,-0.81c-0.48,-0.93 0.76,-2.21 0.23,-3s-1.64,-0.07 -2.44,0.32z"/>
   <path id="svg_166" opacity="0.5" fill="#ff0000" d="m749.84,223.2a0.53,0.53 0 0 1 -0.3,0.09c-0.2,0 -0.33,-0.2 -0.41,-0.37c-0.44,-1 -0.19,-2.2 -0.87,-3a10.55,10.55 0 0 0 -1.64,2.76l-2.59,-0.8a3.89,3.89 0 0 0 0.49,3a4,4 0 0 0 -1.21,0.83a1.35,1.35 0 0 0 -0.32,1.37a7,7 0 0 0 1.82,0.18a12,12 0 0 0 0.2,3.39a0.63,0.63 0 0 0 0.22,0.44c0.19,0.12 0.44,0 0.63,-0.11a6.05,6.05 0 0 0 2.14,-2.3l1,2.29a1,1 0 0 0 0.43,0.58a0.68,0.68 0 0 0 0.8,-0.28a2,2 0 0 0 0.29,-0.87l0.36,-2.19a0.5,0.5 0 0 1 0.12,-0.31a0.59,0.59 0 0 1 0.38,-0.11c0.91,0 1.82,0 2.73,0c0.16,-0.49 -0.32,-0.94 -0.79,-1.14s-1,-0.36 -1.25,-0.81c-0.48,-0.93 0.75,-2.21 0.23,-3s-1.66,-0.03 -2.46,0.36z"/>
   <path id="svg_167" opacity="0.5" fill="#ff0000" d="m724.85,193.52a0.53,0.53 0 0 1 -0.3,0.09c-0.2,0 -0.33,-0.19 -0.41,-0.37c-0.44,-1 -0.19,-2.2 -0.87,-3a10.23,10.23 0 0 0 -1.64,2.75l-2.59,-0.8a3.89,3.89 0 0 0 0.49,3a4.12,4.12 0 0 0 -1.22,0.83a1.37,1.37 0 0 0 -0.31,1.37a6.55,6.55 0 0 0 1.82,0.18a12.14,12.14 0 0 0 0.2,3.4a0.62,0.62 0 0 0 0.22,0.43c0.19,0.12 0.44,0 0.63,-0.11a6,6 0 0 0 2.13,-2.31l1,2.29a1,1 0 0 0 0.42,0.58a0.7,0.7 0 0 0 0.81,-0.28a2,2 0 0 0 0.29,-0.87l0.35,-2.19a0.51,0.51 0 0 1 0.12,-0.3a0.53,0.53 0 0 1 0.39,-0.11q1.36,0 2.73,0c0.16,-0.49 -0.33,-0.94 -0.79,-1.14s-1,-0.36 -1.26,-0.81c-0.47,-0.93 0.76,-2.21 0.24,-3s-1.65,-0.02 -2.45,0.37z"/>
   <path id="svg_168" opacity="0.5" fill="#ff0000" d="m832.19,200.51a0.53,0.53 0 0 1 -0.3,0.09c-0.2,0 -0.33,-0.2 -0.41,-0.37c-0.44,-1 -0.19,-2.2 -0.87,-3a10.28,10.28 0 0 0 -1.61,2.75l-2.59,-0.8a3.89,3.89 0 0 0 0.49,3a4.12,4.12 0 0 0 -1.22,0.83a1.37,1.37 0 0 0 -0.31,1.37a7,7 0 0 0 1.82,0.18a12,12 0 0 0 0.2,3.39a0.63,0.63 0 0 0 0.22,0.44c0.19,0.12 0.44,0 0.63,-0.11a6.05,6.05 0 0 0 2.13,-2.25l1,2.29a1,1 0 0 0 0.43,0.58a0.69,0.69 0 0 0 0.8,-0.28a2,2 0 0 0 0.29,-0.87l0.36,-2.19a0.55,0.55 0 0 1 0.11,-0.31a0.64,0.64 0 0 1 0.39,-0.11c0.91,0 1.82,0 2.73,0c0.16,-0.49 -0.33,-0.94 -0.79,-1.14s-1,-0.36 -1.26,-0.81c-0.47,-0.93 0.76,-2.21 0.24,-3s-1.67,-0.07 -2.48,0.32z"/>
   <path id="svg_169" opacity="0.2" fill="#ff0000" d="m780.11,194.67a0.59,0.59 0 0 1 -0.31,0.09c-0.19,0 -0.33,-0.2 -0.41,-0.37c-0.44,-1 -0.19,-2.2 -0.86,-3a10.11,10.11 0 0 0 -1.65,2.75l-2.58,-0.8a3.8,3.8 0 0 0 0.49,3a4.12,4.12 0 0 0 -1.22,0.83a1.35,1.35 0 0 0 -0.32,1.37a7,7 0 0 0 1.83,0.18a12,12 0 0 0 0.19,3.39a0.67,0.67 0 0 0 0.22,0.44c0.19,0.12 0.44,0 0.63,-0.11a6,6 0 0 0 2.13,-2.25l1,2.29a1.07,1.07 0 0 0 0.43,0.58a0.7,0.7 0 0 0 0.81,-0.28a2,2 0 0 0 0.28,-0.87l0.36,-2.19a0.56,0.56 0 0 1 0.12,-0.31a0.63,0.63 0 0 1 0.38,-0.11c0.91,0 1.82,0 2.74,0c0.15,-0.49 -0.33,-0.94 -0.8,-1.14s-1,-0.36 -1.25,-0.81c-0.48,-0.93 0.75,-2.21 0.23,-3s-1.64,-0.07 -2.44,0.32z"/>
   <path id="svg_170" opacity="0.3" fill="#ff0000" d="m763.76,201.78a0.53,0.53 0 0 1 -0.3,0.09c-0.2,0 -0.33,-0.2 -0.41,-0.37c-0.44,-1 -0.19,-2.2 -0.87,-3a10.08,10.08 0 0 0 -1.64,2.75l-2.59,-0.8a3.89,3.89 0 0 0 0.49,3a4.12,4.12 0 0 0 -1.22,0.83a1.37,1.37 0 0 0 -0.31,1.37a7,7 0 0 0 1.82,0.18a12,12 0 0 0 0.2,3.39a0.63,0.63 0 0 0 0.22,0.44c0.19,0.12 0.44,0 0.63,-0.11a6.05,6.05 0 0 0 2.13,-2.25l1,2.29a1,1 0 0 0 0.43,0.58a0.69,0.69 0 0 0 0.8,-0.28a2,2 0 0 0 0.29,-0.87l0.36,-2.19a0.55,0.55 0 0 1 0.11,-0.31a0.57,0.57 0 0 1 0.39,-0.1q1.37,0 2.73,0c0.16,-0.49 -0.33,-0.94 -0.79,-1.14s-1,-0.36 -1.26,-0.81c-0.47,-0.93 0.76,-2.21 0.24,-3s-1.65,-0.08 -2.45,0.31z"/>
   <path id="svg_171" opacity="0.2" fill="#ff0000" d="m748.53,158.75a0.59,0.59 0 0 1 -0.31,0.09c-0.19,0 -0.33,-0.2 -0.41,-0.37c-0.44,-1 -0.19,-2.2 -0.86,-3a10.32,10.32 0 0 0 -1.65,2.76l-2.58,-0.8a3.8,3.8 0 0 0 0.49,3a4.12,4.12 0 0 0 -1.22,0.83a1.35,1.35 0 0 0 -0.32,1.37a7.07,7.07 0 0 0 1.83,0.18a12,12 0 0 0 0.19,3.39a0.67,0.67 0 0 0 0.22,0.44c0.19,0.12 0.44,0 0.63,-0.11a6,6 0 0 0 2.13,-2.25l1,2.29a1.07,1.07 0 0 0 0.43,0.58a0.7,0.7 0 0 0 0.81,-0.28a2,2 0 0 0 0.28,-0.87l0.36,-2.19a0.56,0.56 0 0 1 0.12,-0.31a0.63,0.63 0 0 1 0.38,-0.11c0.91,0 1.83,0 2.74,0c0.15,-0.49 -0.33,-0.94 -0.8,-1.14s-1,-0.36 -1.25,-0.81c-0.48,-0.93 0.75,-2.21 0.23,-3s-1.64,-0.09 -2.44,0.31z"/>
   <path id="svg_172" opacity="0.3" fill="#ff0000" d="m778.54,214.9a0.59,0.59 0 0 1 -0.31,0.09c-0.19,0 -0.33,-0.19 -0.41,-0.37c-0.44,-1 -0.19,-2.2 -0.86,-3a10.26,10.26 0 0 0 -1.65,2.75l-2.58,-0.8a3.8,3.8 0 0 0 0.49,3a4.12,4.12 0 0 0 -1.22,0.83a1.35,1.35 0 0 0 -0.32,1.37a6.66,6.66 0 0 0 1.83,0.18a12.14,12.14 0 0 0 0.19,3.4a0.67,0.67 0 0 0 0.22,0.43c0.19,0.12 0.44,0 0.64,-0.11a6,6 0 0 0 2.12,-2.25l1,2.29a1.07,1.07 0 0 0 0.43,0.58a0.7,0.7 0 0 0 0.81,-0.28a2,2 0 0 0 0.28,-0.87l0.36,-2.19a0.51,0.51 0 0 1 0.12,-0.3a0.52,0.52 0 0 1 0.38,-0.11c0.91,0 1.83,0 2.74,0c0.15,-0.49 -0.33,-0.94 -0.8,-1.14s-1,-0.36 -1.25,-0.81c-0.48,-0.93 0.75,-2.21 0.23,-3s-1.64,-0.08 -2.44,0.31z"/>
  </g>
  <path id="svg_175" opacity="0.2" fill="#ff7f00" d="m241.72,148.98c-3.18,0.12 -2.46,4.63 0.74,4.65c0.83,0 1.67,0 2.46,-0.06c9.71,-0.39 19.66,2.29 29.3,5.23c2.37,0.72 4.87,1.55 6.59,3.32a52.82,52.82 0 0 0 -17.12,-8.79a129.87,129.87 0 0 0 -18.64,-4.1a16.87,16.87 0 0 0 -3.33,-0.25z"/>
  <path id="svg_200" fill="#ff7f00" d="m228.85,142.82a1.19,1.19 0 0 1 -0.58,0.17c-0.36,0 -0.62,-0.37 -0.77,-0.71c-0.83,-1.79 -0.35,-4.12 -1.62,-5.63a19.38,19.38 0 0 0 -3.09,5.17l-4.85,-1.5a7.21,7.21 0 0 0 0.91,5.56a7.49,7.49 0 0 0 -2.28,1.55a2.55,2.55 0 0 0 -0.57,2.55a12.38,12.38 0 0 0 3.43,0.34a22.41,22.41 0 0 0 0.37,6.38a1.2,1.2 0 0 0 0.41,0.81c0.36,0.23 0.83,0 1.19,-0.2a11.26,11.26 0 0 0 4,-4.23l1.8,4.31a1.94,1.94 0 0 0 0.81,1.08a1.31,1.31 0 0 0 1.51,-0.52a3.74,3.74 0 0 0 0.53,-1.64l0.68,-4.1a1,1 0 0 1 0.22,-0.58a1.06,1.06 0 0 1 0.72,-0.21c1.71,-0.05 3.42,-0.06 5.14,-0.05c0.29,-0.91 -0.62,-1.76 -1.49,-2.14s-1.92,-0.67 -2.36,-1.52c-0.89,-1.74 1.42,-4.15 0.44,-5.64c-1.19,-1.72 -3.06,0 -4.55,0.75z"/>
  <path id="svg_205" opacity="0.5" fill="#ff7f00" d="m256,159.56a0.55,0.55 0 0 1 -0.3,0.09c-0.2,0 -0.33,-0.2 -0.41,-0.37c-0.44,-1 -0.19,-2.19 -0.87,-3a10.66,10.66 0 0 0 -1.64,2.75l-2.57,-0.8a3.85,3.85 0 0 0 0.48,3a4,4 0 0 0 -1.21,0.82a1.35,1.35 0 0 0 -0.32,1.37a7,7 0 0 0 1.82,0.18a12,12 0 0 0 0.2,3.38a0.63,0.63 0 0 0 0.22,0.44c0.19,0.12 0.44,0 0.63,-0.11a6,6 0 0 0 2.12,-2.25l1,2.29a1,1 0 0 0 0.42,0.57a0.68,0.68 0 0 0 0.81,-0.27a2,2 0 0 0 0.28,-0.87l0.36,-2.18a0.56,0.56 0 0 1 0.12,-0.31a0.63,0.63 0 0 1 0.38,-0.11c0.91,0 1.82,0 2.73,0c0.15,-0.49 -0.33,-0.94 -0.79,-1.14s-1,-0.36 -1.25,-0.81c-0.48,-0.92 0.75,-2.2 0.23,-3s-1.64,-0.06 -2.44,0.33z"/>
  <path id="svg_174" fill="#ff7f00" d="m240.33,130.23c-5,-0.16 -5.66,7.47 -0.66,7.87c1.31,0.1 2.64,0.13 3.9,0.17c15.39,0.42 29.95,6 43.94,12c3.43,1.47 7,3.13 9,6.28c-6.31,-7.31 -14.61,-12.67 -23.44,-16.6s-18.24,-6.52 -27.64,-8.93a23.55,23.55 0 0 0 -5.1,-0.79z"/>
  <path id="svg_181" fill="#ff7f00" d="m306.74,84.44c-2.38,-4.84 -9.16,-0.86 -7,4.1c0.56,1.3 1.19,2.57 1.79,3.78c7.31,14.78 9.82,31.88 11.7,48.69c0.46,4.12 0.86,8.52 -0.82,12.31c3.06,-10.35 3.47,-21.4 2.41,-32.1s-3.55,-21.14 -6.19,-31.47a28.48,28.48 0 0 0 -1.89,-5.31z"/>
  <path id="svg_209" opacity="0.2" fill="#ff7f00" d="m279.62,124.88a0.59,0.59 0 0 1 -0.31,0.09c-0.19,0 -0.33,-0.2 -0.41,-0.37c-0.44,-1 -0.19,-2.19 -0.86,-3a10.39,10.39 0 0 0 -1.64,2.75l-2.58,-0.8a3.81,3.81 0 0 0 0.49,3a3.91,3.91 0 0 0 -1.22,0.82a1.37,1.37 0 0 0 -0.31,1.37a7,7 0 0 0 1.82,0.18a12,12 0 0 0 0.19,3.38a0.58,0.58 0 0 0 0.22,0.43a0.62,0.62 0 0 0 0.63,-0.1a6,6 0 0 0 2.12,-2.25l1,2.29a1,1 0 0 0 0.43,0.57a0.68,0.68 0 0 0 0.8,-0.27a2,2 0 0 0 0.29,-0.87l0.35,-2.18a0.56,0.56 0 0 1 0.12,-0.31a0.52,0.52 0 0 1 0.38,-0.11l2.73,0c0.16,-0.48 -0.32,-0.93 -0.79,-1.13s-1,-0.36 -1.25,-0.81c-0.47,-0.92 0.75,-2.2 0.23,-3s-1.64,-0.07 -2.43,0.32z"/>
  <path id="svg_173" opacity="0.5" fill="#ff7f00" d="m288.68,109.07c-2.42,-3.3 -7.42,0.27 -5.16,3.68c0.59,0.89 1.24,1.76 1.85,2.58c7.45,10.06 11.31,22.28 14.64,34.35c0.81,3 1.6,6.13 0.67,9.06c1.33,-7.85 0.47,-15.95 -1.54,-23.65s-5.14,-15.06 -8.37,-22.33a19.86,19.86 0 0 0 -2.09,-3.69z"/>
  <path id="svg_203" opacity="0.5" fill="#ff7f00" d="m246.58,113.23a0.53,0.53 0 0 1 -0.3,0.09c-0.2,0 -0.33,-0.2 -0.41,-0.37c-0.44,-1 -0.19,-2.19 -0.86,-3a10.13,10.13 0 0 0 -1.64,2.75l-2.58,-0.8a3.81,3.81 0 0 0 0.49,3a3.91,3.91 0 0 0 -1.22,0.82a1.35,1.35 0 0 0 -0.31,1.37a6.91,6.91 0 0 0 1.82,0.18a12.07,12.07 0 0 0 0.19,3.39a0.62,0.62 0 0 0 0.22,0.43c0.19,0.12 0.44,0 0.63,-0.11a5.88,5.88 0 0 0 2.12,-2.25l1,2.29a1,1 0 0 0 0.43,0.58a0.69,0.69 0 0 0 0.8,-0.28a2,2 0 0 0 0.28,-0.87l0.36,-2.18a0.56,0.56 0 0 1 0.12,-0.31a0.63,0.63 0 0 1 0.38,-0.11c0.91,0 1.82,0 2.73,0c0.16,-0.49 -0.33,-0.94 -0.79,-1.14s-1,-0.36 -1.25,-0.81c-0.48,-0.92 0.75,-2.2 0.23,-3s-1.64,-0.06 -2.44,0.33z"/>
  <path id="svg_177" opacity="0.2" fill="#ff7f00" d="m247.5,104.84c-1.91,-0.33 -2.05,2.45 -0.15,2.87c0.5,0.11 1,0.2 1.48,0.28c5.85,1 11.45,3.86 16.84,6.85a9.17,9.17 0 0 1 3.51,2.81a32.19,32.19 0 0 0 -9.11,-7.42a80.19,80.19 0 0 0 -10.61,-4.82a10.77,10.77 0 0 0 -1.96,-0.57z"/>
  <path id="svg_190" opacity="0.2" fill="#ff7f00" d="m291.88,238.61c0.43,1.89 3.05,0.95 2.71,-1c-0.09,-0.5 -0.21,-1 -0.32,-1.47c-1.33,-5.78 -0.85,-12.05 -0.17,-18.17a9.27,9.27 0 0 1 1.24,-4.33a32.18,32.18 0 0 0 -3.34,11.34a79.54,79.54 0 0 0 -0.36,11.64a10.7,10.7 0 0 0 0.24,1.99z"/>
  <path id="svg_199" fill="#ff7f00" d="m277.93,250.46a1.18,1.18 0 0 1 -0.57,0.17c-0.37,0 -0.62,-0.37 -0.78,-0.71c-0.82,-1.79 -0.35,-4.12 -1.62,-5.63a19.35,19.35 0 0 0 -3.08,5.17l-4.88,-1.48a7.25,7.25 0 0 0 0.92,5.56a7.53,7.53 0 0 0 -2.29,1.55a2.55,2.55 0 0 0 -0.59,2.57a12.38,12.38 0 0 0 3.43,0.34a22.77,22.77 0 0 0 0.36,6.38a1.17,1.17 0 0 0 0.42,0.81c0.35,0.22 0.82,0 1.18,-0.2a11.26,11.26 0 0 0 4,-4.23l1.81,4.31a2,2 0 0 0 0.8,1.08a1.3,1.3 0 0 0 1.51,-0.53a3.67,3.67 0 0 0 0.54,-1.63l0.67,-4.1a1.07,1.07 0 0 1 0.23,-0.58a1,1 0 0 1 0.72,-0.21c1.71,-0.05 3.42,-0.06 5.13,-0.05c0.3,-0.91 -0.61,-1.76 -1.49,-2.14s-1.91,-0.67 -2.35,-1.52c-0.9,-1.74 1.41,-4.15 0.43,-5.64c-1.13,-1.77 -3,-0.04 -4.5,0.71z"/>
  <path id="svg_180" fill="#ff7f00" d="m256.71,247.84c-1,4.65 5.63,4.72 6.87,0.07c0.32,-1.22 0.58,-2.44 0.83,-3.61c3.07,-14.23 10.58,-28.05 18.36,-41.37c1.91,-3.27 12.59,-12.64 15.74,-14.71c-7.6,6.32 -22.39,20.28 -27.43,28.7a215.24,215.24 0 0 0 -12.78,26.13a27.18,27.18 0 0 0 -1.59,4.79z"/>
  <path id="svg_189" opacity="0.2" fill="#ff7f00" d="m243.32,226.04c-1.49,2.52 2.18,2.35 3.79,-0.18c0.42,-0.66 0.81,-1.33 1.18,-2c4.54,-7.74 11.46,-15.38 18.43,-22.77a25.49,25.49 0 0 1 5.71,-4.93a90.46,90.46 0 0 0 -15,12.8c-4.47,4.68 -8.42,9.55 -12.28,14.41a24.65,24.65 0 0 0 -1.83,2.67z"/>
  <path id="svg_179" opacity="0.5" fill="#ff7f00" d="m231.85,205.28c-3.48,3.24 2,7.08 5.61,4c1,-0.82 1.87,-1.68 2.74,-2.49c10.62,-10 24.65,-17.07 38.62,-23.6c3.43,-1.61 17.55,-3.25 21.31,-3.16c-9.84,0.88 -29.94,4 -38.88,8a215.25,215.25 0 0 0 -25.36,14.23a27.37,27.37 0 0 0 -4.04,3.02z"/>
  <path id="svg_204" opacity="0.5" fill="#ff7f00" d="m280.93,189.16a0.59,0.59 0 0 1 -0.31,0.09c-0.19,0 -0.33,-0.2 -0.41,-0.37c-0.44,-1 -0.19,-2.19 -0.86,-3a10.39,10.39 0 0 0 -1.64,2.75l-2.58,-0.8a3.9,3.9 0 0 0 0.49,3a3.75,3.75 0 0 0 -1.21,0.82a1.35,1.35 0 0 0 -0.32,1.37a7,7 0 0 0 1.82,0.18a12,12 0 0 0 0.19,3.38a0.67,0.67 0 0 0 0.22,0.44c0.19,0.12 0.44,0 0.63,-0.11a6,6 0 0 0 2.12,-2.25l1,2.29a1.07,1.07 0 0 0 0.43,0.58a0.68,0.68 0 0 0 0.8,-0.28a2,2 0 0 0 0.29,-0.87l0.36,-2.18a0.5,0.5 0 0 1 0.12,-0.31a0.59,0.59 0 0 1 0.38,-0.11c0.91,0 1.82,0 2.72,0c0.16,-0.49 -0.32,-0.94 -0.79,-1.14s-1,-0.36 -1.25,-0.81c-0.47,-0.92 0.76,-2.2 0.23,-3s-1.64,-0.06 -2.43,0.33z"/>
  <path id="svg_178" fill="#ff7f00" d="m218,178.61c-4.85,2.49 -0.75,9.35 4.23,7.07c1.3,-0.59 2.57,-1.26 3.79,-1.89c14.81,-7.68 32,-10.51 49,-12.69c4.15,-0.54 8.58,-1 12.42,0.64c-10.47,-3 -21.63,-3.2 -32.41,-1.95s-21.27,4 -31.65,6.81a28,28 0 0 0 -5.38,2.01z"/>
  <path id="svg_182" fill="#ff7f00" d="m268.93,92.67a0.88,0.88 0 0 0 0.41,0.12c0.27,0 0.45,-0.26 0.56,-0.5c0.59,-1.29 0.25,-3 1.17,-4.05a14,14 0 0 1 2.21,3.72l3.48,-1.08a5.15,5.15 0 0 1 -0.66,4a5.17,5.17 0 0 1 1.64,1.11a1.81,1.81 0 0 1 0.43,1.85a9.22,9.22 0 0 1 -2.46,0.24a16.28,16.28 0 0 1 -0.26,4.57a0.85,0.85 0 0 1 -0.3,0.59c-0.25,0.16 -0.59,0 -0.85,-0.14a8,8 0 0 1 -2.86,-3l-1.3,3.09a1.47,1.47 0 0 1 -0.57,0.78a0.94,0.94 0 0 1 -1.09,-0.38a2.65,2.65 0 0 1 -0.38,-1.17l-0.49,-2.95a0.65,0.65 0 0 0 -0.16,-0.41a0.7,0.7 0 0 0 -0.51,-0.15c-1.23,0 -2.46,0 -3.69,0c-0.21,-0.65 0.44,-1.26 1.07,-1.53s1.37,-0.49 1.69,-1.1c0.64,-1.24 -1,-3 -0.31,-4c0.82,-1.38 2.16,-0.14 3.23,0.39z"/>
  <path id="svg_185" opacity="0.5" fill="#ff7f00" d="m383.11,148.98c3.17,0.12 2.46,4.63 -0.74,4.65c-0.83,0 -1.67,0 -2.47,-0.06c-9.71,-0.39 -19.65,2.29 -29.29,5.23c-2.37,0.72 -4.87,1.55 -6.59,3.32a52.82,52.82 0 0 1 17.12,-8.79a129.57,129.57 0 0 1 18.64,-4.1a16.87,16.87 0 0 1 3.33,-0.25z"/>
  <path id="svg_198" fill="#ff7f00" d="m395.91,139.98a0.88,0.88 0 0 1 -0.41,0.12c-0.27,0 -0.45,-0.27 -0.56,-0.51c-0.59,-1.28 -0.25,-3 -1.17,-4a14.08,14.08 0 0 0 -2.21,3.71l-3.48,-1.07a5.15,5.15 0 0 0 0.66,4a5.17,5.17 0 0 0 -1.64,1.11a1.79,1.79 0 0 0 -0.43,1.84a8.83,8.83 0 0 0 2.46,0.25a16.28,16.28 0 0 0 0.26,4.57a0.85,0.85 0 0 0 0.3,0.59c0.25,0.16 0.59,0 0.85,-0.15a7.93,7.93 0 0 0 2.86,-3l1.3,3.09a1.41,1.41 0 0 0 0.57,0.77a0.92,0.92 0 0 0 1.09,-0.37a2.65,2.65 0 0 0 0.38,-1.17l0.49,-2.95a0.65,0.65 0 0 1 0.16,-0.41a0.7,0.7 0 0 1 0.51,-0.15c1.23,0 2.46,0 3.69,0c0.21,-0.65 -0.44,-1.26 -1.07,-1.54s-1.37,-0.48 -1.69,-1.09c-0.64,-1.24 1,-3 0.31,-4c-0.82,-1.45 -2.14,-0.2 -3.23,0.36z"/>
  <path id="svg_184" fill="#ff7f00" d="m384.49,130.23c5,-0.16 5.67,7.47 0.66,7.87c-1.31,0.1 -2.63,0.13 -3.89,0.17c-15.4,0.42 -29.95,6 -43.94,12c-3.43,1.47 -7,3.13 -9,6.28c6.3,-7.31 14.6,-12.67 23.44,-16.6s18.24,-6.52 27.6,-8.97a23.55,23.55 0 0 1 5.13,-0.75z"/>
  <path id="svg_191" opacity="0.2" fill="#ff7f00" d="m362,123.83c1.91,-0.33 2.05,2.46 0.15,2.88c-0.5,0.11 -1,0.19 -1.48,0.27c-5.85,1 -11.45,3.87 -16.84,6.85a9.1,9.1 0 0 0 -3.51,2.82a32.22,32.22 0 0 1 9.11,-7.43a78.86,78.86 0 0 1 10.61,-4.81a10.06,10.06 0 0 1 1.96,-0.58z"/>
  <path id="svg_183" opacity="0.5" fill="#ff7f00" d="m336.15,109.07c2.42,-3.3 7.42,0.27 5.16,3.68c-0.59,0.89 -1.24,1.76 -1.85,2.58c-7.45,10.06 -11.32,22.28 -14.64,34.35c-0.82,3 -1.61,6.13 -0.68,9.06c-1.33,-7.85 -0.46,-15.95 1.55,-23.65s5.14,-15.06 8.37,-22.33a19.86,19.86 0 0 1 2.09,-3.69z"/>
  <path id="svg_186" opacity="0.2" fill="#ff7f00" d="m377.32,104.84c1.92,-0.33 2.06,2.45 0.16,2.87c-0.5,0.11 -1,0.2 -1.49,0.28c-5.85,1 -11.44,3.86 -16.83,6.85a9.17,9.17 0 0 0 -3.51,2.81a32.05,32.05 0 0 1 9.11,-7.42a80.07,80.07 0 0 1 10.6,-4.82a11.26,11.26 0 0 1 1.96,-0.57z"/>
  <path id="svg_192" opacity="0.2" fill="#ff7f00" d="m344.18,86.54c1.65,-1 2.82,1.51 1.22,2.61c-0.43,0.29 -0.86,0.55 -1.28,0.81c-5.05,3.11 -9.17,7.86 -13.05,12.64a9.18,9.18 0 0 0 -2.21,3.93a32.32,32.32 0 0 1 5.68,-10.29a80.24,80.24 0 0 1 8,-8.44a10.82,10.82 0 0 1 1.64,-1.26z"/>
  <path id="svg_195" fill="#ff7f00" d="m351.92,253.15c0.43,4.74 -6.18,4 -6.82,-0.79c-0.17,-1.25 -0.27,-2.5 -0.38,-3.68c-1.26,-14.51 -7,-29.16 -13,-43.35c-1.49,-3.48 -10.91,-14.12 -13.78,-16.57c6.75,7.23 19.67,22.93 23.62,31.91a216.35,216.35 0 0 1 9.41,27.52a27.21,27.21 0 0 1 0.95,4.96z"/>
  <path id="svg_201" opacity="0.2" fill="#ff7f00" d="m377.79,209.48a0.86,0.86 0 0 1 -0.3,0.09a0.59,0.59 0 0 1 -0.42,-0.38c-0.44,-0.95 -0.18,-2.19 -0.86,-3a10.33,10.33 0 0 0 -1.64,2.75l-2.58,-0.8a3.87,3.87 0 0 0 0.49,2.95a4,4 0 0 0 -1.21,0.83a1.34,1.34 0 0 0 -0.32,1.36a6.22,6.22 0 0 0 1.82,0.18a12,12 0 0 0 0.2,3.39a0.62,0.62 0 0 0 0.22,0.43c0.19,0.12 0.43,0 0.63,-0.1a6.11,6.11 0 0 0 2.12,-2.25l1,2.29a1,1 0 0 0 0.42,0.57a0.7,0.7 0 0 0 0.81,-0.28a2,2 0 0 0 0.28,-0.87l0.36,-2.18a0.53,0.53 0 0 1 0.12,-0.3a0.49,0.49 0 0 1 0.38,-0.11q1.37,0 2.73,0c0.15,-0.48 -0.33,-0.93 -0.8,-1.14s-1,-0.35 -1.25,-0.81c-0.47,-0.92 0.76,-2.2 0.24,-3s-1.65,-0.02 -2.44,0.38z"/>
  <path id="svg_194" opacity="0.5" fill="#ff7f00" d="m393,205.28c3.48,3.24 -2,7.08 -5.61,4c-1,-0.82 -1.87,-1.68 -2.74,-2.49c-10.65,-10.01 -24.65,-17.11 -38.65,-23.64c-3.43,-1.61 -17.55,-3.25 -21.32,-3.16c9.85,0.88 29.95,4 38.89,8a215.25,215.25 0 0 1 25.36,14.23a27.37,27.37 0 0 1 4.07,3.06z"/>
  <path id="svg_206" opacity="0.5" fill="#ff7f00" d="m363.06,166.53a0.58,0.58 0 0 1 -0.3,0.09c-0.2,0 -0.33,-0.2 -0.42,-0.37c-0.43,-1 -0.18,-2.19 -0.86,-3a10.66,10.66 0 0 0 -1.64,2.75l-2.57,-0.8a3.85,3.85 0 0 0 0.48,3a3.75,3.75 0 0 0 -1.21,0.82a1.35,1.35 0 0 0 -0.32,1.37a7,7 0 0 0 1.82,0.18a12,12 0 0 0 0.2,3.38a0.63,0.63 0 0 0 0.22,0.44c0.19,0.12 0.44,0 0.63,-0.11a6.11,6.11 0 0 0 2.12,-2.25l1,2.29a1,1 0 0 0 0.42,0.57a0.68,0.68 0 0 0 0.81,-0.27a2,2 0 0 0 0.28,-0.87l0.36,-2.18a0.56,0.56 0 0 1 0.12,-0.31a0.59,0.59 0 0 1 0.38,-0.11l2.73,0c0.15,-0.48 -0.33,-0.93 -0.79,-1.13s-1,-0.36 -1.25,-0.81c-0.48,-0.92 0.75,-2.2 0.23,-3s-1.64,-0.07 -2.44,0.32z"/>
  <path id="svg_193" fill="#ff7f00" d="m406.83,178.61c4.85,2.49 0.75,9.35 -4.23,7.07c-1.3,-0.59 -2.58,-1.26 -3.79,-1.89c-14.82,-7.68 -32,-10.51 -49,-12.69c-4.15,-0.54 -8.58,-1 -12.42,0.64c10.47,-3 21.62,-3.2 32.41,-1.95s21.26,4 31.65,6.81a28.26,28.26 0 0 1 5.38,2.01z"/>
  <path id="svg_196" fill="#ff7f00" d="m355.89,92.67a0.85,0.85 0 0 1 -0.41,0.12c-0.26,0 -0.44,-0.26 -0.55,-0.5c-0.6,-1.29 -0.26,-3 -1.17,-4.05a14,14 0 0 0 -2.21,3.72l-3.49,-1.08a5.19,5.19 0 0 0 0.66,4a5.28,5.28 0 0 0 -1.64,1.11a1.82,1.82 0 0 0 -0.42,1.85a9.22,9.22 0 0 0 2.46,0.24a15.92,15.92 0 0 0 0.26,4.57a0.85,0.85 0 0 0 0.3,0.59c0.25,0.16 0.59,0 0.85,-0.14a8.19,8.19 0 0 0 2.86,-3l1.3,3.09a1.37,1.37 0 0 0 0.57,0.78a0.94,0.94 0 0 0 1.09,-0.38a2.79,2.79 0 0 0 0.38,-1.17l0.49,-2.95a0.65,0.65 0 0 1 0.16,-0.41a0.7,0.7 0 0 1 0.51,-0.15c1.23,0 2.46,0 3.69,0c0.21,-0.65 -0.44,-1.26 -1.07,-1.53s-1.38,-0.49 -1.69,-1.1c-0.64,-1.24 1,-3 0.31,-4c-0.82,-1.38 -2.13,-0.14 -3.24,0.39z"/>
  <path id="svg_207" opacity="0.2" fill="#ff7f00" d="m311.11,160.71a0.8,0.8 0 0 1 -0.3,0.09c-0.2,0 -0.33,-0.2 -0.41,-0.38c-0.44,-0.95 -0.19,-2.19 -0.87,-3a10.33,10.33 0 0 0 -1.64,2.75l-2.57,-0.8a3.82,3.82 0 0 0 0.48,2.95a4.2,4.2 0 0 0 -1.21,0.83a1.34,1.34 0 0 0 -0.32,1.36a6.22,6.22 0 0 0 1.82,0.18a12,12 0 0 0 0.2,3.39a0.62,0.62 0 0 0 0.22,0.43c0.19,0.12 0.44,0 0.63,-0.1a6,6 0 0 0 2.12,-2.25l1,2.29a1,1 0 0 0 0.42,0.57a0.7,0.7 0 0 0 0.81,-0.28a2,2 0 0 0 0.28,-0.86l0.36,-2.18a0.54,0.54 0 0 1 0.12,-0.31a0.52,0.52 0 0 1 0.38,-0.11q1.37,0 2.73,0c0.15,-0.48 -0.33,-0.93 -0.79,-1.14s-1,-0.35 -1.25,-0.8c-0.48,-0.93 0.75,-2.21 0.23,-3s-1.64,-0.03 -2.44,0.37z"/>
  <path id="svg_208" opacity="0.3" fill="#ff7f00" d="m294.81,167.8a0.69,0.69 0 0 1 -0.3,0.09c-0.2,0 -0.33,-0.2 -0.42,-0.38c-0.44,-0.95 -0.18,-2.18 -0.86,-3a10.49,10.49 0 0 0 -1.64,2.75l-2.58,-0.8a3.9,3.9 0 0 0 0.49,3a3.75,3.75 0 0 0 -1.21,0.82a1.34,1.34 0 0 0 -0.32,1.36a6.59,6.59 0 0 0 1.82,0.19a12,12 0 0 0 0.2,3.38a0.6,0.6 0 0 0 0.22,0.43a0.62,0.62 0 0 0 0.63,-0.1a6.11,6.11 0 0 0 2.12,-2.25l1,2.29a1,1 0 0 0 0.42,0.57a0.71,0.71 0 0 0 0.81,-0.27a2,2 0 0 0 0.28,-0.87l0.36,-2.18a0.56,0.56 0 0 1 0.12,-0.31a0.49,0.49 0 0 1 0.38,-0.11c0.91,0 1.82,0 2.73,0c0.15,-0.48 -0.33,-0.93 -0.79,-1.13s-1,-0.36 -1.25,-0.81c-0.48,-0.92 0.75,-2.2 0.23,-3s-1.64,-0.07 -2.44,0.33z"/>
  <path id="svg_210" opacity="0.3" fill="#ff7f00" d="m309.55,180.89a0.85,0.85 0 0 1 -0.31,0.09a0.58,0.58 0 0 1 -0.41,-0.38c-0.44,-1 -0.19,-2.19 -0.86,-3a10.08,10.08 0 0 0 -1.64,2.75l-2.58,-0.8a3.79,3.79 0 0 0 0.49,2.95a4.12,4.12 0 0 0 -1.22,0.83a1.36,1.36 0 0 0 -0.31,1.36a6.19,6.19 0 0 0 1.82,0.18a12,12 0 0 0 0.19,3.39a0.67,0.67 0 0 0 0.22,0.43c0.19,0.12 0.44,0 0.63,-0.1a6,6 0 0 0 2.12,-2.25l1,2.29a1.08,1.08 0 0 0 0.43,0.57a0.68,0.68 0 0 0 0.8,-0.28a2,2 0 0 0 0.29,-0.87l0.36,-2.18a0.45,0.45 0 0 1 0.12,-0.3a0.49,0.49 0 0 1 0.38,-0.11c0.91,0 1.81,0 2.72,0c0.16,-0.48 -0.32,-0.93 -0.79,-1.14s-1,-0.35 -1.25,-0.81c-0.47,-0.92 0.75,-2.2 0.23,-3s-1.64,-0.02 -2.43,0.38z"/>
  <g id="svg_211">
   <g id="svg_1" opacity="0.6">
    <path id="svg_2" opacity="0.5" fill="#6c63ff" d="m806.46,451.18a2,2 0 0 0 -3.25,2.32c0.37,0.57 0.78,1.11 1.17,1.63c4.69,6.34 7.12,14 9.22,21.64c0.51,1.86 1,3.86 0.42,5.7a35.55,35.55 0 0 0 -1,-14.89a92.39,92.39 0 0 0 -5.27,-14.07a12.87,12.87 0 0 0 -1.29,-2.33z"/>
    <path id="svg_3" fill="#6c63ff" d="m776,464.51c-3.17,-0.1 -3.57,4.71 -0.42,5c0.83,0.07 1.66,0.08 2.46,0.11c9.7,0.26 18.86,3.78 27.67,7.56c2.17,0.93 4.44,2 5.7,3.95a41.68,41.68 0 0 0 -14.76,-10.46a110.26,110.26 0 0 0 -17.41,-5.69a15.55,15.55 0 0 0 -3.24,-0.47z"/>
    <path id="svg_4" opacity="0.2" fill="#6c63ff" d="m776.88,476.32c-2,0.07 -1.55,2.91 0.47,2.93c0.52,0 1,0 1.55,0c6.12,-0.25 12.38,1.44 18.46,3.3a9.48,9.48 0 0 1 4.15,2.08a33.28,33.28 0 0 0 -10.79,-5.53a82.36,82.36 0 0 0 -11.72,-2.63a10.5,10.5 0 0 0 -2.12,-0.15z"/>
    <path id="svg_5" opacity="0.5" fill="#6c63ff" d="m817.8,529.15c0.57,1.92 3.21,0.77 2.73,-1.18c-0.13,-0.51 -0.28,-1 -0.43,-1.5c-1.75,-5.86 -1.67,-12.35 -1.38,-18.69a9.47,9.47 0 0 1 1,-4.54a33.43,33.43 0 0 0 -2.72,11.82a82.81,82.81 0 0 0 0.41,12a11.34,11.34 0 0 0 0.39,2.09z"/>
    <path id="svg_6" opacity="0.2" fill="#6c63ff" d="m780.53,448.52c-1.21,-0.21 -1.3,1.54 -0.1,1.81c0.32,0.07 0.63,0.12 0.93,0.17c3.69,0.63 7.21,2.44 10.61,4.32a5.75,5.75 0 0 1 2.21,1.77a20.25,20.25 0 0 0 -5.74,-4.67a49.49,49.49 0 0 0 -6.68,-3a6.66,6.66 0 0 0 -1.23,-0.4z"/>
    <path id="svg_7" fill="#6c63ff" d="m761.94,494.98c-3.05,1.57 -0.47,5.89 2.67,4.45c0.82,-0.37 1.62,-0.79 2.38,-1.19c9.34,-4.84 20.18,-6.62 30.84,-8c2.62,-0.34 5.41,-0.64 7.83,0.4a53.19,53.19 0 0 0 -20.42,-1.23a134.67,134.67 0 0 0 -19.93,4.29a17.15,17.15 0 0 0 -3.37,1.28z"/>
    <path id="svg_8" opacity="0.5" fill="#6c63ff" d="m770.67,511.79c-2.2,2 1.23,4.46 3.53,2.49c0.6,-0.51 1.18,-1.05 1.72,-1.57c6.69,-6.28 15.53,-10.75 24.33,-14.86c2.16,-1 11,-2.05 13.43,-2c-6.2,0.55 -18.87,2.49 -24.5,5.05a137.24,137.24 0 0 0 -16,9a17.1,17.1 0 0 0 -2.51,1.89z"/>
    <path id="svg_9" fill="#6c63ff" d="m786.32,538.6c-0.64,2.93 3.55,3 4.33,0c0.2,-0.76 0.37,-1.54 0.53,-2.27c1.93,-9 6.66,-17.67 11.56,-26.06c1.2,-2.06 7.93,-8 9.92,-9.27c-4.79,4 -14.11,12.78 -17.28,18.08a135.26,135.26 0 0 0 -8,16.46a17.85,17.85 0 0 0 -1.06,3.06z"/>
    <path id="svg_10" fill="#6c63ff" d="m817.84,435.67c-1.5,-3.05 -5.77,-0.54 -4.41,2.58c0.35,0.82 0.75,1.62 1.13,2.38c4.6,9.32 6.19,20.08 7.37,30.67c0.29,2.6 0.54,5.37 -0.52,7.76a53,53 0 0 0 1.52,-20.22a133.58,133.58 0 0 0 -3.93,-19.86a17.59,17.59 0 0 0 -1.16,-3.31z"/>
    <path id="svg_11" fill="#6c63ff" d="m794,440.85a0.46,0.46 0 0 0 0.25,0.08a0.46,0.46 0 0 0 0.35,-0.32c0.38,-0.81 0.16,-1.86 0.74,-2.54a8.88,8.88 0 0 1 1.39,2.33l2.2,-0.67a3.27,3.27 0 0 1 -0.42,2.51a3.4,3.4 0 0 1 1,0.7a1.14,1.14 0 0 1 0.26,1.16a5.71,5.71 0 0 1 -1.55,0.16a10,10 0 0 1 -0.16,2.88a0.51,0.51 0 0 1 -0.19,0.36c-0.16,0.11 -0.37,0 -0.53,-0.08a5.13,5.13 0 0 1 -1.81,-1.92l-0.81,2a0.88,0.88 0 0 1 -0.37,0.49a0.59,0.59 0 0 1 -0.68,-0.24a1.7,1.7 0 0 1 -0.24,-0.74l-0.31,-1.85a0.38,0.38 0 0 0 -0.1,-0.26a0.46,0.46 0 0 0 -0.32,-0.1c-0.78,0 -1.55,0 -2.32,0c-0.14,-0.41 0.27,-0.79 0.67,-1s0.86,-0.3 1.06,-0.69c0.41,-0.78 -0.64,-1.87 -0.19,-2.55s1.43,-0.04 2.08,0.29z"/>
    <path id="svg_12" opacity="0.5" fill="#6c63ff" d="m836.36,451.18a2,2 0 0 1 3.26,2.32c-0.38,0.57 -0.78,1.11 -1.17,1.63c-4.69,6.34 -7.13,14 -9.22,21.64c-0.52,1.86 -1,3.86 -0.43,5.7a35.55,35.55 0 0 1 1,-14.89a91.35,91.35 0 0 1 5.27,-14.07a12.82,12.82 0 0 1 1.29,-2.33z"/>
    <path id="svg_13" fill="#6c63ff" d="m866.82,464.51c3.16,-0.1 3.57,4.71 0.41,5c-0.82,0.07 -1.66,0.08 -2.45,0.11c-9.7,0.26 -18.87,3.78 -27.68,7.56c-2.16,0.93 -4.43,2 -5.69,3.95a41.68,41.68 0 0 1 14.76,-10.46a110.48,110.48 0 0 1 17.41,-5.69a15.75,15.75 0 0 1 3.24,-0.47z"/>
    <path id="svg_14" opacity="0.5" fill="#6c63ff" d="m866,476.32c2,0.07 1.54,2.91 -0.47,2.93c-0.53,0 -1.05,0 -1.55,0c-6.12,-0.25 -12.38,1.44 -18.46,3.3a9.43,9.43 0 0 0 -4.15,2.08a33.18,33.18 0 0 1 10.79,-5.53a82.36,82.36 0 0 1 11.74,-2.59a10.5,10.5 0 0 1 2.1,-0.19z"/>
    <path id="svg_15" opacity="0.2" fill="#6c63ff" d="m862.3,448.52c1.21,-0.21 1.3,1.54 0.1,1.81c-0.32,0.07 -0.63,0.12 -0.94,0.17c-3.68,0.63 -7.21,2.44 -10.6,4.32a5.75,5.75 0 0 0 -2.21,1.77a20.21,20.21 0 0 1 5.73,-4.67a50.18,50.18 0 0 1 6.69,-3a6.44,6.44 0 0 1 1.23,-0.4z"/>
    <path id="svg_16" opacity="0.2" fill="#6c63ff" d="m831,532.78c-0.27,1.2 -1.92,0.6 -1.7,-0.61c0,-0.31 0.13,-0.63 0.2,-0.92c0.84,-3.65 0.53,-7.6 0.11,-11.45a5.82,5.82 0 0 0 -0.79,-2.73a20.29,20.29 0 0 1 2.1,7.1a51.5,51.5 0 0 1 0.23,7.34a6,6 0 0 1 -0.15,1.27z"/>
    <path id="svg_17" opacity="0.5" fill="#6c63ff" d="m861.53,524.86c0.94,1.59 -1.37,1.49 -2.38,-0.11c-0.27,-0.42 -0.51,-0.83 -0.75,-1.23c-2.86,-4.88 -7.22,-9.69 -11.61,-14.35a16,16 0 0 0 -3.59,-3.1a56.88,56.88 0 0 1 9.43,8.06c2.82,3 5.3,6 7.74,9.08a15.94,15.94 0 0 1 1.16,1.65z"/>
    <path id="svg_18" opacity="0.2" fill="#6c63ff" d="m777.89,524.86c-0.94,1.59 1.37,1.49 2.39,-0.11c0.26,-0.42 0.51,-0.83 0.74,-1.23c2.86,-4.88 7.22,-9.69 11.61,-14.35a16.07,16.07 0 0 1 3.6,-3.1a57,57 0 0 0 -9.44,8.06c-2.81,3 -5.3,6 -7.74,9.08a15.94,15.94 0 0 0 -1.16,1.65z"/>
    <path id="svg_19" opacity="0.2" fill="#6c63ff" d="m808.48,532.78c0.27,1.2 1.92,0.6 1.71,-0.61c-0.06,-0.31 -0.13,-0.63 -0.2,-0.92c-0.84,-3.65 -0.54,-7.6 -0.11,-11.45a5.69,5.69 0 0 1 0.78,-2.73a20.29,20.29 0 0 0 -2.1,7.1a50.06,50.06 0 0 0 -0.22,7.34a6.77,6.77 0 0 0 0.14,1.27z"/>
    <path id="svg_20" opacity="0.2" fill="#6c63ff" d="m852.67,460.48c1.2,-0.2 1.29,1.55 0.09,1.81l-0.93,0.18c-3.69,0.63 -7.21,2.43 -10.61,4.31a5.76,5.76 0 0 0 -2.21,1.78a20.28,20.28 0 0 1 5.74,-4.68a49.43,49.43 0 0 1 6.68,-3a6.56,6.56 0 0 1 1.24,-0.4z"/>
    <path id="svg_21" opacity="0.2" fill="#6c63ff" d="m841.42,436.98c1,-0.64 1.78,0.95 0.77,1.65l-0.8,0.51c-3.18,2 -5.78,4.95 -8.23,8a5.69,5.69 0 0 0 -1.38,2.47a20.37,20.37 0 0 1 3.57,-6.48a50.85,50.85 0 0 1 5.06,-5.31a7.1,7.1 0 0 1 1.01,-0.84z"/>
    <path id="svg_22" fill="#6c63ff" d="m880.89,494.98c3.05,1.57 0.47,5.89 -2.67,4.45c-0.82,-0.37 -1.62,-0.79 -2.39,-1.19c-9.33,-4.84 -20.17,-6.62 -30.83,-8c-2.62,-0.34 -5.41,-0.64 -7.83,0.4a53.15,53.15 0 0 1 20.41,-1.23a134.52,134.52 0 0 1 19.94,4.29a17.64,17.64 0 0 1 3.37,1.28z"/>
    <path id="svg_23" opacity="0.5" fill="#6c63ff" d="m872.16,511.79c2.2,2 -1.23,4.46 -3.53,2.49c-0.6,-0.51 -1.18,-1.05 -1.73,-1.57c-6.69,-6.28 -15.52,-10.75 -24.33,-14.86c-2.15,-1 -11.05,-2.05 -13.42,-2c6.2,0.55 18.86,2.49 24.49,5.05a136.55,136.55 0 0 1 16,9a17.1,17.1 0 0 1 2.52,1.89z"/>
    <path id="svg_24" fill="#6c63ff" d="m846.3,541.98c0.27,3 -3.9,2.51 -4.3,-0.5c-0.1,-0.78 -0.17,-1.57 -0.24,-2.32c-0.79,-9.14 -4.4,-18.36 -8.21,-27.3c-0.93,-2.19 -6.87,-8.89 -8.67,-10.44c4.25,4.55 12.39,14.44 14.88,20.11a136.24,136.24 0 0 1 5.92,17.33a16.73,16.73 0 0 1 0.62,3.12z"/>
    <path id="svg_25" fill="#6c63ff" d="m848.8,440.85a0.5,0.5 0 0 1 -0.26,0.08c-0.16,0 -0.28,-0.17 -0.35,-0.32c-0.37,-0.81 -0.16,-1.86 -0.73,-2.54a8.92,8.92 0 0 0 -1.4,2.33l-2.19,-0.67a3.23,3.23 0 0 0 0.42,2.51a3.4,3.4 0 0 0 -1,0.7a1.15,1.15 0 0 0 -0.27,1.16a5.8,5.8 0 0 0 1.55,0.16a10.32,10.32 0 0 0 0.17,2.88a0.51,0.51 0 0 0 0.19,0.36c0.16,0.11 0.37,0 0.53,-0.08a5.13,5.13 0 0 0 1.81,-1.92l0.81,2a0.91,0.91 0 0 0 0.36,0.49a0.6,0.6 0 0 0 0.69,-0.24a1.7,1.7 0 0 0 0.24,-0.74l0.31,-1.85a0.38,0.38 0 0 1 0.1,-0.26a0.46,0.46 0 0 1 0.32,-0.1c0.77,0 1.55,0 2.32,0c0.14,-0.41 -0.28,-0.79 -0.67,-1s-0.87,-0.3 -1.07,-0.69c-0.4,-0.78 0.65,-1.87 0.2,-2.55s-1.4,-0.04 -2.08,0.29z"/>
    <path id="svg_26" opacity="0.2" fill="#6c63ff" d="m855.42,531.19a0.48,0.48 0 0 1 -0.26,0.07c-0.17,0 -0.28,-0.17 -0.35,-0.32c-0.37,-0.81 -0.16,-1.86 -0.73,-2.54a8.56,8.56 0 0 0 -1.4,2.34l-2.19,-0.68a3.26,3.26 0 0 0 0.41,2.51a3.48,3.48 0 0 0 -1,0.7a1.15,1.15 0 0 0 -0.27,1.16a5.42,5.42 0 0 0 1.55,0.16a10.32,10.32 0 0 0 0.16,2.88a0.56,0.56 0 0 0 0.19,0.37c0.16,0.1 0.37,0 0.54,-0.09a5.18,5.18 0 0 0 1.8,-1.92l0.82,1.95a0.86,0.86 0 0 0 0.36,0.49a0.57,0.57 0 0 0 0.68,-0.24a1.71,1.71 0 0 0 0.25,-0.74l0.3,-1.85a0.55,0.55 0 0 1 0.1,-0.26a0.52,0.52 0 0 1 0.33,-0.1c0.77,0 1.55,0 2.32,0c0.13,-0.41 -0.28,-0.79 -0.67,-1s-0.87,-0.3 -1.07,-0.68c-0.4,-0.79 0.64,-1.88 0.2,-2.55s-1.39,0 -2.07,0.34z"/>
    <path id="svg_27" fill="#6c63ff" d="m874,470.64a0.51,0.51 0 0 1 -0.26,0.07c-0.17,0 -0.28,-0.17 -0.35,-0.32c-0.38,-0.81 -0.16,-1.86 -0.74,-2.54a8.78,8.78 0 0 0 -1.39,2.34l-2.2,-0.68a3.27,3.27 0 0 0 0.42,2.51a3.35,3.35 0 0 0 -1,0.7a1.15,1.15 0 0 0 -0.27,1.16a5.38,5.38 0 0 0 1.55,0.16a10.32,10.32 0 0 0 0.16,2.88a0.56,0.56 0 0 0 0.19,0.37a0.52,0.52 0 0 0 0.53,-0.09a5.13,5.13 0 0 0 1.81,-1.92l0.82,1.95a0.86,0.86 0 0 0 0.36,0.49a0.57,0.57 0 0 0 0.68,-0.24a1.58,1.58 0 0 0 0.24,-0.74l0.31,-1.85a0.38,0.38 0 0 1 0.1,-0.26a0.51,0.51 0 0 1 0.32,-0.1c0.78,0 1.55,0 2.33,0c0.13,-0.41 -0.28,-0.79 -0.68,-1s-0.86,-0.3 -1.06,-0.68c-0.41,-0.79 0.64,-1.88 0.2,-2.55s-1.39,0 -2.07,0.34z"/>
    <path id="svg_28" fill="#6c63ff" d="m799.69,540.25a0.75,0.75 0 0 1 -0.36,0.1c-0.23,0 -0.39,-0.23 -0.49,-0.44c-0.52,-1.13 -0.22,-2.6 -1,-3.55a12.24,12.24 0 0 0 -1.94,3.26l-3.06,-0.95a4.54,4.54 0 0 0 0.58,3.5a5,5 0 0 0 -1.44,1a1.61,1.61 0 0 0 -0.38,1.62a8.3,8.3 0 0 0 2.16,0.22a14.58,14.58 0 0 0 0.23,4a0.57,0.57 0 0 0 1,0.39a7.18,7.18 0 0 0 2.52,-2.67l1.13,2.72a1.25,1.25 0 0 0 0.51,0.68a0.83,0.83 0 0 0 1,-0.33a2.33,2.33 0 0 0 0.34,-1l0.42,-2.59a0.65,0.65 0 0 1 0.15,-0.36a0.59,0.59 0 0 1 0.45,-0.13c1.08,0 2.15,0 3.23,0c0.19,-0.58 -0.39,-1.11 -0.94,-1.35s-1.2,-0.43 -1.48,-1c-0.56,-1.09 0.89,-2.61 0.27,-3.55c-0.78,-1.13 -1.95,-0.04 -2.9,0.43z"/>
    <path id="svg_29" fill="#6c63ff" d="m768.77,472.44a0.66,0.66 0 0 1 -0.36,0.11c-0.23,0 -0.39,-0.23 -0.49,-0.44c-0.52,-1.13 -0.22,-2.6 -1,-3.55a12.08,12.08 0 0 0 -1.94,3.26l-3.06,-0.95a4.54,4.54 0 0 0 0.58,3.5a4.77,4.77 0 0 0 -1.44,1a1.59,1.59 0 0 0 -0.37,1.62a7.78,7.78 0 0 0 2.15,0.21a14.65,14.65 0 0 0 0.23,4a0.76,0.76 0 0 0 0.27,0.51a0.73,0.73 0 0 0 0.74,-0.12a7.18,7.18 0 0 0 2.52,-2.67l1.13,2.71a1.23,1.23 0 0 0 0.51,0.68a0.8,0.8 0 0 0 0.95,-0.33a2.29,2.29 0 0 0 0.34,-1l0.42,-2.58a0.71,0.71 0 0 1 0.15,-0.37a0.63,0.63 0 0 1 0.45,-0.12c1.08,0 2.15,0 3.23,0c0.19,-0.57 -0.38,-1.1 -0.94,-1.35s-1.2,-0.42 -1.48,-0.95c-0.56,-1.1 0.89,-2.62 0.28,-3.56s-1.92,-0.07 -2.87,0.39z"/>
    <path id="svg_30" opacity="0.2" fill="#6c63ff" d="m862.59,514.43a0.42,0.42 0 0 1 -0.19,0.06c-0.12,0 -0.21,-0.13 -0.26,-0.24c-0.27,-0.6 -0.11,-1.38 -0.54,-1.88a6.45,6.45 0 0 0 -1,1.73l-1.63,-0.5a2.44,2.44 0 0 0 0.31,1.86a2.24,2.24 0 0 0 -0.76,0.52a0.83,0.83 0 0 0 -0.2,0.85a4,4 0 0 0 1.14,0.12a7.26,7.26 0 0 0 0.13,2.13a0.38,0.38 0 0 0 0.14,0.27c0.11,0.08 0.27,0 0.39,-0.06a3.8,3.8 0 0 0 1.34,-1.42l0.6,1.44a0.62,0.62 0 0 0 0.27,0.36a0.42,0.42 0 0 0 0.51,-0.17a1.49,1.49 0 0 0 0.16,-0.52l0.22,-1.37a0.27,0.27 0 0 1 0.32,-0.26c0.57,0 1.14,0 1.71,0c0.1,-0.3 -0.2,-0.59 -0.49,-0.72s-0.65,-0.22 -0.79,-0.51c-0.3,-0.58 0.47,-1.38 0.14,-1.88s-1.01,-0.06 -1.52,0.19z"/>
    <path id="svg_31" opacity="0.2" fill="#6c63ff" d="m820.59,538.68a0.42,0.42 0 0 1 -0.19,0.06c-0.12,0 -0.21,-0.13 -0.26,-0.24c-0.27,-0.6 -0.11,-1.38 -0.54,-1.88a6.29,6.29 0 0 0 -1,1.73l-1.63,-0.51a2.43,2.43 0 0 0 0.31,1.86a2.56,2.56 0 0 0 -0.76,0.52a0.85,0.85 0 0 0 -0.2,0.86a4.38,4.38 0 0 0 1.14,0.12a7.26,7.26 0 0 0 0.13,2.13a0.41,0.41 0 0 0 0.13,0.27c0.12,0.08 0.28,0 0.4,-0.06a3.8,3.8 0 0 0 1.34,-1.42l0.6,1.44a0.62,0.62 0 0 0 0.27,0.36a0.43,0.43 0 0 0 0.51,-0.17a1.31,1.31 0 0 0 0.17,-0.55l0.23,-1.37a0.36,0.36 0 0 1 0.08,-0.2a0.32,0.32 0 0 1 0.24,-0.06c0.57,0 1.14,0 1.71,0c0.1,-0.31 -0.2,-0.59 -0.49,-0.72s-0.65,-0.22 -0.79,-0.51c-0.3,-0.58 0.47,-1.38 0.14,-1.88s-1.04,-0.03 -1.54,0.22z"/>
    <path id="svg_32" opacity="0.5" fill="#6c63ff" d="m780,453.81a0.34,0.34 0 0 1 -0.19,0.05c-0.13,0 -0.21,-0.12 -0.26,-0.23c-0.28,-0.6 -0.12,-1.38 -0.55,-1.89a6.6,6.6 0 0 0 -1,1.73l-1.62,-0.5a2.38,2.38 0 0 0 0.3,1.86a2.51,2.51 0 0 0 -0.76,0.52a0.84,0.84 0 0 0 -0.2,0.86a4,4 0 0 0 1.15,0.11a7.66,7.66 0 0 0 0.12,2.14a0.4,0.4 0 0 0 0.14,0.27a0.38,0.38 0 0 0 0.39,-0.07a3.78,3.78 0 0 0 1.34,-1.41l0.6,1.44a0.66,0.66 0 0 0 0.27,0.36a0.44,0.44 0 0 0 0.51,-0.18a1.24,1.24 0 0 0 0.18,-0.54l0.22,-1.38a0.36,0.36 0 0 1 0.08,-0.19a0.33,0.33 0 0 1 0.24,-0.07l1.72,0c0.09,-0.3 -0.21,-0.58 -0.5,-0.71s-0.64,-0.23 -0.79,-0.51c-0.3,-0.58 0.47,-1.39 0.15,-1.89s-1.09,-0.02 -1.54,0.23z"/>
    <path id="svg_33" opacity="0.5" fill="#6c63ff" d="m801.58,501.63a0.33,0.33 0 0 1 -0.19,0.06a0.35,0.35 0 0 1 -0.26,-0.23c-0.28,-0.6 -0.12,-1.38 -0.54,-1.89a6.38,6.38 0 0 0 -1,1.73l-1.62,-0.5a2.39,2.39 0 0 0 0.31,1.86a2.55,2.55 0 0 0 -0.77,0.52a0.86,0.86 0 0 0 -0.2,0.86a4,4 0 0 0 1.15,0.11a7.68,7.68 0 0 0 0.12,2.14a0.3,0.3 0 0 0 0.54,0.2a3.75,3.75 0 0 0 1.33,-1.41l0.61,1.44a0.66,0.66 0 0 0 0.27,0.36a0.43,0.43 0 0 0 0.5,-0.18a1.12,1.12 0 0 0 0.18,-0.54l0.23,-1.38a0.32,0.32 0 0 1 0.07,-0.19a0.34,0.34 0 0 1 0.24,-0.07c0.57,0 1.15,0 1.72,0c0.1,-0.3 -0.21,-0.58 -0.5,-0.71s-0.64,-0.23 -0.79,-0.51c-0.29,-0.58 0.48,-1.39 0.15,-1.89s-1.05,-0.02 -1.55,0.22z"/>
    <path id="svg_34" opacity="0.5" fill="#6c63ff" d="m785.88,482.98a0.42,0.42 0 0 1 -0.19,0.06c-0.12,0 -0.21,-0.13 -0.26,-0.24c-0.28,-0.6 -0.12,-1.38 -0.54,-1.88a6.09,6.09 0 0 0 -1,1.73l-1.62,-0.51a2.39,2.39 0 0 0 0.31,1.86a2.75,2.75 0 0 0 -0.77,0.52a0.87,0.87 0 0 0 -0.2,0.86a4.45,4.45 0 0 0 1.15,0.12a7.61,7.61 0 0 0 0.12,2.13a0.38,0.38 0 0 0 0.14,0.27c0.12,0.08 0.28,0 0.4,-0.06a3.78,3.78 0 0 0 1.33,-1.42l0.61,1.44a0.62,0.62 0 0 0 0.27,0.36a0.41,0.41 0 0 0 0.5,-0.17a1.32,1.32 0 0 0 0.18,-0.55l0.23,-1.37a0.35,0.35 0 0 1 0.07,-0.2a0.34,0.34 0 0 1 0.24,-0.06c0.57,0 1.15,0 1.72,0c0.1,-0.31 -0.21,-0.59 -0.5,-0.72s-0.64,-0.22 -0.79,-0.51c-0.3,-0.58 0.48,-1.38 0.15,-1.88s-1.05,-0.02 -1.55,0.22z"/>
    <path id="svg_35" opacity="0.5" fill="#6c63ff" d="m853.32,487.38a0.47,0.47 0 0 1 -0.19,0.06c-0.13,0 -0.21,-0.13 -0.26,-0.24c-0.28,-0.6 -0.12,-1.38 -0.55,-1.88a6.29,6.29 0 0 0 -1,1.73l-1.62,-0.51a2.38,2.38 0 0 0 0.3,1.86a2.7,2.7 0 0 0 -0.76,0.52a0.85,0.85 0 0 0 -0.2,0.86a4.41,4.41 0 0 0 1.15,0.12a7.61,7.61 0 0 0 0.12,2.13a0.38,0.38 0 0 0 0.14,0.27c0.12,0.08 0.27,0 0.39,-0.06a3.8,3.8 0 0 0 1.34,-1.42l0.6,1.44a0.62,0.62 0 0 0 0.27,0.36a0.42,0.42 0 0 0 0.51,-0.17a1.32,1.32 0 0 0 0.18,-0.55l0.22,-1.37a0.36,0.36 0 0 1 0.08,-0.2a0.32,0.32 0 0 1 0.24,-0.06c0.57,0 1.14,0 1.72,0c0.09,-0.31 -0.21,-0.59 -0.5,-0.72s-0.64,-0.22 -0.79,-0.51c-0.3,-0.58 0.47,-1.38 0.15,-1.88s-1.04,-0.03 -1.54,0.22z"/>
    <path id="svg_36" opacity="0.2" fill="#6c63ff" d="m820.59,483.71a0.42,0.42 0 0 1 -0.19,0.06c-0.12,0 -0.21,-0.13 -0.26,-0.24c-0.27,-0.6 -0.11,-1.38 -0.54,-1.88a6.45,6.45 0 0 0 -1,1.73l-1.63,-0.5a2.44,2.44 0 0 0 0.31,1.86a2.24,2.24 0 0 0 -0.76,0.52a0.83,0.83 0 0 0 -0.2,0.85a4,4 0 0 0 1.14,0.12a7.26,7.26 0 0 0 0.13,2.13a0.41,0.41 0 0 0 0.13,0.27c0.12,0.08 0.28,0 0.4,-0.06a3.8,3.8 0 0 0 1.34,-1.42l0.6,1.44a0.59,0.59 0 0 0 0.27,0.36a0.43,0.43 0 0 0 0.51,-0.17a1.31,1.31 0 0 0 0.17,-0.55l0.23,-1.37a0.27,0.27 0 0 1 0.32,-0.26c0.57,0 1.14,0 1.71,0c0.1,-0.3 -0.2,-0.59 -0.49,-0.72s-0.65,-0.22 -0.79,-0.51c-0.3,-0.58 0.47,-1.38 0.14,-1.88s-1.04,-0.03 -1.54,0.22z"/>
    <path id="svg_37" opacity="0.3" fill="#6c63ff" d="m810.33,488.18a0.51,0.51 0 0 1 -0.2,0.06c-0.12,0 -0.2,-0.13 -0.26,-0.24c-0.27,-0.6 -0.11,-1.38 -0.54,-1.89a6.5,6.5 0 0 0 -1,1.74l-1.63,-0.51a2.43,2.43 0 0 0 0.31,1.86a2.51,2.51 0 0 0 -0.76,0.52a0.84,0.84 0 0 0 -0.2,0.86a4.38,4.38 0 0 0 1.14,0.12a7.62,7.62 0 0 0 0.13,2.13a0.4,0.4 0 0 0 0.14,0.27c0.12,0.08 0.27,0 0.39,-0.06a3.8,3.8 0 0 0 1.34,-1.42l0.6,1.44a0.62,0.62 0 0 0 0.27,0.36a0.45,0.45 0 0 0 0.51,-0.17a1.49,1.49 0 0 0 0.18,-0.55l0.22,-1.37a0.36,0.36 0 0 1 0.08,-0.2a0.38,0.38 0 0 1 0.24,-0.07c0.57,0 1.14,0 1.72,0c0.09,-0.31 -0.21,-0.59 -0.5,-0.72s-0.64,-0.22 -0.79,-0.51c-0.3,-0.58 0.47,-1.39 0.14,-1.89s-1.03,0.04 -1.53,0.24z"/>
    <path id="svg_38" opacity="0.2" fill="#6c63ff" d="m800.75,461.14a0.42,0.42 0 0 1 -0.19,0.06a0.35,0.35 0 0 1 -0.26,-0.24c-0.27,-0.6 -0.11,-1.37 -0.54,-1.88a6.45,6.45 0 0 0 -1,1.73l-1.63,-0.5a2.44,2.44 0 0 0 0.31,1.86a2.39,2.39 0 0 0 -0.76,0.52a0.84,0.84 0 0 0 -0.2,0.86a4,4 0 0 0 1.14,0.11a7.26,7.26 0 0 0 0.13,2.13a0.43,0.43 0 0 0 0.13,0.28c0.12,0.07 0.28,0 0.4,-0.07a3.73,3.73 0 0 0 1.34,-1.42l0.6,1.45a0.66,0.66 0 0 0 0.27,0.36a0.45,0.45 0 0 0 0.51,-0.18a1.23,1.23 0 0 0 0.17,-0.54l0.23,-1.38a0.27,0.27 0 0 1 0.32,-0.26c0.57,0 1.14,0 1.71,0c0.1,-0.3 -0.2,-0.59 -0.49,-0.71s-0.65,-0.23 -0.79,-0.51c-0.3,-0.58 0.47,-1.39 0.14,-1.89s-1.04,-0.02 -1.54,0.22z"/>
    <path id="svg_39" opacity="0.3" fill="#6c63ff" d="m819.61,496.42a0.47,0.47 0 0 1 -0.19,0.06c-0.13,0 -0.21,-0.13 -0.26,-0.24c-0.28,-0.6 -0.12,-1.38 -0.55,-1.88a6.45,6.45 0 0 0 -1,1.73l-1.62,-0.5a2.44,2.44 0 0 0 0.3,1.86a2.45,2.45 0 0 0 -0.76,0.52a0.84,0.84 0 0 0 -0.2,0.86a4,4 0 0 0 1.15,0.11a7.61,7.61 0 0 0 0.12,2.13a0.36,0.36 0 0 0 0.14,0.27c0.12,0.08 0.27,0 0.39,-0.06a3.8,3.8 0 0 0 1.34,-1.42l0.6,1.44a0.59,0.59 0 0 0 0.27,0.36a0.42,0.42 0 0 0 0.51,-0.17a1.32,1.32 0 0 0 0.15,-0.51l0.22,-1.37a0.41,0.41 0 0 1 0.08,-0.19a0.33,0.33 0 0 1 0.24,-0.07c0.57,0 1.15,0 1.72,0c0.1,-0.3 -0.21,-0.59 -0.5,-0.72s-0.64,-0.22 -0.79,-0.5c-0.3,-0.59 0.48,-1.39 0.15,-1.89s-1.01,-0.07 -1.51,0.18z"/>
   </g>
   <path id="svg_55" fill="url(#fa286f9f-ed07-4920-80c0-c778f8df51be)" d="m824.28,481.42a11,11 0 0 0 -4.88,-2.15c-1.87,-0.43 -3.78,-0.7 -5.68,-1l-24.62,-3.55a29,29 0 0 0 -7.54,-0.4a9.57,9.57 0 0 0 -6.55,3.38a5.12,5.12 0 0 0 -1.14,3.21a8.45,8.45 0 0 0 1.12,3.31a11.82,11.82 0 0 1 0.61,1.48c0.35,1.1 0.42,2.28 0.88,3.35a3,3 0 0 0 0.42,0.65a1.21,1.21 0 0 1 0,0.18c-0.27,1.37 0.6,2.81 0.21,4.15c-0.34,1.13 -1.45,1.82 -2.15,2.77a4.19,4.19 0 0 0 -0.1,4.62c0.75,1.16 2.11,1.94 2.5,3.27c0.51,1.76 -0.87,3.44 -2.1,4.79a75.25,75.25 0 0 0 -6.26,7.89a5,5 0 0 0 -1,2.35c-0.11,1.74 1.56,3.28 1.27,5c-0.23,1.36 -1.56,2.2 -2.71,3c-4.25,2.81 -7.66,7.31 -8,12.39a43.33,43.33 0 0 0 -9.68,-22c-1.43,-1.73 -3,-3.45 -3.59,-5.64c-0.22,-0.87 -0.26,-1.79 -0.56,-2.63c-1,-2.66 -4.18,-3.79 -5.57,-6.24c-1,-1.71 -1,-3.93 -2.24,-5.43s-3.19,-1.86 -4.26,-3.32a20.71,20.71 0 0 1 -1.36,-3.08a6.69,6.69 0 0 0 -1.85,-2.21a5.48,5.48 0 0 0 -0.46,-0.34a1.59,1.59 0 0 0 0.53,-1.18c0,-1.17 -1.16,-1.94 -2.17,-2.51q-1.95,-1.12 -3.81,-2.37a8.94,8.94 0 0 0 3.41,-2.8a9.15,9.15 0 0 0 1.3,-6.05a7.57,7.57 0 0 0 -1.79,-4.59c-0.63,-0.66 -1.42,-1.15 -2.08,-1.78c-1.71,-1.66 -2.29,-4.14 -3,-6.42c-0.94,-3 -2.41,-6.14 -5.15,-7.74c-1.32,-0.76 -2.86,-1.12 -4.15,-1.93s-2.37,-2.35 -1.92,-3.82c0.3,-1 1.23,-1.68 1.86,-2.53a5.06,5.06 0 0 0 -1.27,-7c-0.74,-0.47 -1.65,-0.88 -1.8,-1.75a3.16,3.16 0 0 1 -2.32,-2.46a9.48,9.48 0 0 1 0,-3.56c0.26,-1.85 0.52,-3.71 0.77,-5.56a3.58,3.58 0 0 0 2.78,0a25.4,25.4 0 0 0 3,3.92a39.12,39.12 0 0 1 7,12.14c0.57,1.61 1.15,3.4 2.63,4.24c0.51,0.29 1.09,0.44 1.59,0.75a5.94,5.94 0 0 1 1.56,1.6l3.59,4.76l0.06,0.25a1.46,1.46 0 0 0 0.16,0.39a1.33,1.33 0 0 0 0.86,0.44c3.68,0.85 7.81,1.63 11,-0.37c2.88,-1.81 4.14,-5.36 6.58,-7.75c1.73,-1.69 4.18,-3 4.67,-5.37a17.77,17.77 0 0 1 -1.72,-0.64c0.5,-0.5 1,-1.07 1.68,-1.74a21.1,21.1 0 0 0 2.66,-3.16a20.85,20.85 0 0 0 2,-4.48q2.89,-8.25 5.8,-16.49c0.92,-2.61 1.84,-5.22 3,-7.75c1.2,-2.74 2.62,-5.38 3.93,-8.07a106.92,106.92 0 0 0 7.77,-21.8a8.11,8.11 0 0 0 0.31,-3.2c-0.28,-1.73 -1.59,-3.08 -2.84,-4.32a20.84,20.84 0 0 0 -4.26,-3.53a7,7 0 0 0 -5.34,-0.86c-2.56,0.76 -4.17,3.38 -4.76,6s-0.37,5.34 -0.62,8c-0.36,3.85 -1.68,7.56 -2,11.42c-0.17,2.24 0,4.5 -0.27,6.72a24.5,24.5 0 0 1 -3,8.29a53.56,53.56 0 0 1 -12.93,15.93c-0.61,0.52 -1.24,1 -1.84,1.56c0,-0.44 0.07,-0.87 0.13,-1.3a7.85,7.85 0 0 0 -1.27,0.44a3.74,3.74 0 0 0 -0.15,-1.49c-0.8,-2.39 -4.36,-3 -5,-5.44a11,11 0 0 1 -0.17,-1.82c-0.21,-2.13 -1.66,-3.93 -2.16,-6s-0.11,-4 -1,-5.78a16.45,16.45 0 0 0 -2.66,-3a11.77,11.77 0 0 1 -2.53,-4.77c-0.13,-0.49 -0.25,-1 -0.39,-1.49a6.77,6.77 0 0 0 -0.36,-3.28c-0.91,-2.27 -3.26,-3.72 -4.11,-6c-0.66,-1.77 -0.37,-4 -1.62,-5.38a5.73,5.73 0 0 0 -2.37,-1.42a52,52 0 0 0 -14.27,-3.34c-2.74,-0.25 -5.76,-0.4 -7.72,-2.32c-2.29,-2.24 -2.4,-6.27 -5.08,-8c-2.36,-1.53 -5.7,-0.39 -7.53,1.75a9.53,9.53 0 0 0 -0.76,1a10.66,10.66 0 0 1 -0.21,-4.09c0,-0.35 0.07,-0.7 0.1,-1a20,20 0 0 0 10.84,-8.52l0,0.05l0.12,0.31c0.29,0.73 0.75,1.44 1.43,1.51l0,0a1.92,1.92 0 0 0 1.24,-0.45a9.8,9.8 0 0 0 1.66,-1.44c0.25,-0.27 0.49,-0.56 0.72,-0.86a12.06,12.06 0 0 0 2.22,-5.31c0.18,-1.16 0.2,-2.36 0.4,-3.51a21.76,21.76 0 0 1 0.73,-2.66c0.1,-0.29 0.2,-0.58 0.29,-0.87s0.22,-0.68 0.32,-1a23.11,23.11 0 0 0 1,-6.34q0,-0.54 0,-1.08a10.57,10.57 0 0 0 -3.36,-7.45c-1.72,-1.4 -4,-2 -5.26,-3.9c-0.82,-1.29 -1,-2.94 -1.48,-4.43a10,10 0 0 0 -7.86,-7.08a8.71,8.71 0 0 0 -6.22,1.72l0,0l-0.14,0.1l0,0a10,10 0 0 0 -2.48,2.76a8.25,8.25 0 0 1 -3.52,-2c-1,-0.93 -1.77,-2.1 -2.78,-3a7.15,7.15 0 0 0 -7.12,-1.5a8.51,8.51 0 0 0 -5.09,5.83c-0.55,2.07 -0.45,4.43 -1.6,6.16c-0.89,1.33 -2.35,2 -3.37,3.22a6,6 0 0 0 -1.26,2.67l0,0a7.09,7.09 0 0 0 -0.17,1.66l0,0c0,0.24 0,0.49 0.06,0.74c0,0 0,0.08 0,0.11a5.68,5.68 0 0 0 0.17,0.82l0,0a7,7 0 0 0 1.49,2.74a6.67,6.67 0 0 0 2.41,1.73a9.76,9.76 0 0 0 1.16,0.37l1.19,0.27l0.42,0.1a20,20 0 0 0 -0.56,17.62c0,0.27 -0.07,0.55 -0.1,0.83a69.33,69.33 0 0 0 0.52,11.8c0.14,1.54 0.22,3.26 -0.73,4.48a8.58,8.58 0 0 1 -1.45,1.3c0.54,-0.7 1.09,-1.4 1.65,-2.09c-1.41,-1.42 -3.64,-1.6 -5.64,-1.45a25.85,25.85 0 0 0 -11,3.36c-2.24,1.28 -4.54,3 -7.1,2.69c-1.51,-0.16 -3,-1 -4.47,-0.6a9.06,9.06 0 0 0 -2.29,1.36a3.17,3.17 0 0 1 -1.88,0.59c-1.57,-1.94 -4,-3.25 -5.88,-4.82a45.74,45.74 0 0 1 -5.85,-6.27c-3.24,-3.9 -6.47,-7.82 -9.65,-11.77c-2.68,-3.32 -5.43,-6.92 -5.9,-11.17a10.64,10.64 0 0 1 -0.07,-1.26a32.41,32.41 0 0 1 0.76,-6a2.93,2.93 0 0 0 0,-1.44c-0.3,-1 -1.45,-1.38 -2.44,-1.6l0,0a23,23 0 0 0 0.27,-2.31c0.56,-8.6 -0.05,-17.34 1.77,-25.76c0.69,-3.23 1.82,-6.52 4.15,-8.87c3.65,-3.68 9.76,-4.57 12.56,-9c2.34,-3.64 1.41,-8.79 -1.53,-12s-7.47,-4.52 -11.78,-4.36a6.17,6.17 0 0 0 -3.43,0.93a7.26,7.26 0 0 0 -2.08,3.15l-4.33,10.37a63.08,63.08 0 0 0 -3.14,8.38c-1.2,4.39 -1.47,9 -2.42,13.42c0,3.4 -2.19,7.64 -3.39,10.77c-1.34,3.53 -2.79,7 -4,10.59c-0.3,0.91 -1.35,3.58 -2,6a3.6,3.6 0 0 0 -0.68,0.5a18.09,18.09 0 0 0 -1.42,2.11c-0.91,1.21 -2.39,1.85 -3.39,3s-1.21,3.29 0.18,3.87a4.08,4.08 0 0 0 0.87,0.19a3.38,3.38 0 0 1 0.54,0.09c1.5,0.42 2.09,2.32 1.87,3.87s-1,3 -1.13,4.56c-0.27,2.77 1.35,5.33 2.91,7.65a66.06,66.06 0 0 0 5.34,7.2c1.41,1.57 3,3 4.42,4.52c5.41,5.55 9.71,12.06 14.57,18.09a40.2,40.2 0 0 0 5.93,6.23a46.28,46.28 0 0 0 4.49,3.08c2.78,1.78 5.57,3.54 8.36,5.31a9.14,9.14 0 0 0 3.16,1.48a3.83,3.83 0 0 0 1.12,0c0.05,0.24 0.09,0.49 0.15,0.73c0.65,2.62 2.08,5 2.24,7.67s-0.08,5.41 0.11,8.1c0.18,2.5 0.73,5 0.87,7.46c0.28,4.71 -0.88,9.38 -2,14c-1.69,6.75 -2.71,13.66 -6,19.78c-0.92,1.69 -2,3.42 -2,5.34c0,0.24 0,0.47 0.06,0.7l0,0l-1.5,0.84c-0.44,0.26 -0.88,0.51 -1.28,0.77c-1.9,1.23 -3.93,2.6 -4.71,4.74c-0.63,1.73 -0.34,3.72 -1.1,5.39a1.55,1.55 0 0 1 -0.12,0.22c-0.8,1.56 -2.39,2.72 -2.75,4.43l0,0c-0.27,1.32 0.25,2.7 0,4c0,0 0,0 0,0.05a14.84,14.84 0 0 0 -0.54,2a2.39,2.39 0 0 0 0.06,0.66a3.77,3.77 0 0 0 1.2,1.95a8,8 0 0 0 1.17,0.93c0.43,0.28 0.87,0.54 1.32,0.79l0.26,0.14c0.38,0.2 0.76,0.38 1.15,0.56l0.26,0.12c0.45,0.19 0.91,0.37 1.37,0.53l0.32,0.1c0.36,0.12 0.73,0.23 1.1,0.33l0.25,0.07l0.23,0.05l1,0.21l0.37,0.07q0.66,0.12 1.35,0.18c0.13,0 0.27,0 0.4,0c0.34,0 0.67,0.05 1,0.06l0.47,0c0.35,0 0.69,0 1,0l0.36,0c0.47,0 0.94,-0.07 1.41,-0.13l0.15,0c0.42,-0.06 0.84,-0.13 1.26,-0.22l0.32,-0.07c0.39,-0.08 0.78,-0.18 1.17,-0.29l0.21,-0.06c0.47,-0.14 0.94,-0.3 1.4,-0.47a38.15,38.15 0 0 0 4.62,-2.29c1,-0.56 2,-1.12 3,-1.63a23.22,23.22 0 0 1 2.28,-1a12.75,12.75 0 0 1 6,-1a23.54,23.54 0 0 1 3,0.62a3.06,3.06 0 0 1 0,0.32q1.22,7.22 2.41,14.41a28.4,28.4 0 0 1 4.14,-2.49a9.14,9.14 0 0 0 -0.53,2.24a9,9 0 0 0 0,1.8c0.09,0.94 0.29,2 -0.28,2.74c-0.35,0.47 -1,0.73 -1.19,1.25a4.18,4.18 0 0 0 -0.1,1.62a2.61,2.61 0 0 1 -2.38,2.43a3.81,3.81 0 0 1 -1.51,4.46a5.62,5.62 0 0 0 -1.16,0.75a3.46,3.46 0 0 0 -0.67,1.51a26.67,26.67 0 0 1 -7.83,12.87a25.64,25.64 0 0 0 -3.87,3.78a17.76,17.76 0 0 0 -1.75,3.45q-4,9.79 -8.12,19.58c-1.52,3.65 -3,7.36 -3.48,11.29c-1.2,10.77 -10.8,19.91 -9,30.61a15.07,15.07 0 0 0 3.12,7.32c2,2.4 5,3.79 8,4.91c7.71,3 15.84,4.63 23.94,6.28l12.72,2.61a55.6,55.6 0 0 0 7.58,1.2c3.07,0.21 6.22,-0.08 9.21,0.7c1.85,0.49 3.62,1.38 5.53,1.48c1.64,0.09 3.66,-0.26 4.63,1.07s0.22,3.12 1.14,4.3c1.48,1.9 5.09,0 6.7,1.79a8.22,8.22 0 0 1 1,2.2a4,4 0 0 0 1,1.26a8.54,8.54 0 0 1 0.12,1.72a29.52,29.52 0 0 1 -1.44,6.81q-1.8,6.09 -3.59,12.19a27.25,27.25 0 0 0 -1,4.4a10.59,10.59 0 0 0 0,2.18c0.21,2.21 1.48,4.49 3.59,5.21a6.58,6.58 0 0 0 4.86,-0.6a21,21 0 0 0 4,-2.7a27.31,27.31 0 0 0 5.77,-5.94c5,-7.48 3.38,-17.59 6.89,-25.86c2.33,-5.53 6.87,-10 8.38,-15.83a6.32,6.32 0 0 0 0.12,-3.42c-0.63,-2 -2.76,-3.14 -4.75,-3.86l-0.09,0a39.25,39.25 0 0 0 -5,-1.42c-0.42,-0.09 -0.85,-0.17 -1.28,-0.23a8,8 0 0 1 -2.21,-2.89a6.63,6.63 0 0 0 -0.47,-1.72a1.81,1.81 0 0 0 -1.44,-0.81c-1,-0.1 -2.34,0.27 -3.43,0.19c-2.23,-0.17 -3.71,-2.36 -5.71,-3.36s-4.17,-0.76 -6.3,-0.61a5.83,5.83 0 0 1 -2.28,-0.14a8.83,8.83 0 0 1 -2.4,-1.66a10.06,10.06 0 0 0 -8.81,-1.76a9.58,9.58 0 0 1 -3,0.67c-1.95,-0.1 -3.33,-1.85 -4.77,-3.17c-3.94,-3.61 -9.55,-4.56 -14.33,-6.93a3.27,3.27 0 0 1 -1.72,-1.48c-0.55,-1.35 0.69,-2.72 1.81,-3.65l8.22,-6.82c9,-7.48 20.25,-13.12 24.43,-24.08a13.7,13.7 0 0 1 2,-4.11a5.58,5.58 0 0 1 1.11,-1a8.36,8.36 0 0 1 6.15,-1.21a21,21 0 0 1 7.24,3.16c3.58,2.18 7.06,4.49 10.45,7a89.94,89.94 0 0 1 9.55,7.83c5.25,5 9.62,10.92 14.51,16.31s10.48,10.42 17.27,13s15,2.46 20.83,-1.87c6.73,-5 8.89,-13.93 10.59,-22.13c3.75,-3.63 4.88,-9.13 6.71,-14c1.15,-3.08 2.62,-6 3.86,-9.08c1.48,-3.62 2.64,-7.35 3.8,-11.08a53.33,53.33 0 0 0 2.66,-11.57c0.48,-6.24 -1.19,-12.86 0.56,-18.72c2.31,-0.51 4.41,-1.81 6.68,-2.56c3.38,-1.12 7,-0.94 10.58,-0.91l0.23,0a5.47,5.47 0 0 0 3.52,-0.84c1.2,-1 1.39,-2.7 1.45,-4.26c0.14,-3.78 -0.1,-8.08 -2.97,-10.55zm-144.89,-170.59a7.43,7.43 0 0 1 -2.53,0.18l2.53,-0.18z"/>
   <path id="svg_56" fill="#be6f72" d="m683.33,374.1a11,11 0 0 1 -4.16,2.21l-7.09,2.54c-3.85,1.38 -7.87,2.77 -11.93,2.27c-2.27,-0.28 -12,-1.71 -13.47,-3.48c-2.24,-2.74 5.61,-6.77 8.29,-9.08a11.34,11.34 0 0 0 1.68,-1.48c1,-1.22 0.87,-2.93 0.73,-4.47a69,69 0 0 1 -0.52,-11.77a23.72,23.72 0 0 1 0.4,-2.79c1,-4.6 5.28,-2.92 8.66,-1.7a67.71,67.71 0 0 1 11.75,5.09a8.43,8.43 0 0 1 2.9,2.46c1.48,2.24 0.89,5.18 0.65,8c-0.21,2.19 -0.2,4.29 1.17,5.88a15.14,15.14 0 0 1 1.89,2a3.75,3.75 0 0 1 -0.95,4.32z"/>
   <path id="svg_57" fill="#be6f72" d="m585.39,302.03c1,-4.44 1.22,-9 2.42,-13.39a62.82,62.82 0 0 1 3.19,-8.36l4.36,-10.3a7.23,7.23 0 0 1 2.08,-3.14a6.17,6.17 0 0 1 3.43,-0.93c4.31,-0.16 8.84,1.19 11.78,4.35s3.87,8.31 1.53,11.94c-2.8,4.36 -8.91,5.25 -12.56,8.93c-2.33,2.34 -3.46,5.61 -4.15,8.84c-1.82,8.4 -1.21,17.12 -1.77,25.7c-0.18,2.66 -0.7,5.71 -3,7.1a8.85,8.85 0 0 1 -4.48,0.87l-6.56,0.1c-1.1,0 -5.09,0.69 -5.82,-0.13c-1.28,-1.46 1.64,-8.67 2.17,-10.28c1.18,-3.58 2.63,-7.05 4,-10.57c1.19,-3.11 3.38,-7.34 3.38,-10.73z"/>
   <path id="svg_58" fill="#3f3d56" d="m720.84,616.19c-1.51,5.78 -6.05,10.28 -8.38,15.79c-3.51,8.25 -1.93,18.34 -6.89,25.8a27.26,27.26 0 0 1 -5.77,5.93a21.43,21.43 0 0 1 -4,2.69a6.58,6.58 0 0 1 -4.86,0.6c-2.11,-0.72 -3.38,-3 -3.59,-5.2a10.49,10.49 0 0 1 0,-2.17a26.89,26.89 0 0 1 1,-4.39q1.8,-6.08 3.59,-12.16a29.44,29.44 0 0 0 1.44,-6.8c0.13,-2.52 -1.47,-5.8 -0.79,-8.15c0.31,-1.06 1.47,-2 2,-2.89a16.73,16.73 0 0 0 1.72,-4.09c0.82,-2.79 1.38,-5.77 3.1,-8.12a19.06,19.06 0 0 1 3.9,-3.65a10.34,10.34 0 0 1 3.72,-2.09a9.11,9.11 0 0 1 4,0.19a39.25,39.25 0 0 1 5,1.42l0.09,0c2,0.72 4.12,1.83 4.75,3.85a6.29,6.29 0 0 1 -0.03,3.44z"/>
   <path id="svg_59" fill="#3f3d56" d="m827.24,493.25c-0.06,1.55 -0.25,3.28 -1.45,4.25a5.46,5.46 0 0 1 -3.52,0.83l-0.27,0c-3.57,0 -7.2,-0.2 -10.58,0.91c-2.57,0.85 -4.93,2.41 -7.61,2.72c-3.69,0.42 -7.16,-1.6 -10.43,-3.36a103.75,103.75 0 0 0 -9.47,-4.5c-2.12,-0.87 -6.45,-1.43 -7.47,-3.75a34.14,34.14 0 0 1 -0.88,-3.34a11.1,11.1 0 0 0 -0.61,-1.47a8.45,8.45 0 0 1 -1.12,-3.31a5.11,5.11 0 0 1 1.14,-3.2a9.59,9.59 0 0 1 6.55,-3.37a29,29 0 0 1 7.54,0.4l24.62,3.54c1.9,0.27 3.81,0.54 5.68,1a11.14,11.14 0 0 1 4.88,2.14c2.91,2.44 3.15,6.73 3,10.51z"/>
   <path id="svg_60" fill="#65617d" d="m805.6,499.65c-3,6.33 -0.84,13.82 -1.38,20.82a53.07,53.07 0 0 1 -2.66,11.51c-1.16,3.72 -2.32,7.45 -3.8,11.06c-1.24,3 -2.71,6 -3.86,9.06c-1.83,4.88 -3,10.37 -6.71,14c-1.7,8.18 -3.86,17.12 -10.59,22.08c-5.85,4.32 -14,4.47 -20.83,1.86s-12.38,-7.61 -17.27,-13s-9.26,-11.24 -14.5,-16.26a91,91 0 0 0 -9.57,-7.83q-5.09,-3.69 -10.43,-6.97a20.93,20.93 0 0 0 -7.24,-3.15a8.4,8.4 0 0 0 -6.15,1.2a5.58,5.58 0 0 0 -1.11,1a13.76,13.76 0 0 0 -2,4.1c-4.18,10.94 -15.41,16.56 -24.43,24l-8.27,6.85c-1.12,0.93 -2.36,2.29 -1.81,3.64a3.27,3.27 0 0 0 1.72,1.48c4.78,2.36 10.39,3.31 14.33,6.91c1.44,1.32 2.82,3.06 4.77,3.16a9.58,9.58 0 0 0 3,-0.67a10.09,10.09 0 0 1 8.81,1.76a8.57,8.57 0 0 0 2.38,1.72a5.83,5.83 0 0 0 2.28,0.14c2.13,-0.15 4.39,-0.34 6.3,0.61s3.48,3.19 5.71,3.35c1.09,0.08 2.39,-0.28 3.43,-0.18a1.8,1.8 0 0 1 1.44,0.8a6.63,6.63 0 0 1 0.47,1.72c0.41,1.41 1.79,2.27 2.69,3.43c1.38,1.78 1.58,4.2 1.44,6.45a27.52,27.52 0 0 1 -8.76,18.37a10.84,10.84 0 0 1 -5.39,3a5,5 0 0 1 -5.34,-2.37a8.22,8.22 0 0 0 -1,-2.2c-1.61,-1.77 -5.22,0.11 -6.7,-1.78c-0.92,-1.18 -0.26,-3.07 -1.14,-4.29s-3,-1 -4.63,-1.07c-1.91,-0.1 -3.68,-1 -5.53,-1.47c-3,-0.78 -6.14,-0.49 -9.21,-0.7a55.6,55.6 0 0 1 -7.58,-1.2l-12.75,-2.61c-8.1,-1.65 -16.23,-3.32 -23.94,-6.27c-2.95,-1.12 -5.92,-2.5 -8,-4.9a15,15 0 0 1 -3.12,-7.3c-1.81,-10.67 7.79,-19.79 9,-30.54c0.43,-3.92 2,-7.62 3.48,-11.26q4.07,-9.76 8.12,-19.53a17.4,17.4 0 0 1 1.75,-3.44a25.11,25.11 0 0 1 3.87,-3.77a26.63,26.63 0 0 0 7.83,-12.84a3.46,3.46 0 0 1 0.67,-1.51a5.62,5.62 0 0 1 1.16,-0.75a3.8,3.8 0 0 0 1.51,-4.45a2.6,2.6 0 0 0 2.38,-2.42a4.18,4.18 0 0 1 0.1,-1.62c0.24,-0.52 0.84,-0.78 1.19,-1.24c0.57,-0.75 0.37,-1.8 0.28,-2.74a8.92,8.92 0 0 1 0,-1.79a9.19,9.19 0 0 1 2.68,-5.59c2.39,-2.35 5.79,-1.74 9.09,-2.3a52.07,52.07 0 0 0 9.6,-3.07a94.31,94.31 0 0 1 27.11,-6.27a59.19,59.19 0 0 1 27.33,4.37a15.57,15.57 0 0 1 3.53,2a6.69,6.69 0 0 1 1.85,2.21a20.6,20.6 0 0 0 1.36,3.07c1.07,1.46 3.09,1.93 4.26,3.31s1.27,3.71 2.24,5.42c1.39,2.44 4.61,3.57 5.57,6.22c0.3,0.84 0.34,1.76 0.56,2.63c0.54,2.18 2.16,3.9 3.59,5.62a43.21,43.21 0 0 1 9.68,22c0.32,-5.07 3.73,-9.56 8,-12.36c1.15,-0.75 2.48,-1.58 2.71,-2.94c0.29,-1.72 -1.38,-3.25 -1.27,-5a4.9,4.9 0 0 1 1,-2.34a74,74 0 0 1 6.26,-7.87c1.23,-1.35 2.61,-3 2.1,-4.78c-0.39,-1.33 -1.75,-2.11 -2.5,-3.27a4.16,4.16 0 0 1 0.1,-4.6c0.7,-0.95 1.81,-1.64 2.15,-2.77c0.39,-1.33 -0.48,-2.77 -0.21,-4.14a5.12,5.12 0 0 1 2.06,-2.67a17.13,17.13 0 0 1 4.47,-2.94c2.64,-1 5.58,-0.63 8.38,-0.24c4.68,0.65 9.93,1.65 12.57,5.57c1.72,2.43 2.58,6.15 1.32,8.77z"/>
   <path id="svg_61" opacity="0.1" d="m827.24,493.25c-0.06,1.55 -0.25,3.28 -1.45,4.25a5.46,5.46 0 0 1 -3.52,0.83l-0.27,0c0.41,-2.08 2.94,-3.27 3.38,-5.38a4.76,4.76 0 0 0 -1.1,-3.63c-2.14,-2.89 -5.58,-4.49 -9,-5.66a59.62,59.62 0 0 0 -30.06,-2.25a30.27,30.27 0 0 0 -7.9,2.43a25.74,25.74 0 0 0 -2.4,1.7a8.45,8.45 0 0 1 -1.12,-3.31a5.11,5.11 0 0 1 1.14,-3.2a9.59,9.59 0 0 1 6.55,-3.37a29,29 0 0 1 7.54,0.4l24.62,3.54c1.9,0.27 3.81,0.54 5.68,1a11.14,11.14 0 0 1 4.88,2.14c2.94,2.44 3.18,6.73 3.03,10.51z"/>
   <path id="svg_62" opacity="0.1" d="m720.84,616.19c-1.51,5.78 -6.05,10.28 -8.38,15.79c-3.51,8.25 -1.93,18.34 -6.89,25.8a27.26,27.26 0 0 1 -5.77,5.93a21.43,21.43 0 0 1 -4,2.69a6.58,6.58 0 0 1 -4.86,0.6c-2.11,-0.72 -3.38,-3 -3.59,-5.2a10.49,10.49 0 0 1 0,-2.17l0.06,0.16c0.87,2.1 2.29,4.3 4.53,4.67a6.13,6.13 0 0 0 4.62,-1.63c3.3,-2.65 5.22,-6.6 7.05,-10.41a43.3,43.3 0 0 0 3.38,-8.63c0.4,-1.7 0.59,-3.44 1,-5.14c1.9,-8.26 8.37,-15 9.8,-23.37a5.72,5.72 0 0 0 0.08,-1.75a8.84,8.84 0 0 0 -0.86,-2.18a10.8,10.8 0 0 1 -0.76,-2.42c2,0.72 4.12,1.83 4.75,3.85a6.29,6.29 0 0 1 -0.16,3.41z"/>
   <path id="svg_63" opacity="0.1" d="m705.74,601.85a14.49,14.49 0 0 1 -4.51,6.16a22,22 0 0 1 -9.71,4.2a9.66,9.66 0 0 1 -5,-0.06c-2.22,-0.77 -3.82,-2.85 -6.09,-3.45c-1.62,-0.44 -3.36,-0.05 -5,-0.29c-2.95,-0.41 -5.24,-2.66 -7.62,-4.46c-7.29,-5.48 -16.86,-7.25 -24.15,-12.73a2.24,2.24 0 0 1 -0.78,-0.81a2.41,2.41 0 0 1 -0.15,-1.13a23,23 0 0 1 2.19,-9.61a33.53,33.53 0 0 1 4.12,-5.87c6.53,-8 13.09,-16.06 20.91,-22.81c3.28,-2.83 6.86,-5.47 11,-6.75c2.3,-0.71 6.84,-1.38 9.64,-0.18a5.58,5.58 0 0 0 -1.11,1a13.76,13.76 0 0 0 -2,4.1c-4.18,10.94 -15.41,16.56 -24.43,24l-8.25,6.82c-1.12,0.93 -2.36,2.29 -1.81,3.64a3.27,3.27 0 0 0 1.72,1.48c4.78,2.36 10.39,3.31 14.33,6.91c1.44,1.32 2.82,3.06 4.77,3.16a9.58,9.58 0 0 0 3,-0.67a10.09,10.09 0 0 1 8.81,1.76a8.57,8.57 0 0 0 2.38,1.72a5.83,5.83 0 0 0 2.28,0.14c2.13,-0.15 4.39,-0.34 6.3,0.61s3.48,3.19 5.71,3.35c1.11,0.03 2.41,-0.33 3.45,-0.23z"/>
   <path id="svg_64" fill="#3f3d56" d="m613.77,466.12c-1.9,1.23 -3.92,2.6 -4.7,4.73c-0.64,1.72 -0.34,3.71 -1.11,5.38s-2.5,2.85 -2.88,4.65c-0.27,1.31 0.26,2.69 0,4a16.62,16.62 0 0 0 -0.55,2.07c-0.1,1.5 1.18,2.71 2.43,3.53a20.3,20.3 0 0 0 18.17,1.95c2.67,-1 5.08,-2.62 7.64,-3.91a15.2,15.2 0 0 1 8.23,-2c1.65,0.18 3.23,0.79 4.88,1a5.08,5.08 0 0 0 4.57,-1.35a5.8,5.8 0 0 0 1,-2.38c1.39,-5.49 0.76,-11.31 -0.56,-16.82s-3.32,-10.84 -4.73,-16.33c-1,-4.06 -1.77,-8.24 -3.44,-12.09s-4.48,-7.43 -8.41,-8.9a1.5,1.5 0 0 0 -1,-0.12a1.6,1.6 0 0 0 -0.65,0.48a30.64,30.64 0 0 0 -6.86,11.53c-1.57,4.79 -2,9.87 -3.44,14.69c-0.62,2 -1.42,4.68 -3,6.2s-3.8,2.55 -5.59,3.69z"/>
   <path id="svg_65" opacity="0.1" d="m651.48,483.83a5.83,5.83 0 0 1 -1.05,2.37a5.07,5.07 0 0 1 -4.57,1.35c-1.64,-0.2 -3.22,-0.81 -4.87,-1a15.08,15.08 0 0 0 -8.23,2c-2.56,1.28 -5,2.87 -7.65,3.9a20.19,20.19 0 0 1 -12.13,0.69a19.57,19.57 0 0 1 -6,-2.64c-1.26,-0.82 -2.53,-2 -2.43,-3.53a17.09,17.09 0 0 1 0.55,-2.07c0.26,-1.31 -0.26,-2.69 0,-4c0.38,-1.8 2.12,-3 2.88,-4.66s0.47,-3.65 1.1,-5.38c0.78,-2.13 2.81,-3.5 4.71,-4.73s4.16,-2.17 5.68,-3.66a5.64,5.64 0 0 0 0.59,-0.69a18,18 0 0 0 2.38,-5.51c1.47,-4.82 1.87,-9.89 3.43,-14.69a30.81,30.81 0 0 1 6.87,-11.53a1.51,1.51 0 0 1 0.64,-0.48a1.6,1.6 0 0 1 1,0.12c3.92,1.48 6.73,5.06 8.41,8.91s2.39,8 3.44,12.08c1.4,5.49 3.41,10.82 4.73,16.33s1.91,11.32 0.52,16.82z"/>
   <path id="svg_66" opacity="0.1" d="m681.22,361.87a20,20 0 0 1 -24.36,-11a23.72,23.72 0 0 1 0.4,-2.79c1,-4.6 5.28,-2.92 8.66,-1.7a67.71,67.71 0 0 1 11.75,5.09a8.43,8.43 0 0 1 2.9,2.46c1.48,2.21 0.89,5.15 0.65,7.94z"/>
   <circle id="svg_67" fill="#be6f72" r="20" cy="341.8" cx="674.18"/>
   <path id="svg_68" opacity="0.1" d="m729.45,491.27c0,1.66 -2.25,2.19 -3.92,2.1c-6,-0.35 -11.87,-2 -17.81,-1.5c-7.51,0.68 -14.41,4.83 -21.94,5.21c-2.9,0.15 -5.85,-0.28 -8.71,0.25c-3.7,0.69 -7,2.94 -10.77,3.26c-3.27,0.28 -6.5,-0.95 -9.77,-0.82a15.7,15.7 0 0 0 -6.49,1.86a9.19,9.19 0 0 1 2.68,-5.59c2.39,-2.35 5.79,-1.74 9.09,-2.3a52.07,52.07 0 0 0 9.6,-3.07a94.31,94.31 0 0 1 27.11,-6.27a59.19,59.19 0 0 1 27.33,4.37a15.57,15.57 0 0 1 3.53,2a1.57,1.57 0 0 1 0.07,0.5z"/>
   <path id="svg_69" fill="#e3e8f4" d="m665.93,378.32l-8.1,-3l-3.42,-1.25a16.55,16.55 0 0 0 -4.36,-1.17c-3.92,-0.3 -7.61,2.31 -9.7,5.64s-2.88,7.3 -3.55,11.18q-1.38,7.94 -2.34,15.94a104.1,104.1 0 0 0 -1.05,14.53c0.23,12.39 2.85,24.6 5.73,36.65a128.73,128.73 0 0 1 3.19,16.24c0.24,2.26 0.35,4.54 0.59,6.8c0.26,2.55 0.68,5.08 1.1,7.6l2.41,14.37c3,-2.13 6.41,-4 10.1,-4.11c3.27,-0.12 6.51,1.1 9.77,0.83c3.75,-0.32 7.07,-2.57 10.77,-3.26c2.86,-0.53 5.81,-0.11 8.72,-0.25c7.52,-0.38 14.43,-4.53 21.93,-5.21c5.95,-0.53 11.86,1.15 17.82,1.49c1.66,0.1 3.91,-0.43 3.91,-2.1c0,-1.16 -1.16,-1.93 -2.17,-2.5a109,109 0 0 1 -13.55,-9.67c-3.94,-3.12 -7.94,-6.32 -10.65,-10.54c-6.53,-10.15 -4.29,-23.89 -9.86,-34.59c-4.53,-8.71 0,-20.11 0,-29.91c0,-4.89 0,-9.84 -1.15,-14.6a61.89,61.89 0 0 0 -2.68,-7.8l-3.89,-9.85a1.61,1.61 0 0 0 -0.46,-0.75a1.53,1.53 0 0 0 -0.89,-0.26a9.38,9.38 0 0 0 -6.46,2.06c-1.83,1.49 -3,3.63 -4.8,5.19c-1.97,1.74 -4.51,3.2 -6.96,2.3z"/>
   <path id="svg_70" fill="#ff7f00" d="m679,372.65c0.64,-2.74 1.33,-5.6 3.16,-7.74s5.17,-3.27 7.53,-1.74c2.68,1.74 2.79,5.76 5.08,8c2,1.92 5,2.06 7.72,2.31a52.35,52.35 0 0 1 14.27,3.36a5.83,5.83 0 0 1 2.37,1.42c1.25,1.42 1,3.6 1.62,5.37c0.85,2.28 3.2,3.73 4.11,6c1,2.52 0,5.34 -0.84,7.93c-1.51,4.66 -2.46,9.49 -3.93,14.16s-3.56,9.27 -7,12.78c-1.52,1.57 -3.78,3 -5.78,2.08l-0.77,5.54a9.43,9.43 0 0 0 0,3.55a3.16,3.16 0 0 0 2.32,2.46c0.15,0.86 1.06,1.27 1.8,1.74a5,5 0 0 1 1.27,7c-0.63,0.85 -1.56,1.52 -1.86,2.53c-0.45,1.47 0.62,3 1.92,3.81s2.83,1.16 4.15,1.93c2.74,1.59 4.21,4.69 5.15,7.72c0.7,2.28 1.28,4.74 3,6.4c0.66,0.64 1.45,1.12 2.08,1.78a7.54,7.54 0 0 1 1.79,4.58a9.11,9.11 0 0 1 -1.3,6c-2,2.87 -5.73,3.71 -9,5c-5.31,2.18 -9.68,6.08 -14.36,9.4a15.32,15.32 0 0 1 -6.55,3.08c-3.24,0.44 -6.43,-1 -9.69,-1.12a23.56,23.56 0 0 0 -5.78,0.75l-6,1.3c0.32,-4.65 -2.24,-9.3 -3.67,-13.73c-2.7,-8.34 -3.2,-17.27 -2.56,-26s2.42,-17.36 4.18,-25.95c1.23,-6 1.11,-12.27 3,-18.1c1.77,-5.61 4.3,-11 5.23,-16.83c1.52,-9.44 -4.8,-17.44 -2.66,-26.77z"/>
   <path id="svg_71" fill="#ff7f00" d="m724.49,391.13a11,11 0 0 1 1.15,3.25a11.73,11.73 0 0 0 2.53,4.76a16.73,16.73 0 0 1 2.66,3c0.92,1.74 0.57,3.86 1,5.77c0.5,2.07 1.95,3.87 2.16,6a11,11 0 0 0 0.17,1.82c0.65,2.43 4.21,3 5,5.42c0.53,1.58 -0.38,3.28 -0.21,4.93a4.34,4.34 0 0 1 0.09,1.56a3.12,3.12 0 0 1 -1.14,1.46a23.11,23.11 0 0 0 -6.58,11.72a66.52,66.52 0 0 0 -1.51,13.52l-3.91,-5.17a6.09,6.09 0 0 0 -1.56,-1.6c-0.5,-0.3 -1.08,-0.45 -1.59,-0.74c-1.48,-0.84 -2.06,-2.63 -2.63,-4.23a39.14,39.14 0 0 0 -7,-12.12c-1.59,-1.86 -3.44,-3.75 -3.79,-6.18a11.31,11.31 0 0 1 0.18,-3.33c1,-6.56 2.07,-13.26 5.26,-19.08c1.49,-2.72 3.42,-5.18 4.85,-7.94c0.96,-1.84 2.31,-6.6 4.87,-2.82z"/>
   <path id="svg_72" fill="#ff7f00" d="m625.84,397.43a4.57,4.57 0 0 1 -0.62,2.4a3.16,3.16 0 0 1 -3.16,1.05a9.14,9.14 0 0 1 -3.16,-1.48q-4.18,-2.64 -8.36,-5.29a46.28,46.28 0 0 1 -4.49,-3.08a40.07,40.07 0 0 1 -5.93,-6.21c-4.86,-6 -9.16,-12.51 -14.57,-18.05c-1.47,-1.5 -3,-2.94 -4.42,-4.51a65.82,65.82 0 0 1 -5.34,-7.18c-1.56,-2.31 -3.18,-4.87 -2.91,-7.63c0.16,-1.56 0.91,-3 1.13,-4.55s-0.37,-3.44 -1.87,-3.86a3.38,3.38 0 0 0 -0.54,-0.09a4.08,4.08 0 0 1 -0.87,-0.19c-1.39,-0.58 -1.18,-2.73 -0.18,-3.86s2.48,-1.76 3.39,-3a18.09,18.09 0 0 1 1.42,-2.11a5.41,5.41 0 0 1 2.33,-1.17a36.06,36.06 0 0 1 17.75,-0.67c1,0.22 2.14,0.62 2.44,1.59a2.93,2.93 0 0 1 0,1.44a32.2,32.2 0 0 0 -0.76,6a10.64,10.64 0 0 0 0.07,1.26c0.47,4.24 3.22,7.83 5.9,11.14c3.18,3.94 6.41,7.85 9.65,11.75a46.17,46.17 0 0 0 5.85,6.25c2,1.66 4.59,3 6.15,5.13c1.27,1.72 0.86,4.07 1,6.14a136.28,136.28 0 0 1 0.1,18.78z"/>
   <path id="svg_73" fill="#be6f72" d="m752.84,439.15a21.62,21.62 0 0 0 2.66,-3.17a20.56,20.56 0 0 0 2,-4.47l5.8,-16.45c0.92,-2.6 1.84,-5.21 3,-7.73c1.2,-2.74 2.62,-5.36 3.93,-8.05a106.49,106.49 0 0 0 7.77,-21.7a8,8 0 0 0 0.31,-3.19c-0.28,-1.72 -1.59,-3.07 -2.84,-4.3a20.84,20.84 0 0 0 -4.26,-3.53a7.09,7.09 0 0 0 -5.34,-0.86c-2.56,0.76 -4.17,3.37 -4.76,6s-0.37,5.32 -0.62,8c-0.36,3.84 -1.68,7.54 -2,11.39c-0.17,2.23 0,4.49 -0.27,6.71a24.42,24.42 0 0 1 -3,8.26a53.44,53.44 0 0 1 -12.89,15.92a20.79,20.79 0 0 0 -3.88,3.73a12.23,12.23 0 0 0 -1.87,4.66a10.75,10.75 0 0 0 0.81,7.58c1.63,2.77 4.76,4 7.75,4.62c4,0.83 4.93,-0.59 7.7,-3.42z"/>
   <path id="svg_74" fill="#3f3d56" d="m675.3,312.82a9.35,9.35 0 0 1 9.06,-4.91a10,10 0 0 1 7.86,7.06c0.47,1.49 0.66,3.14 1.48,4.42c1.24,1.93 3.54,2.49 5.26,3.89a10.55,10.55 0 0 1 3.36,7.44a22.59,22.59 0 0 1 -1.33,8.42a26.74,26.74 0 0 0 -1,3.52c-0.2,1.15 -0.22,2.34 -0.4,3.5a11.38,11.38 0 0 1 -4.6,7.59a1.92,1.92 0 0 1 -1.24,0.45c-0.78,-0.08 -1.26,-1 -1.55,-1.81c-1.59,-4.59 -1.21,-10.21 -4.14,-13.86a14.85,14.85 0 0 0 -4.76,-3.55a6,6 0 0 0 -2.42,-0.91a6.29,6.29 0 0 0 -3.5,1.28a22.24,22.24 0 0 1 -6.92,3.06a8.56,8.56 0 0 1 -7.15,-1.54c-1.38,-1.15 -2.39,-2.86 -3.92,-3.75s-3.13,-0.83 -4.64,-1.45a6.86,6.86 0 0 1 -2.72,-10.5c1,-1.21 2.48,-1.88 3.37,-3.21c1.15,-1.73 1.05,-4.09 1.6,-6.15a8.5,8.5 0 0 1 5.09,-5.81a7.17,7.17 0 0 1 7.12,1.49c1,0.9 1.8,2.07 2.78,3a8,8 0 0 0 7.4,2"/>
   <path id="svg_75" opacity="0.1" d="m691.74,459.98a3.88,3.88 0 0 0 -1.06,4.24c0.22,0.47 10.54,-1.51 11.63,-1.67c2.72,-0.39 7.49,-0.2 9.32,-2.68c3.26,-4.41 -6.84,-3.44 -8.69,-3.28c-3.52,0.39 -8.52,0.82 -11.2,3.39z"/>
   <path id="svg_76" fill="#ff7f00" d="m597.86,330.98a32.2,32.2 0 0 0 -0.76,6c-3,0.61 -6.12,-0.39 -9,-1.39l-8.27,-2.82a2.35,2.35 0 0 0 -3.16,0.59c-1.33,1.38 -3.16,4 -5,5.55a4.08,4.08 0 0 1 -0.87,-0.19c-1.39,-0.58 -1.18,-2.73 -0.18,-3.86s2.48,-1.76 3.39,-3a18.09,18.09 0 0 1 1.42,-2.11a5.41,5.41 0 0 1 2.33,-1.17a36.06,36.06 0 0 1 17.75,-0.67c1,0.22 2.14,0.62 2.44,1.59a2.93,2.93 0 0 1 -0.09,1.48z"/>
   <path id="svg_78" opacity="0.1" d="m673.51,520.87c1.44,0.47 3,1.17 3.49,2.62l-11.58,-2.95l-6,-1.52c-1.06,-0.27 -4.86,-0.59 -5.56,-1.42c-1,-1.22 2.55,-0.37 3.19,-0.28c1.94,0.28 3.88,0.58 5.81,0.93c3.64,0.66 7.14,1.73 10.65,2.62z"/>
   <path id="svg_79" opacity="0.1" d="m678,531.11c-1,-0.67 -3.87,-0.58 -5.1,-0.88c-1.8,-0.43 -3.57,-1 -5.34,-1.55c-3.59,-1.17 -7.15,-2.5 -10.84,-3.35c-0.68,-0.16 -3,-0.19 -2.89,-1.06s2.32,-1.16 2.87,-1.2c3.27,-0.24 7.35,1.3 10.39,2.39a46.12,46.12 0 0 1 10.91,5.65z"/>
   <path id="svg_80" opacity="0.1" d="m670.66,511.69c-3.67,-1 -7,-3.27 -10.78,-3.71a4.51,4.51 0 0 1 -2.75,-0.84a3.27,3.27 0 0 1 -0.89,-1.61c2.53,-0.13 5.47,0.95 7.77,1.95a26.45,26.45 0 0 1 3.64,1.94c0.84,0.56 2.1,2.02 3.01,2.27z"/>
   <path id="svg_81" fill="#ff7f00" d="m740.62,422.18a17.49,17.49 0 0 0 12.26,19.33c-0.49,2.37 -2.94,3.68 -4.67,5.37c-2.44,2.38 -3.7,5.92 -6.58,7.72c-3.21,2 -7.34,1.22 -11,0.38a1.33,1.33 0 0 1 -0.86,-0.44a1.46,1.46 0 0 1 -0.16,-0.39c-1.21,-4.44 -2,-9.17 -0.76,-13.6c1,-3.79 3.4,-7 5.32,-10.35s2.1,-6.92 6.45,-8.02z"/>
   <path id="svg_82" fill="#ff7f00" d="m651.21,364.84a26.11,26.11 0 0 0 -11,3.35c-2.24,1.29 -4.54,3 -7.1,2.69c-1.51,-0.16 -3,-1 -4.47,-0.6a9.06,9.06 0 0 0 -2.29,1.36a2.59,2.59 0 0 1 -2.52,0.4l-1,13.84c-0.38,5.27 -0.75,10.64 0.51,15.77c0.65,2.61 2.08,5 2.24,7.65s-0.08,5.39 0.11,8.08c0.18,2.49 0.73,4.94 0.87,7.44c0.28,4.7 -0.88,9.35 -2,13.92c-1.69,6.74 -2.71,13.63 -6,19.74c-0.92,1.68 -2,3.41 -2,5.33c0,0.23 0,0.47 0.06,0.7c-1,0.55 -1.93,1.06 -2.78,1.61c-1.9,1.23 -3.93,2.6 -4.71,4.73c-0.63,1.73 -0.34,3.71 -1.1,5.38s-2.5,2.86 -2.88,4.66c-0.27,1.31 0.25,2.69 0,4a17.09,17.09 0 0 0 -0.55,2.07c-0.1,1.5 1.17,2.71 2.43,3.53a19.57,19.57 0 0 0 6,2.64l6.06,-23.7l0,0a191.56,191.56 0 0 0 13.49,-31.45a67.15,67.15 0 0 1 3.91,-10.35a49.56,49.56 0 0 0 3,-5.89c0.91,-2.52 1,-5.25 1.44,-7.9a55.75,55.75 0 0 1 2.35,-9.14c1.08,-3.2 2.33,-6.41 2.55,-9.78c0.33,-4.82 -1.42,-9.9 0.44,-14.37a19.11,19.11 0 0 1 3.05,-4.59c2.58,-3.16 4.93,-6.46 7.51,-9.63c-1.39,-1.46 -3.62,-1.63 -5.62,-1.49z"/>
   <g id="svg_83" opacity="0.1">
    <path id="svg_84" d="m679.39,309.53l-1.25,0.09l-0.15,0.11a6.66,6.66 0 0 0 1.4,-0.2z"/>
    <path id="svg_85" d="m702.27,330.3a27.07,27.07 0 0 1 -1.28,5.84a26.74,26.74 0 0 0 -1,3.52c-0.2,1.15 -0.22,2.34 -0.4,3.5a11.38,11.38 0 0 1 -4.6,7.59a1.92,1.92 0 0 1 -1.24,0.45c-0.78,-0.08 -1.26,-1 -1.55,-1.81c-1.59,-4.59 -1.21,-10.21 -4.14,-13.86a14.85,14.85 0 0 0 -4.76,-3.55a6,6 0 0 0 -2.42,-0.91a6.29,6.29 0 0 0 -3.5,1.28a22.24,22.24 0 0 1 -6.92,3.06a8.56,8.56 0 0 1 -7.15,-1.54c-1.38,-1.15 -2.39,-2.86 -3.92,-3.75s-3.13,-0.83 -4.64,-1.45a6.81,6.81 0 0 1 -3.9,-4.46a2.33,2.33 0 0 1 -0.08,-0.38a7,7 0 0 0 0.08,3.38a6.81,6.81 0 0 0 3.9,4.46c1.51,0.62 3.21,0.62 4.64,1.45s2.54,2.6 3.92,3.75a8.56,8.56 0 0 0 7.15,1.54a22.24,22.24 0 0 0 6.92,-3.06a6.29,6.29 0 0 1 3.5,-1.28a6,6 0 0 1 2.42,0.91a14.85,14.85 0 0 1 4.74,3.53c2.93,3.65 2.55,9.27 4.14,13.86c0.29,0.82 0.77,1.73 1.55,1.81a1.92,1.92 0 0 0 1.24,-0.45a11.38,11.38 0 0 0 4.6,-7.59c0.18,-1.16 0.2,-2.35 0.4,-3.5a26.74,26.74 0 0 1 1,-3.52a22.59,22.59 0 0 0 1.33,-8.42c0.01,-0.12 -0.01,-0.26 -0.03,-0.4z"/>
   </g>
  </g>
 </g>
</svg>