<svg width="630" height="87.599998" xmlns="http://www.w3.org/2000/svg">
 <metadata id="metadata28">image/svg+xml</metadata>

 <g>
  <title>background</title>
  <rect fill="none" id="canvas_background" height="89.599998" width="632" y="-1" x="-1"/>
 </g>
 <g>
  <title>Layer 1</title>
  <path fill="#007fff" id="path2" d="m0,12.49l35.7,-4.9l0,34.5l-35.7,0m40,-35.18l47.3,-6.91l0,41.8l-47.3,0m-40,3.94l35.7,0l0,34.6l-35.7,-5m40,-29.14l47.3,0l0,41.4l-47.3,-6.7"/>
  <g font-style="normal" font-weight="normal" font-size="73.372688px" font-family="sans-serif" fill="#00188f" stroke-width="1.834317" id="text43">
   <path stroke="null" fill="#007fff" stroke-width="1.834317" id="path98" d="m180.57007,17.624095l-14.50973,51.37521l-7.05782,0l-10.56882,-37.54618q-0.68071,-2.40038 -0.82401,-5.23067l-0.14331,0q-0.21496,2.65116 -0.93149,5.15902l-10.64047,37.61783l-6.98617,0l-15.04713,-51.37521l6.6279,0l10.92708,39.40916q0.68071,2.47203 0.85984,5.15901l0.17913,0q0.17914,-1.8988 1.11063,-5.15901l11.357,-39.40916l5.76807,0l10.89125,39.69577q0.57323,2.04211 0.85984,4.80075l0.14331,0q0.1433,-1.86298 0.96731,-4.94406l10.49717,-39.55246l6.52042,0z"/>
   <path stroke="null" fill="#007fff" stroke-width="1.834317" id="path100" d="m189.47653,22.998065q-1.57636,0 -2.68699,-1.07479q-1.11062,-1.0748 -1.11062,-2.72282q0,-1.64802 1.11062,-2.72281q1.11063,-1.11062 2.68699,-1.11062q1.61219,0 2.72282,1.11062q1.14644,1.07479 1.14644,2.72281q0,1.57637 -1.14644,2.68699q-1.11063,1.11062 -2.72282,1.11062zm2.86612,46.00124l-5.87554,0l0,-36.68635l5.87554,0l0,36.68635z"/>
   <path stroke="null" fill="#007fff" stroke-width="1.834317" id="path102" d="m233.77958,68.999305l-5.87554,0l0,-20.92268q0,-11.67944 -8.52671,-11.67944q-4.40666,0 -7.30861,3.33186q-2.86612,3.29604 -2.86612,8.34758l0,20.92268l-5.87555,0l0,-36.68635l5.87555,0l0,6.09051l0.14331,0q4.15587,-6.95034 12.0377,-6.95034q6.01886,0 9.20742,3.90509q3.18855,3.86926 3.18855,11.21369l0,22.4274z"/>
   <path stroke="null" fill="#007fff" stroke-width="1.834317" id="path104" d="m275.28817,68.999305l-5.87555,0l0,-6.23381l-0.1433,0q-4.08422,7.09365 -12.61093,7.09365q-6.91452,0 -11.07039,-4.90824q-4.12005,-4.94405 -4.12005,-13.43494q0,-9.09993 4.58579,-14.58138q4.58579,-5.48146 12.21684,-5.48146q7.55939,0 10.99874,5.9472l0.1433,0l0,-22.71401l5.87555,0l0,54.31299zm-5.87555,-16.58767l0,-5.40981q0,-4.44248 -2.93777,-7.52356q-2.93777,-3.08108 -7.45191,-3.08108q-5.37398,0 -8.45506,3.94091q-3.08108,3.94092 -3.08108,10.89126q0,6.34129 2.93777,10.03142q2.9736,3.65431 7.95349,3.65431q4.90823,0 7.95348,-3.54683q3.08108,-3.54682 3.08108,-8.95662z"/>
   <path stroke="null" fill="#007fff" stroke-width="1.834317" id="path106" d="m301.67798,69.859145q-8.13262,0 -13.00502,-5.1232q-4.83658,-5.15901 -4.83658,-13.6499q0,-9.24323 5.05154,-14.43808q5.05153,-5.19484 13.6499,-5.19484q8.20427,0 12.79006,5.05154q4.62162,5.05153 4.62162,14.00816q0,8.7775 -4.97989,14.07982q-4.94405,5.2665 -13.29163,5.2665zm0.42992,-33.46196q-5.66059,0 -8.95663,3.86926q-3.29604,3.83344 -3.29604,10.60465q0,6.52042 3.33187,10.2822q3.33186,3.76179 8.9208,3.76179q5.69641,0 8.74167,-3.69013q3.08108,-3.69013 3.08108,-10.49717q0,-6.87869 -3.08108,-10.60465q-3.04526,-3.72595 -8.74167,-3.72595z"/>
   <path stroke="null" fill="#007fff" stroke-width="1.834317" id="path108" d="m374.64223,32.312955l-10.99874,36.68635l-6.0905,0l-7.5594,-26.26083q-0.42991,-1.50471 -0.57322,-3.40352l-0.14331,0q-0.10748,1.28976 -0.75235,3.33187l-8.20427,26.33248l-5.87555,0l-11.10622,-36.68635l6.16216,0l7.59522,27.58642q0.35827,1.25392 0.50157,3.29603l0.28661,0q0.10748,-1.57636 0.64488,-3.36769l8.45506,-27.51476l5.37397,0l7.59522,27.65807q0.35827,1.32558 0.5374,3.29604l0.28661,0q0.0717,-1.39724 0.60905,-3.29604l7.45192,-27.65807l5.80389,0z"/>
   <path stroke="null" fill="#007fff" stroke-width="1.834317" id="path110" d="m378.31803,67.673725l0,-6.30547q4.80075,3.54683 10.56882,3.54683q7.73852,0 7.73852,-5.15902q0,-1.46889 -0.6807,-2.47203q-0.64488,-1.03897 -1.79133,-1.82715q-1.11062,-0.78818 -2.65116,-1.39723q-1.50471,-0.64488 -3.26021,-1.32559q-2.4362,-0.96731 -4.29918,-1.93463q-1.82715,-1.00314 -3.08108,-2.22124q-1.2181,-1.25393 -1.86298,-2.83029q-0.60905,-1.57637 -0.60905,-3.69014q0,-2.5795 1.18228,-4.54996q1.18227,-2.00629 3.15273,-3.33187q1.97046,-1.3614 4.47831,-2.04211q2.54368,-0.6807 5.23067,-0.6807q4.76493,0 8.52671,1.64802l0,5.9472q-4.04839,-2.65116 -9.31489,-2.65116q-1.64802,0 -2.9736,0.39409q-1.32558,0.35826 -2.2929,1.03897q-0.93149,0.6807 -1.46888,1.64802q-0.50158,0.93149 -0.50158,2.07793q0,1.43306 0.50158,2.40038q0.53739,0.96732 1.54054,1.71967q1.00314,0.75236 2.4362,1.36141q1.43306,0.60905 3.26021,1.32558q2.4362,0.93149 4.37083,1.93463q1.93464,0.96732 3.29604,2.22125q1.36141,1.2181 2.07794,2.83029q0.75236,1.61219 0.75236,3.83344q0,2.72281 -1.2181,4.72909q-1.18228,2.00629 -3.18856,3.33187q-2.00629,1.32558 -4.62162,1.97046q-2.61534,0.64488 -5.48146,0.64488q-5.66059,0 -9.81646,-2.18542z"/>
   <path stroke="null" fill="#007fff" stroke-width="1.834317" id="path112" d="m428.26732,66.921365l0,-7.09365q1.2181,1.0748 2.90195,1.93463q1.71967,0.85984 3.58265,1.46889q1.8988,0.57323 3.79761,0.89566q1.8988,0.32244 3.511,0.32244q5.5531,0 8.27592,-2.04211q2.75864,-2.07794 2.75864,-5.9472q0,-2.07794 -0.93149,-3.61848q-0.89566,-1.54054 -2.50786,-2.79446q-1.61219,-1.28976 -3.83343,-2.43621q-2.18542,-1.18227 -4.7291,-2.47202q-2.68699,-1.36141 -5.01571,-2.75865q-2.32872,-1.39723 -4.0484,-3.08108q-1.71967,-1.68384 -2.72281,-3.79761q-0.96732,-2.14959 -0.96732,-5.01571q0,-3.51099 1.54054,-6.0905q1.54054,-2.61534 4.0484,-4.29918q2.50785,-1.68385 5.69641,-2.50786q3.22439,-0.82401 6.55625,-0.82401q7.59522,0 11.07039,1.82715l0,6.77121q-4.54996,-3.15273 -11.67944,-3.15273q-1.97046,0 -3.94091,0.42992q-1.97046,0.39409 -3.511,1.32558q-1.54054,0.93149 -2.50786,2.40038q-0.96731,1.46888 -0.96731,3.58265q0,1.97045 0.71653,3.40351q0.75235,1.43306 2.18542,2.61534q1.43306,1.18227 3.47517,2.2929q2.07793,1.11062 4.76492,2.4362q2.75864,1.36141 5.23067,2.86612q2.47203,1.50471 4.33501,3.33186q1.86298,1.82716 2.93777,4.0484q1.11062,2.22124 1.11062,5.08736q0,3.79761 -1.50471,6.44878q-1.46889,2.61533 -4.01257,4.26335q-2.50785,1.64802 -5.80389,2.36455q-3.29604,0.75236 -6.95034,0.75236q-1.21811,0 -3.00943,-0.21496q-1.79133,-0.17914 -3.6543,-0.57323q-1.86298,-0.35826 -3.54683,-0.89566q-1.64802,-0.57322 -2.65116,-1.25393z"/>
   <path stroke="null" fill="#007fff" stroke-width="1.834317" id="path114" d="m497.43397,52.125015l-25.90256,0q0.1433,6.12634 3.29604,9.4582q3.15273,3.33187 8.67001,3.33187q6.19799,0 11.39283,-4.08422l0,5.51728q-4.83658,3.511 -12.79006,3.511q-7.77435,0 -12.21684,-4.97989q-4.44249,-5.01571 -4.44249,-14.07982q0,-8.56253 4.83658,-13.93651q4.8724,-5.4098 12.07353,-5.4098q7.20113,0 11.14205,4.65744q3.94091,4.65745 3.94091,12.93337l0,3.08108zm-6.01885,-4.97988q-0.0358,-5.08736 -2.47203,-7.91766q-2.40038,-2.83029 -6.69956,-2.83029q-4.15587,0 -7.05782,2.9736q-2.90195,2.9736 -3.58265,7.77435l19.81206,0z"/>
   <path stroke="null" fill="#007fff" stroke-width="1.834317" id="path116" d="m524.57614,38.260165q-1.54054,-1.18228 -4.44248,-1.18228q-3.76179,0 -6.30547,3.54683q-2.50785,3.54682 -2.50785,9.67315l0,18.70144l-5.87555,0l0,-36.68635l5.87555,0l0,7.5594l0.1433,0q1.25393,-3.86926 3.83344,-6.01886q2.57951,-2.18541 5.76807,-2.18541q2.29289,0 3.51099,0.50157l0,6.09051z"/>
   <path stroke="null" fill="#007fff" stroke-width="1.834317" id="path118" d="m558.88361,32.312955l-14.61722,36.68635l-5.76806,0l-13.90069,-36.68635l6.44877,0l9.31489,26.65493q1.03897,2.93777 1.28976,5.12319l0.1433,0q0.35827,-2.75864 1.14645,-4.97989l9.74481,-26.79823l6.19799,0z"/>
   <path stroke="null" fill="#007fff" stroke-width="1.834317" id="path120" d="m593.72844,52.125015l-25.90257,0q0.14331,6.12634 3.29604,9.4582q3.15273,3.33187 8.67002,3.33187q6.19798,0 11.39282,-4.08422l0,5.51728q-4.83657,3.511 -12.79006,3.511q-7.77435,0 -12.21684,-4.97989q-4.44248,-5.01571 -4.44248,-14.07982q0,-8.56253 4.83657,-13.93651q4.87241,-5.4098 12.07354,-5.4098q7.20113,0 11.14204,4.65744q3.94092,4.65745 3.94092,12.93337l0,3.08108zm-6.01886,-4.97988q-0.0358,-5.08736 -2.47203,-7.91766q-2.40037,-2.83029 -6.69955,-2.83029q-4.15588,0 -7.05782,2.9736q-2.90195,2.9736 -3.58266,7.77435l19.81206,0z"/>
   <path stroke="null" fill="#007fff" stroke-width="1.834317" id="path122" d="m620.87061,38.260165q-1.54054,-1.18228 -4.44249,-1.18228q-3.76178,0 -6.30546,3.54683q-2.50786,3.54682 -2.50786,9.67315l0,18.70144l-5.87555,0l0,-36.68635l5.87555,0l0,7.5594l0.14331,0q1.25392,-3.86926 3.83343,-6.01886q2.57951,-2.18541 5.76807,-2.18541q2.2929,0 3.511,0.50157l0,6.09051z"/>
   <path stroke="null" fill="#007fff" stroke-width="1.834317" id="path124" d="m667.20146,31.094855q0,-2.36455 -0.75236,-4.12004q-0.71653,-1.7555 -2.00628,-2.90195q-1.25393,-1.18228 -2.9736,-1.7555q-1.71967,-0.57323 -3.72596,-0.57323q-1.71967,0 -3.36769,0.46575q-1.64802,0.46574 -3.22439,1.28975q-1.54054,0.82401 -3.00942,1.97046q-1.43306,1.14645 -2.68699,2.54368l0,-6.30546q2.47203,-2.40038 5.51728,-3.65431q3.08108,-1.28975 7.48774,-1.28975q3.15273,0 5.83972,0.93149q2.68699,0.89566 4.65745,2.65116q1.97046,1.7555 3.08108,4.33501q1.14645,2.57951 1.14645,5.91137q0,3.04526 -0.71653,5.51728q-0.68071,2.47203 -2.11377,4.65745q-1.39723,2.18542 -3.54682,4.1917q-2.14959,2.00629 -5.05154,4.08422q-3.61848,2.57951 -5.98303,4.40666q-2.32872,1.82716 -3.72595,3.43935q-1.36141,1.57637 -1.93463,3.18856q-0.5374,1.57636 -0.5374,3.6543l25.58012,0l0,5.2665l-31.70645,0l0,-2.54368q0,-3.29604 0.71653,-5.8039q0.71653,-2.50785 2.36455,-4.76492q1.64801,-2.25707 4.29918,-4.51414q2.68698,-2.25707 6.55625,-5.08737q2.79446,-2.00628 4.65744,-3.83343q1.89881,-1.82715 3.04526,-3.65431q1.14644,-1.82715 1.61219,-3.69013q0.50157,-1.8988 0.50157,-4.01257z"/>
   <path stroke="null" fill="#007fff" stroke-width="1.834317" id="path126" d="m714.72889,43.096735q0,6.44878 -1.18227,11.42866q-1.14645,4.97989 -3.3677,8.41923q-2.18541,3.40352 -5.4098,5.19484q-3.18856,1.7555 -7.27278,1.7555q-3.86926,0 -6.91452,-1.68384q-3.00942,-1.71968 -5.08736,-4.97989q-2.07794,-3.26021 -3.15273,-7.98931q-1.0748,-4.76492 -1.0748,-10.89126q0,-6.73538 1.11062,-11.8944q1.14645,-5.15902 3.33187,-8.63419q2.18542,-3.511 5.4098,-5.26649q3.26021,-1.79133 7.45192,-1.79133q16.15775,0 16.15775,26.33248zm-6.01885,0.57323q0,-21.92582 -10.42552,-21.92582q-10.99873,0 -10.99873,22.31991q0,20.8152 10.78377,20.8152q10.64048,0 10.64048,-21.20929z"/>
   <path stroke="null" fill="#007fff" stroke-width="1.834317" id="path128" d="m742.7667,68.999305l-5.87555,0l0,-44.38904q-0.6807,0.6807 -2.00628,1.57636q-1.28976,0.85984 -2.93778,1.71968q-1.61219,0.85983 -3.43934,1.61219q-1.79133,0.75235 -3.511,1.18227l0,-5.9472q1.93463,-0.5374 4.08422,-1.43306q2.18542,-0.93149 4.26336,-2.04211q2.11376,-1.14645 3.97674,-2.36455q1.86298,-1.25393 3.22439,-2.4362l2.22124,0l0,52.52166z"/>
   <path stroke="null" fill="#007fff" stroke-width="1.834317" id="path130" d="m759.44751,33.960975q0,-3.76178 1.21811,-6.91451q1.2181,-3.15274 3.36769,-5.44563q2.14959,-2.2929 5.12319,-3.58265q2.9736,-1.25393 6.44877,-1.25393q3.86926,0 6.95034,1.61219q3.04526,1.6122 5.19485,4.62162q2.11376,3.04526 3.22438,7.41609q1.11062,4.37083 1.11062,9.85229q0,6.69956 -1.46888,12.14518q-1.50472,5.48146 -4.22753,9.35072q-2.75864,3.90509 -6.62791,6.01886q-3.86926,2.11376 -8.63418,2.11376q-5.30233,0 -8.52671,-1.46889l0,-5.5531q3.97674,2.04211 8.3834,2.04211q3.43935,0 6.19799,-1.54054q2.75864,-1.54054 4.7291,-4.37084q1.97045,-2.79447 3.04525,-6.77121q1.03897,-3.97674 1.03897,-8.84915l-0.14331,0q-3.54682,6.41295 -11.71527,6.41295q-3.36769,0 -6.05468,-1.14645q-2.72281,-1.14645 -4.62162,-3.26021q-1.93463,-2.07794 -2.9736,-4.97989q-1.03897,-2.90194 -1.03897,-6.44877zm6.01886,-0.75235q0,2.68698 0.6807,4.83658q0.68071,2.14959 1.97046,3.6543q1.25393,1.50471 3.11691,2.2929q1.86297,0.82401 4.22752,0.82401q2.18542,0 4.0484,-0.82401q1.86298,-0.82401 3.22438,-2.25707q1.36141,-1.39724 2.1496,-3.29604q0.75235,-1.86298 0.75235,-3.97675q0,-2.65116 -0.75235,-4.97988q-0.75236,-2.2929 -2.11377,-4.01257q-1.36141,-1.71967 -3.22438,-2.72281q-1.89881,-0.96732 -4.19171,-0.96732q-2.22124,0 -4.04839,0.82401q-1.82715,0.85984 -3.11691,2.36455q-1.28975,1.50471 -2.00628,3.58265q-0.71653,2.11376 -0.71653,4.65745z"/>
  </g>
 </g>
</svg>